<svg class="main-svg" xmlns="http://www.w3.org/2000/svg" xmlns:xlink="http://www.w3.org/1999/xlink" width="600" height="400" style="" viewBox="0 0 600 400"><rect x="0" y="0" width="600" height="400" style="fill: rgb(255, 255, 255); fill-opacity: 1;"/><defs id="defs-428f2c"><g class="clips"><clipPath id="clip428f2cxyplot" class="plotclip"><rect width="380" height="297"/></clipPath><clipPath class="axesclip" id="clip428f2cx"><rect x="66" y="0" width="380" height="400"/></clipPath><clipPath class="axesclip" id="clip428f2cy"><rect x="0" y="50" width="600" height="297"/></clipPath><clipPath class="axesclip" id="clip428f2cxy"><rect x="66" y="50" width="380" height="297"/></clipPath></g><g class="gradients"/><g class="patterns"/></defs><g class="bglayer"><rect class="bg" x="62" y="46" width="388" height="305" style="fill: rgb(255, 255, 255); fill-opacity: 1; stroke-width: 0;"/></g><g class="layer-below"><g class="imagelayer"/><g class="shapelayer"/></g><g class="cartesianlayer"><g class="subplot xy"><g class="layer-subplot"><g class="shapelayer"/><g class="imagelayer"/></g><g class="minor-gridlayer"><g class="x"/><g class="y"/></g><g class="gridlayer"><g class="x"/><g class="y"><path class="ygrid crisp" transform="translate(0,341.29)" d="M66,0h380" style="stroke: rgb(229, 236, 246); stroke-opacity: 1; stroke-width: 2px;"/><path class="ygrid crisp" transform="translate(0,284.16999999999996)" d="M66,0h380" style="stroke: rgb(229, 236, 246); stroke-opacity: 1; stroke-width: 2px;"/><path class="ygrid crisp" transform="translate(0,227.06)" d="M66,0h380" style="stroke: rgb(229, 236, 246); stroke-opacity: 1; stroke-width: 2px;"/><path class="ygrid crisp" transform="translate(0,169.94)" d="M66,0h380" style="stroke: rgb(229, 236, 246); stroke-opacity: 1; stroke-width: 2px;"/><path class="ygrid crisp" transform="translate(0,112.83)" d="M66,0h380" style="stroke: rgb(229, 236, 246); stroke-opacity: 1; stroke-width: 2px;"/><path class="ygrid crisp" transform="translate(0,55.71)" d="M66,0h380" style="stroke: rgb(229, 236, 246); stroke-opacity: 1; stroke-width: 2px;"/></g></g><g class="zerolinelayer"/><g class="layer-between"><g class="shapelayer"/><g class="imagelayer"/></g><path class="xlines-below"/><path class="ylines-below"/><g class="overlines-below"/><g class="xaxislayer-below"/><g class="yaxislayer-below"/><g class="overaxes-below"/><g class="overplot"><g class="xy" transform="translate(66,50)" clip-path="url(#clip428f2cxyplot)"><g class="scatterlayer mlayer"><g class="trace scatter trace792d34" style="stroke-miterlimit: 2; opacity: 1;"><g class="fills"/><g class="errorbars"><g class="errorbar" style="opacity: 1;"><path class="yerror" d="M18.75,104.4h8m-4,0V116.5m-4,0h8" style="vector-effect: none; stroke-width: 2px; stroke: rgb(0, 0, 0); stroke-opacity: 1;"/></g><g class="errorbar" style="opacity: 1;"><path class="yerror" d="M49.23,123.74h8m-4,0V133.23m-4,0h8" style="vector-effect: none; stroke-width: 2px; stroke: rgb(0, 0, 0); stroke-opacity: 1;"/></g><g class="errorbar" style="opacity: 1;"><path class="yerror" d="M150.48,196.95h8m-4,0V205.87m-4,0h8" style="vector-effect: none; stroke-width: 2px; stroke: rgb(0, 0, 0); stroke-opacity: 1;"/></g><g class="errorbar" style="opacity: 1;"><path class="yerror" d="M251.73,259.45h8m-4,0V266.51m-4,0h8" style="vector-effect: none; stroke-width: 2px; stroke: rgb(0, 0, 0); stroke-opacity: 1;"/></g><g class="errorbar" style="opacity: 1;"><path class="yerror" d="M352.98,275.11h8m-4,0V280.31m-4,0h8" style="vector-effect: none; stroke-width: 2px; stroke: rgb(0, 0, 0); stroke-opacity: 1;"/></g></g><g class="lines"><path class="js-line" d="M22.75,110.45L53.23,128.49L154.48,201.41L255.73,262.98L356.98,277.71" style="vector-effect: none; fill: none; stroke: rgb(0, 0, 0); stroke-opacity: 1; stroke-dasharray: 3px, 3px; stroke-width: 2px; opacity: 1;"/></g><g class="points"><path class="point" transform="translate(22.75,110.45)" d="M3,0A3,3 0 1,1 0,-3A3,3 0 0,1 3,0Z" style="opacity: 1; stroke-width: 0px; fill: rgb(0, 0, 0); fill-opacity: 1;"/><path class="point" transform="translate(53.23,128.49)" d="M3,0A3,3 0 1,1 0,-3A3,3 0 0,1 3,0Z" style="opacity: 1; stroke-width: 0px; fill: rgb(0, 0, 0); fill-opacity: 1;"/><path class="point" transform="translate(154.48,201.41)" d="M3,0A3,3 0 1,1 0,-3A3,3 0 0,1 3,0Z" style="opacity: 1; stroke-width: 0px; fill: rgb(0, 0, 0); fill-opacity: 1;"/><path class="point" transform="translate(255.73,262.98)" d="M3,0A3,3 0 1,1 0,-3A3,3 0 0,1 3,0Z" style="opacity: 1; stroke-width: 0px; fill: rgb(0, 0, 0); fill-opacity: 1;"/><path class="point" transform="translate(356.98,277.71)" d="M3,0A3,3 0 1,1 0,-3A3,3 0 0,1 3,0Z" style="opacity: 1; stroke-width: 0px; fill: rgb(0, 0, 0); fill-opacity: 1;"/></g><g class="text"/></g><g class="trace scatter trace96da52" style="stroke-miterlimit: 2; opacity: 1;"><g class="fills"/><g class="errorbars"><g class="errorbar" style="opacity: 1;"><path class="yerror" d="M18.75,132.52h8m-4,0V146.53m-4,0h8" style="vector-effect: none; stroke-width: 2px; stroke: rgb(182, 232, 128); stroke-opacity: 1;"/></g><g class="errorbar" style="opacity: 1;"><path class="yerror" d="M49.23,149.31h8m-4,0V159.5m-4,0h8" style="vector-effect: none; stroke-width: 2px; stroke: rgb(182, 232, 128); stroke-opacity: 1;"/></g><g class="errorbar" style="opacity: 1;"><path class="yerror" d="M150.48,206.2h8m-4,0V214.87m-4,0h8" style="vector-effect: none; stroke-width: 2px; stroke: rgb(182, 232, 128); stroke-opacity: 1;"/></g><g class="errorbar" style="opacity: 1;"><path class="yerror" d="M251.73,263.11h8m-4,0V270.32m-4,0h8" style="vector-effect: none; stroke-width: 2px; stroke: rgb(182, 232, 128); stroke-opacity: 1;"/></g><g class="errorbar" style="opacity: 1;"><path class="yerror" d="M352.98,275.86h8m-4,0V280.7m-4,0h8" style="vector-effect: none; stroke-width: 2px; stroke: rgb(182, 232, 128); stroke-opacity: 1;"/></g></g><g class="lines"><path class="js-line" d="M22.75,139.53L53.23,154.41L154.48,210.54L255.73,266.72L356.98,278.28" style="vector-effect: none; fill: none; stroke: rgb(182, 232, 128); stroke-opacity: 1; stroke-width: 2px; opacity: 1;"/></g><g class="points"><path class="point" transform="translate(22.75,139.53)" d="M3,0A3,3 0 1,1 0,-3A3,3 0 0,1 3,0Z" style="opacity: 1; stroke-width: 0px; fill: rgb(182, 232, 128); fill-opacity: 1;"/><path class="point" transform="translate(53.23,154.41)" d="M3,0A3,3 0 1,1 0,-3A3,3 0 0,1 3,0Z" style="opacity: 1; stroke-width: 0px; fill: rgb(182, 232, 128); fill-opacity: 1;"/><path class="point" transform="translate(154.48,210.54)" d="M3,0A3,3 0 1,1 0,-3A3,3 0 0,1 3,0Z" style="opacity: 1; stroke-width: 0px; fill: rgb(182, 232, 128); fill-opacity: 1;"/><path class="point" transform="translate(255.73,266.72)" d="M3,0A3,3 0 1,1 0,-3A3,3 0 0,1 3,0Z" style="opacity: 1; stroke-width: 0px; fill: rgb(182, 232, 128); fill-opacity: 1;"/><path class="point" transform="translate(356.98,278.28)" d="M3,0A3,3 0 1,1 0,-3A3,3 0 0,1 3,0Z" style="opacity: 1; stroke-width: 0px; fill: rgb(182, 232, 128); fill-opacity: 1;"/></g><g class="text"/></g><g class="trace scatter trace9f8008" style="stroke-miterlimit: 2; opacity: 1;"><g class="fills"/><g class="errorbars"><g class="errorbar" style="opacity: 1;"><path class="yerror" d="M18.75,135.71h8m-4,0V150.13m-4,0h8" style="vector-effect: none; stroke-width: 2px; stroke: rgb(25, 211, 243); stroke-opacity: 1;"/></g><g class="errorbar" style="opacity: 1;"><path class="yerror" d="M49.23,155.22h8m-4,0V165.61m-4,0h8" style="vector-effect: none; stroke-width: 2px; stroke: rgb(25, 211, 243); stroke-opacity: 1;"/></g><g class="errorbar" style="opacity: 1;"><path class="yerror" d="M150.48,225.2h8m-4,0V233.43m-4,0h8" style="vector-effect: none; stroke-width: 2px; stroke: rgb(25, 211, 243); stroke-opacity: 1;"/></g><g class="errorbar" style="opacity: 1;"><path class="yerror" d="M251.73,259.74h8m-4,0V266.82m-4,0h8" style="vector-effect: none; stroke-width: 2px; stroke: rgb(25, 211, 243); stroke-opacity: 1;"/></g><g class="errorbar" style="opacity: 1;"><path class="yerror" d="M352.98,274.3h8m-4,0V279.5m-4,0h8" style="vector-effect: none; stroke-width: 2px; stroke: rgb(25, 211, 243); stroke-opacity: 1;"/></g></g><g class="lines"><path class="js-line" d="M22.75,142.92L53.23,160.41L154.48,229.31L255.73,263.28L356.98,276.9" style="vector-effect: none; fill: none; stroke: rgb(25, 211, 243); stroke-opacity: 1; stroke-width: 2px; opacity: 1;"/></g><g class="points"><path class="point" transform="translate(22.75,142.92)" d="M3,0A3,3 0 1,1 0,-3A3,3 0 0,1 3,0Z" style="opacity: 1; stroke-width: 0px; fill: rgb(25, 211, 243); fill-opacity: 1;"/><path class="point" transform="translate(53.23,160.41)" d="M3,0A3,3 0 1,1 0,-3A3,3 0 0,1 3,0Z" style="opacity: 1; stroke-width: 0px; fill: rgb(25, 211, 243); fill-opacity: 1;"/><path class="point" transform="translate(154.48,229.31)" d="M3,0A3,3 0 1,1 0,-3A3,3 0 0,1 3,0Z" style="opacity: 1; stroke-width: 0px; fill: rgb(25, 211, 243); fill-opacity: 1;"/><path class="point" transform="translate(255.73,263.28)" d="M3,0A3,3 0 1,1 0,-3A3,3 0 0,1 3,0Z" style="opacity: 1; stroke-width: 0px; fill: rgb(25, 211, 243); fill-opacity: 1;"/><path class="point" transform="translate(356.98,276.9)" d="M3,0A3,3 0 1,1 0,-3A3,3 0 0,1 3,0Z" style="opacity: 1; stroke-width: 0px; fill: rgb(25, 211, 243); fill-opacity: 1;"/></g><g class="text"/></g><g class="trace scatter trace325b2f" style="stroke-miterlimit: 2; opacity: 1;"><g class="fills"/><g class="errorbars"><g class="errorbar" style="opacity: 1;"><path class="yerror" d="M18.75,135.61h8m-4,0V150.9m-4,0h8" style="vector-effect: none; stroke-width: 2px; stroke: rgb(25, 138, 243); stroke-opacity: 1;"/></g><g class="errorbar" style="opacity: 1;"><path class="yerror" d="M49.23,162.14h8m-4,0V171.48m-4,0h8" style="vector-effect: none; stroke-width: 2px; stroke: rgb(25, 138, 243); stroke-opacity: 1;"/></g><g class="errorbar" style="opacity: 1;"><path class="yerror" d="M150.48,229.84h8m-4,0V238.23m-4,0h8" style="vector-effect: none; stroke-width: 2px; stroke: rgb(25, 138, 243); stroke-opacity: 1;"/></g><g class="errorbar" style="opacity: 1;"><path class="yerror" d="M251.73,265.81h8m-4,0V272.23m-4,0h8" style="vector-effect: none; stroke-width: 2px; stroke: rgb(25, 138, 243); stroke-opacity: 1;"/></g><g class="errorbar" style="opacity: 1;"><path class="yerror" d="M352.98,274.92h8m-4,0V279.65m-4,0h8" style="vector-effect: none; stroke-width: 2px; stroke: rgb(25, 138, 243); stroke-opacity: 1;"/></g></g><g class="lines"><path class="js-line" d="M22.75,143.25L53.23,166.81L154.48,234.03L255.73,269.02L356.98,277.28" style="vector-effect: none; fill: none; stroke: rgb(25, 138, 243); stroke-opacity: 1; stroke-width: 2px; opacity: 1;"/></g><g class="points"><path class="point" transform="translate(22.75,143.25)" d="M3,0A3,3 0 1,1 0,-3A3,3 0 0,1 3,0Z" style="opacity: 1; stroke-width: 0px; fill: rgb(25, 138, 243); fill-opacity: 1;"/><path class="point" transform="translate(53.23,166.81)" d="M3,0A3,3 0 1,1 0,-3A3,3 0 0,1 3,0Z" style="opacity: 1; stroke-width: 0px; fill: rgb(25, 138, 243); fill-opacity: 1;"/><path class="point" transform="translate(154.48,234.03)" d="M3,0A3,3 0 1,1 0,-3A3,3 0 0,1 3,0Z" style="opacity: 1; stroke-width: 0px; fill: rgb(25, 138, 243); fill-opacity: 1;"/><path class="point" transform="translate(255.73,269.02)" d="M3,0A3,3 0 1,1 0,-3A3,3 0 0,1 3,0Z" style="opacity: 1; stroke-width: 0px; fill: rgb(25, 138, 243); fill-opacity: 1;"/><path class="point" transform="translate(356.98,277.28)" d="M3,0A3,3 0 1,1 0,-3A3,3 0 0,1 3,0Z" style="opacity: 1; stroke-width: 0px; fill: rgb(25, 138, 243); fill-opacity: 1;"/></g><g class="text"/></g><g class="trace scatter trace198789" style="stroke-miterlimit: 2; opacity: 1;"><g class="fills"/><g class="errorbars"><g class="errorbar" style="opacity: 1;"><path class="yerror" d="M18.75,142.09h8m-4,0V156.47m-4,0h8" style="vector-effect: none; stroke-width: 2px; stroke: rgb(230, 110, 19); stroke-opacity: 1;"/></g><g class="errorbar" style="opacity: 1;"><path class="yerror" d="M49.23,171.7h8m-4,0V184.3m-4,0h8" style="vector-effect: none; stroke-width: 2px; stroke: rgb(230, 110, 19); stroke-opacity: 1;"/></g><g class="errorbar" style="opacity: 1;"><path class="yerror" d="M150.48,230.31h8m-4,0V238.06m-4,0h8" style="vector-effect: none; stroke-width: 2px; stroke: rgb(230, 110, 19); stroke-opacity: 1;"/></g><g class="errorbar" style="opacity: 1;"><path class="yerror" d="M251.73,263.63h8m-4,0V269.04m-4,0h8" style="vector-effect: none; stroke-width: 2px; stroke: rgb(230, 110, 19); stroke-opacity: 1;"/></g><g class="errorbar" style="opacity: 1;"><path class="yerror" d="M352.98,276.76h8m-4,0V283.37m-4,0h8" style="vector-effect: none; stroke-width: 2px; stroke: rgb(230, 110, 19); stroke-opacity: 1;"/></g></g><g class="lines"><path class="js-line" d="M22.75,149.28L53.23,178L154.48,234.19L255.73,266.34L356.98,280.07" style="vector-effect: none; fill: none; stroke: rgb(230, 110, 19); stroke-opacity: 1; stroke-width: 2px; opacity: 1;"/></g><g class="points"><path class="point" transform="translate(22.75,149.28)" d="M3,0A3,3 0 1,1 0,-3A3,3 0 0,1 3,0Z" style="opacity: 1; stroke-width: 0px; fill: rgb(230, 110, 19); fill-opacity: 1;"/><path class="point" transform="translate(53.23,178)" d="M3,0A3,3 0 1,1 0,-3A3,3 0 0,1 3,0Z" style="opacity: 1; stroke-width: 0px; fill: rgb(230, 110, 19); fill-opacity: 1;"/><path class="point" transform="translate(154.48,234.19)" d="M3,0A3,3 0 1,1 0,-3A3,3 0 0,1 3,0Z" style="opacity: 1; stroke-width: 0px; fill: rgb(230, 110, 19); fill-opacity: 1;"/><path class="point" transform="translate(255.73,266.34)" d="M3,0A3,3 0 1,1 0,-3A3,3 0 0,1 3,0Z" style="opacity: 1; stroke-width: 0px; fill: rgb(230, 110, 19); fill-opacity: 1;"/><path class="point" transform="translate(356.98,280.07)" d="M3,0A3,3 0 1,1 0,-3A3,3 0 0,1 3,0Z" style="opacity: 1; stroke-width: 0px; fill: rgb(230, 110, 19); fill-opacity: 1;"/></g><g class="text"/></g><g class="trace scatter trace9ca2b5" style="stroke-miterlimit: 2; opacity: 1;"><g class="fills"/><g class="errorbars"><g class="errorbar" style="opacity: 1;"><path class="yerror" d="M18.75,159.75h8m-4,0V177.32m-4,0h8" style="vector-effect: none; stroke-width: 2px; stroke: rgb(255, 98, 90); stroke-opacity: 1;"/></g><g class="errorbar" style="opacity: 1;"><path class="yerror" d="M49.23,181.66h8m-4,0V197.04m-4,0h8" style="vector-effect: none; stroke-width: 2px; stroke: rgb(255, 98, 90); stroke-opacity: 1;"/></g><g class="errorbar" style="opacity: 1;"><path class="yerror" d="M150.48,226.67h8m-4,0V237.6m-4,0h8" style="vector-effect: none; stroke-width: 2px; stroke: rgb(255, 98, 90); stroke-opacity: 1;"/></g><g class="errorbar" style="opacity: 1;"><path class="yerror" d="M251.73,262.15h8m-4,0V277.35m-4,0h8" style="vector-effect: none; stroke-width: 2px; stroke: rgb(255, 98, 90); stroke-opacity: 1;"/></g><g class="errorbar" style="opacity: 1;"><path class="yerror" d="M352.98,275.64h8m-4,0V284.65m-4,0h8" style="vector-effect: none; stroke-width: 2px; stroke: rgb(255, 98, 90); stroke-opacity: 1;"/></g></g><g class="lines"><path class="js-line" d="M22.75,168.54L53.23,189.35L154.48,232.14L255.73,269.75L356.98,280.14" style="vector-effect: none; fill: none; stroke: rgb(255, 98, 90); stroke-opacity: 1; stroke-width: 2px; opacity: 1;"/></g><g class="points"><path class="point" transform="translate(22.75,168.54)" d="M3,0A3,3 0 1,1 0,-3A3,3 0 0,1 3,0Z" style="opacity: 1; stroke-width: 0px; fill: rgb(255, 98, 90); fill-opacity: 1;"/><path class="point" transform="translate(53.23,189.35)" d="M3,0A3,3 0 1,1 0,-3A3,3 0 0,1 3,0Z" style="opacity: 1; stroke-width: 0px; fill: rgb(255, 98, 90); fill-opacity: 1;"/><path class="point" transform="translate(154.48,232.14)" d="M3,0A3,3 0 1,1 0,-3A3,3 0 0,1 3,0Z" style="opacity: 1; stroke-width: 0px; fill: rgb(255, 98, 90); fill-opacity: 1;"/><path class="point" transform="translate(255.73,269.75)" d="M3,0A3,3 0 1,1 0,-3A3,3 0 0,1 3,0Z" style="opacity: 1; stroke-width: 0px; fill: rgb(255, 98, 90); fill-opacity: 1;"/><path class="point" transform="translate(356.98,280.14)" d="M3,0A3,3 0 1,1 0,-3A3,3 0 0,1 3,0Z" style="opacity: 1; stroke-width: 0px; fill: rgb(255, 98, 90); fill-opacity: 1;"/></g><g class="text"/></g><g class="trace scatter trace097a17" style="stroke-miterlimit: 2; opacity: 1;"><g class="fills"/><g class="errorbars"><g class="errorbar" style="opacity: 1;"><path class="yerror" d="M26.77,7.33h8m-4,0V10.2m-4,0h8" style="vector-effect: none; stroke-width: 2px; stroke: rgb(122, 123, 126); stroke-opacity: 1;"/></g><g class="errorbar" style="opacity: 1;"><path class="yerror" d="M44.11,9.59h8m-4,0V13.43m-4,0h8" style="vector-effect: none; stroke-width: 2px; stroke: rgb(122, 123, 126); stroke-opacity: 1;"/></g><g class="errorbar" style="opacity: 1;"><path class="yerror" d="M151.91,41.25h8m-4,0V61.85m-4,0h8" style="vector-effect: none; stroke-width: 2px; stroke: rgb(122, 123, 126); stroke-opacity: 1;"/></g><g class="errorbar" style="opacity: 1;"><path class="yerror" d="M251.71,109.77h8m-4,0V133.89m-4,0h8" style="vector-effect: none; stroke-width: 2px; stroke: rgb(122, 123, 126); stroke-opacity: 1;"/></g><g class="errorbar" style="opacity: 1;"><path class="yerror" d="M353.25,121.51h8m-4,0V153.05m-4,0h8" style="vector-effect: none; stroke-width: 2px; stroke: rgb(122, 123, 126); stroke-opacity: 1;"/></g></g><g class="lines"><path class="js-line" d="M30.77,8.77L48.11,11.51L155.91,51.55L255.71,121.83L357.25,137.28" style="vector-effect: none; fill: none; stroke: rgb(122, 123, 126); stroke-opacity: 1; stroke-dasharray: 3px, 3px; stroke-width: 2px; opacity: 1;"/></g><g class="points"><path class="point" transform="translate(30.77,8.77)" d="M3,0A3,3 0 1,1 0,-3A3,3 0 0,1 3,0Z" style="opacity: 1; stroke-width: 0px; fill: rgb(122, 123, 126); fill-opacity: 1;"/><path class="point" transform="translate(48.11,11.51)" d="M3,0A3,3 0 1,1 0,-3A3,3 0 0,1 3,0Z" style="opacity: 1; stroke-width: 0px; fill: rgb(122, 123, 126); fill-opacity: 1;"/><path class="point" transform="translate(155.91,51.55)" d="M3,0A3,3 0 1,1 0,-3A3,3 0 0,1 3,0Z" style="opacity: 1; stroke-width: 0px; fill: rgb(122, 123, 126); fill-opacity: 1;"/><path class="point" transform="translate(255.71,121.83)" d="M3,0A3,3 0 1,1 0,-3A3,3 0 0,1 3,0Z" style="opacity: 1; stroke-width: 0px; fill: rgb(122, 123, 126); fill-opacity: 1;"/><path class="point" transform="translate(357.25,137.28)" d="M3,0A3,3 0 1,1 0,-3A3,3 0 0,1 3,0Z" style="opacity: 1; stroke-width: 0px; fill: rgb(122, 123, 126); fill-opacity: 1;"/></g><g class="text"/></g></g></g></g><path class="xlines-above crisp" d="M0,0" style="fill: none;"/><path class="ylines-above crisp" d="M61.5,50V347" style="fill: none; stroke-width: 1px; stroke: rgb(255, 255, 255); stroke-opacity: 1;"/><g class="overlines-above"/><g class="xaxislayer-above"><g class="xtick"><text text-anchor="middle" x="0" y="372" transform="translate(88.75,0)" style="font-family: Arial; font-size: 20px; fill: rgb(42, 63, 95); fill-opacity: 1; white-space: pre; opacity: 1;">50</text></g><g class="xtick"><text text-anchor="middle" x="0" y="372" style="font-family: Arial; font-size: 20px; fill: rgb(42, 63, 95); fill-opacity: 1; white-space: pre; opacity: 1;" transform="translate(119.22999999999999,0)">10²</text></g><g class="xtick"><text text-anchor="middle" x="0" y="372" style="font-family: Arial; font-size: 20px; fill: rgb(42, 63, 95); fill-opacity: 1; white-space: pre; opacity: 1;" transform="translate(220.48,0)">10³</text></g><g class="xtick"><text text-anchor="middle" x="0" y="372" style="font-family: Arial; font-size: 20px; fill: rgb(42, 63, 95); fill-opacity: 1; white-space: pre; opacity: 1;" transform="translate(321.73,0)">10⁴</text></g><g class="xtick"><text text-anchor="middle" x="0" y="372" style="font-family: Arial; font-size: 20px; fill: rgb(42, 63, 95); fill-opacity: 1; white-space: pre; opacity: 1;" transform="translate(422.98,0)">10⁵</text></g></g><g class="yaxislayer-above"><g class="ytick"><text text-anchor="end" x="57" y="7" transform="translate(0,341.29)" style="font-family: Arial; font-size: 20px; fill: rgb(42, 63, 95); fill-opacity: 1; white-space: pre; opacity: 1;">0.5</text></g><g class="ytick"><text text-anchor="end" x="57" y="7" style="font-family: Arial; font-size: 20px; fill: rgb(42, 63, 95); fill-opacity: 1; white-space: pre; opacity: 1;" transform="translate(0,284.16999999999996)">0.6</text></g><g class="ytick"><text text-anchor="end" x="57" y="7" style="font-family: Arial; font-size: 20px; fill: rgb(42, 63, 95); fill-opacity: 1; white-space: pre; opacity: 1;" transform="translate(0,227.06)">0.7</text></g><g class="ytick"><text text-anchor="end" x="57" y="7" style="font-family: Arial; font-size: 20px; fill: rgb(42, 63, 95); fill-opacity: 1; white-space: pre; opacity: 1;" transform="translate(0,169.94)">0.8</text></g><g class="ytick"><text text-anchor="end" x="57" y="7" style="font-family: Arial; font-size: 20px; fill: rgb(42, 63, 95); fill-opacity: 1; white-space: pre; opacity: 1;" transform="translate(0,112.83)">0.9</text></g><g class="ytick"><text text-anchor="end" x="57" y="7" style="font-family: Arial; font-size: 20px; fill: rgb(42, 63, 95); fill-opacity: 1; white-space: pre; opacity: 1;" transform="translate(0,55.71)">1</text></g></g><g class="overaxes-above"/></g></g><g class="polarlayer"/><g class="smithlayer"/><g class="ternarylayer"/><g class="geolayer"/><g class="funnelarealayer"/><g class="pielayer"/><g class="iciclelayer"/><g class="treemaplayer"/><g class="sunburstlayer"/><g class="glimages"/><defs id="topdefs-428f2c"><g class="clips"/><clipPath id="legend428f2c"><rect width="146" height="143" x="0" y="0"/></clipPath></defs><g class="layer-above"><g class="imagelayer"/><g class="shapelayer"/></g><g class="infolayer"><g class="legend" pointer-events="all" transform="translate(453.6,50)"><rect class="bg" shape-rendering="crispEdges" style="stroke: rgb(68, 68, 68); stroke-opacity: 1; fill: rgb(255, 255, 255); fill-opacity: 1; stroke-width: 0px;" width="146" height="143" x="0" y="0"/><g class="scrollbox" transform="" clip-path="url(#legend428f2c)"><g class="groups"><g class="traces" transform="translate(0,14.5)" style="opacity: 1;"><text class="legendtext" text-anchor="start" x="40" y="4.680000000000001" style="font-family: 'Open Sans', verdana, arial, sans-serif; font-size: 12px; fill: rgb(106, 121, 143); fill-opacity: 1; white-space: pre;">NPE</text><g class="layers" style="opacity: 1;"><g class="legendfill"/><g class="legendlines"><path class="js-line" d="M5,0h30" style="fill: none; stroke: rgb(0, 0, 0); stroke-opacity: 1; stroke-dasharray: 3px, 3px; stroke-width: 2px;"/></g><g class="legendsymbols"><g class="legendpoints"><path class="scatterpts" transform="translate(20,0)" d="M3,0A3,3 0 1,1 0,-3A3,3 0 0,1 3,0Z" style="opacity: 1; stroke-width: 0px; fill: rgb(0, 0, 0); fill-opacity: 1;"/></g></g></g><rect class="legendtoggle" x="0" y="-9.5" width="140.015625" height="19" style="fill: rgb(0, 0, 0); fill-opacity: 0;"/></g><g class="traces" transform="translate(0,33.5)" style="opacity: 1;"><text class="legendtext" text-anchor="start" x="40" y="4.680000000000001" style="font-family: 'Open Sans', verdana, arial, sans-serif; font-size: 12px; fill: rgb(106, 121, 143); fill-opacity: 1; white-space: pre;">MF-NPE3</text><g class="layers" style="opacity: 1;"><g class="legendfill"/><g class="legendlines"><path class="js-line" d="M5,0h30" style="fill: none; stroke: rgb(182, 232, 128); stroke-opacity: 1; stroke-width: 2px;"/></g><g class="legendsymbols"><g class="legendpoints"><path class="scatterpts" transform="translate(20,0)" d="M3,0A3,3 0 1,1 0,-3A3,3 0 0,1 3,0Z" style="opacity: 1; stroke-width: 0px; fill: rgb(182, 232, 128); fill-opacity: 1;"/></g></g></g><rect class="legendtoggle" x="0" y="-9.5" width="140.015625" height="19" style="fill: rgb(0, 0, 0); fill-opacity: 0;"/></g><g class="traces" transform="translate(0,52.5)" style="opacity: 1;"><text class="legendtext" text-anchor="start" x="40" y="4.680000000000001" style="font-family: 'Open Sans', verdana, arial, sans-serif; font-size: 12px; fill: rgb(106, 121, 143); fill-opacity: 1; white-space: pre;">MF-NPE4</text><g class="layers" style="opacity: 1;"><g class="legendfill"/><g class="legendlines"><path class="js-line" d="M5,0h30" style="fill: none; stroke: rgb(25, 211, 243); stroke-opacity: 1; stroke-width: 2px;"/></g><g class="legendsymbols"><g class="legendpoints"><path class="scatterpts" transform="translate(20,0)" d="M3,0A3,3 0 1,1 0,-3A3,3 0 0,1 3,0Z" style="opacity: 1; stroke-width: 0px; fill: rgb(25, 211, 243); fill-opacity: 1;"/></g></g></g><rect class="legendtoggle" x="0" y="-9.5" width="140.015625" height="19" style="fill: rgb(0, 0, 0); fill-opacity: 0;"/></g><g class="traces" transform="translate(0,71.5)" style="opacity: 1;"><text class="legendtext" text-anchor="start" x="40" y="4.680000000000001" style="font-family: 'Open Sans', verdana, arial, sans-serif; font-size: 12px; fill: rgb(106, 121, 143); fill-opacity: 1; white-space: pre;">MF-NPE5</text><g class="layers" style="opacity: 1;"><g class="legendfill"/><g class="legendlines"><path class="js-line" d="M5,0h30" style="fill: none; stroke: rgb(25, 138, 243); stroke-opacity: 1; stroke-width: 2px;"/></g><g class="legendsymbols"><g class="legendpoints"><path class="scatterpts" transform="translate(20,0)" d="M3,0A3,3 0 1,1 0,-3A3,3 0 0,1 3,0Z" style="opacity: 1; stroke-width: 0px; fill: rgb(25, 138, 243); fill-opacity: 1;"/></g></g></g><rect class="legendtoggle" x="0" y="-9.5" width="140.015625" height="19" style="fill: rgb(0, 0, 0); fill-opacity: 0;"/></g><g class="traces" transform="translate(0,90.5)" style="opacity: 1;"><text class="legendtext" text-anchor="start" x="40" y="4.680000000000001" style="font-family: 'Open Sans', verdana, arial, sans-serif; font-size: 12px; fill: rgb(106, 121, 143); fill-opacity: 1; white-space: pre;">MF-SNPE4</text><g class="layers" style="opacity: 1;"><g class="legendfill"/><g class="legendlines"><path class="js-line" d="M5,0h30" style="fill: none; stroke: rgb(230, 110, 19); stroke-opacity: 1; stroke-width: 2px;"/></g><g class="legendsymbols"><g class="legendpoints"><path class="scatterpts" transform="translate(20,0)" d="M3,0A3,3 0 1,1 0,-3A3,3 0 0,1 3,0Z" style="opacity: 1; stroke-width: 0px; fill: rgb(230, 110, 19); fill-opacity: 1;"/></g></g></g><rect class="legendtoggle" x="0" y="-9.5" width="140.015625" height="19" style="fill: rgb(0, 0, 0); fill-opacity: 0;"/></g><g class="traces" transform="translate(0,109.5)" style="opacity: 1;"><text class="legendtext" text-anchor="start" x="40" y="4.680000000000001" style="font-family: 'Open Sans', verdana, arial, sans-serif; font-size: 12px; fill: rgb(106, 121, 143); fill-opacity: 1; white-space: pre;">ACTIVE-MF-SNPE4</text><g class="layers" style="opacity: 1;"><g class="legendfill"/><g class="legendlines"><path class="js-line" d="M5,0h30" style="fill: none; stroke: rgb(255, 98, 90); stroke-opacity: 1; stroke-width: 2px;"/></g><g class="legendsymbols"><g class="legendpoints"><path class="scatterpts" transform="translate(20,0)" d="M3,0A3,3 0 1,1 0,-3A3,3 0 0,1 3,0Z" style="opacity: 1; stroke-width: 0px; fill: rgb(255, 98, 90); fill-opacity: 1;"/></g></g></g><rect class="legendtoggle" x="0" y="-9.5" width="140.015625" height="19" style="fill: rgb(0, 0, 0); fill-opacity: 0;"/></g><g class="traces" transform="translate(0,128.5)" style="opacity: 1;"><text class="legendtext" text-anchor="start" x="40" y="4.680000000000001" style="font-family: 'Open Sans', verdana, arial, sans-serif; font-size: 12px; fill: rgb(106, 121, 143); fill-opacity: 1; white-space: pre;">MF-ABC5</text><g class="layers" style="opacity: 1;"><g class="legendfill"/><g class="legendlines"><path class="js-line" d="M5,0h30" style="fill: none; stroke: rgb(122, 123, 126); stroke-opacity: 1; stroke-dasharray: 3px, 3px; stroke-width: 2px;"/></g><g class="legendsymbols"><g class="legendpoints"><path class="scatterpts" transform="translate(20,0)" d="M3,0A3,3 0 1,1 0,-3A3,3 0 0,1 3,0Z" style="opacity: 1; stroke-width: 0px; fill: rgb(122, 123, 126); fill-opacity: 1;"/></g></g></g><rect class="legendtoggle" x="0" y="-9.5" width="140.015625" height="19" style="fill: rgb(0, 0, 0); fill-opacity: 0;"/></g></g></g><rect class="scrollbar" rx="20" ry="3" width="0" height="0" style="fill: rgb(128, 139, 164); fill-opacity: 1;" x="0" y="0"/></g><g class="g-gtitle"><text class="gtitle" x="300" y="12" text-anchor="middle" dy="0.7em" style="opacity: 1; font-family: 'Open Sans', verdana, arial, sans-serif; font-size: 20px; fill: rgb(106, 121, 143); fill-opacity: 1; white-space: pre;">OUprocess</text></g><g class="g-xtitle" transform="translate(0,-1.5)"><text class="xtitle" x="256" y="395.5" text-anchor="middle" style="opacity: 1; font-family: 'Open Sans', verdana, arial, sans-serif; font-size: 20px; fill: rgb(106, 121, 143); fill-opacity: 1; white-space: pre;">Number of HF simulations</text></g><g class="g-ytitle" transform="translate(9.8125,0)"><text class="ytitle" transform="rotate(-90,11.6875,198.5)" x="11.6875" y="198.5" text-anchor="middle" style="opacity: 1; font-family: 'Open Sans', verdana, arial, sans-serif; font-size: 20px; fill: rgb(106, 121, 143); fill-opacity: 1; white-space: pre;">C2ST</text></g></g></svg>