<?xml version="1.0" encoding="utf-8" standalone="no"?>
<!DOCTYPE svg PUBLIC "-//W3C//DTD SVG 1.1//EN"
  "http://www.w3.org/Graphics/SVG/1.1/DTD/svg11.dtd">
<svg xmlns:xlink="http://www.w3.org/1999/xlink" width="360pt" height="360pt" viewBox="0 0 360 360" xmlns="http://www.w3.org/2000/svg" version="1.1">
 <metadata>
  <rdf:RDF xmlns:dc="http://purl.org/dc/elements/1.1/" xmlns:cc="http://creativecommons.org/ns#" xmlns:rdf="http://www.w3.org/1999/02/22-rdf-syntax-ns#">
   <cc:Work>
    <dc:type rdf:resource="http://purl.org/dc/dcmitype/StillImage"/>
    <dc:date>2026-02-16T14:37:57.357246</dc:date>
    <dc:format>image/svg+xml</dc:format>
    <dc:creator>
     <cc:Agent>
      <dc:title>Matplotlib v3.10.8, https://matplotlib.org/</dc:title>
     </cc:Agent>
    </dc:creator>
   </cc:Work>
  </rdf:RDF>
 </metadata>
 <defs>
  <style type="text/css">*{stroke-linejoin: round; stroke-linecap: butt}</style>
 </defs>
 <g id="figure_1">
  <g id="patch_1">
   <path d="M 0 360 
L 360 360 
L 360 0 
L 0 0 
z
" style="fill: #ffffff"/>
  </g>
  <g id="axes_1">
   <g id="patch_2">
    <path d="M 45 165.272727 
L 171.818182 165.272727 
L 171.818182 36 
L 45 36 
z
" style="fill: #ffffff"/>
   </g>
   <g id="matplotlib.axis_1">
    <g id="xtick_1">
     <g id="line2d_1">
      <defs>
       <path id="m44b91484c9" d="M 0 0 
L 0 3.5 
" style="stroke: #000000; stroke-width: 0.8"/>
      </defs>
      <g>
       <use xlink:href="#m44b91484c9" x="84.357367" y="170.272727" style="stroke: #000000; stroke-width: 0.8"/>
      </g>
     </g>
     <g id="text_1">
      <!-- 1 -->
      <g transform="translate(81.176117 184.871165) scale(0.1 -0.1)">
       <defs>
        <path id="DejaVuSans-31" d="M 794 531 
L 1825 531 
L 1825 4091 
L 703 3866 
L 703 4441 
L 1819 4666 
L 2450 4666 
L 2450 531 
L 3481 531 
L 3481 0 
L 794 0 
L 794 531 
z
" transform="scale(0.015625)"/>
       </defs>
       <use xlink:href="#DejaVuSans-31"/>
      </g>
     </g>
    </g>
    <g id="xtick_2">
     <g id="line2d_2">
      <g>
       <use xlink:href="#m44b91484c9" x="128.087774" y="170.272727" style="stroke: #000000; stroke-width: 0.8"/>
      </g>
     </g>
     <g id="text_2">
      <!-- 2 -->
      <g transform="translate(124.906524 184.871165) scale(0.1 -0.1)">
       <defs>
        <path id="DejaVuSans-32" d="M 1228 531 
L 3431 531 
L 3431 0 
L 469 0 
L 469 531 
Q 828 903 1448 1529 
Q 2069 2156 2228 2338 
Q 2531 2678 2651 2914 
Q 2772 3150 2772 3378 
Q 2772 3750 2511 3984 
Q 2250 4219 1831 4219 
Q 1534 4219 1204 4116 
Q 875 4013 500 3803 
L 500 4441 
Q 881 4594 1212 4672 
Q 1544 4750 1819 4750 
Q 2544 4750 2975 4387 
Q 3406 4025 3406 3419 
Q 3406 3131 3298 2873 
Q 3191 2616 2906 2266 
Q 2828 2175 2409 1742 
Q 1991 1309 1228 531 
z
" transform="scale(0.015625)"/>
       </defs>
       <use xlink:href="#DejaVuSans-32"/>
      </g>
     </g>
    </g>
    <g id="xtick_3">
     <g id="line2d_3">
      <g>
       <use xlink:href="#m44b91484c9" x="171.818182" y="170.272727" style="stroke: #000000; stroke-width: 0.8"/>
      </g>
     </g>
     <g id="text_3">
      <!-- 3 -->
      <g transform="translate(168.636932 184.871165) scale(0.1 -0.1)">
       <defs>
        <path id="DejaVuSans-33" d="M 2597 2516 
Q 3050 2419 3304 2112 
Q 3559 1806 3559 1356 
Q 3559 666 3084 287 
Q 2609 -91 1734 -91 
Q 1441 -91 1130 -33 
Q 819 25 488 141 
L 488 750 
Q 750 597 1062 519 
Q 1375 441 1716 441 
Q 2309 441 2620 675 
Q 2931 909 2931 1356 
Q 2931 1769 2642 2001 
Q 2353 2234 1838 2234 
L 1294 2234 
L 1294 2753 
L 1863 2753 
Q 2328 2753 2575 2939 
Q 2822 3125 2822 3475 
Q 2822 3834 2567 4026 
Q 2313 4219 1838 4219 
Q 1578 4219 1281 4162 
Q 984 4106 628 3988 
L 628 4550 
Q 988 4650 1302 4700 
Q 1616 4750 1894 4750 
Q 2613 4750 3031 4423 
Q 3450 4097 3450 3541 
Q 3450 3153 3228 2886 
Q 3006 2619 2597 2516 
z
" transform="scale(0.015625)"/>
       </defs>
       <use xlink:href="#DejaVuSans-33"/>
      </g>
     </g>
    </g>
    <g id="text_4">
     <!-- $\theta_0$ -->
     <g transform="translate(102.959091 198.54929) scale(0.1 -0.1)">
      <defs>
       <path id="DejaVuSans-Oblique-3b8" d="M 2913 2219 
L 925 2219 
Q 791 1284 928 888 
Q 1100 400 1566 400 
Q 2034 400 2391 891 
Q 2703 1322 2913 2219 
z
M 3009 2750 
Q 3094 3638 2984 3950 
Q 2813 4444 2353 4444 
Q 1875 4444 1525 3956 
Q 1250 3563 1034 2750 
L 3009 2750 
z
M 2444 4913 
Q 3194 4913 3494 4250 
Q 3794 3591 3566 2422 
Q 3341 1256 2781 594 
Q 2225 -72 1475 -72 
Q 722 -72 425 594 
Q 128 1256 353 2422 
Q 581 3591 1134 4250 
Q 1691 4913 2444 4913 
z
" transform="scale(0.015625)"/>
       <path id="DejaVuSans-30" d="M 2034 4250 
Q 1547 4250 1301 3770 
Q 1056 3291 1056 2328 
Q 1056 1369 1301 889 
Q 1547 409 2034 409 
Q 2525 409 2770 889 
Q 3016 1369 3016 2328 
Q 3016 3291 2770 3770 
Q 2525 4250 2034 4250 
z
M 2034 4750 
Q 2819 4750 3233 4129 
Q 3647 3509 3647 2328 
Q 3647 1150 3233 529 
Q 2819 -91 2034 -91 
Q 1250 -91 836 529 
Q 422 1150 422 2328 
Q 422 3509 836 4129 
Q 1250 4750 2034 4750 
z
" transform="scale(0.015625)"/>
      </defs>
      <use xlink:href="#DejaVuSans-Oblique-3b8" transform="translate(0 0.234375)"/>
      <use xlink:href="#DejaVuSans-30" transform="translate(61.181641 -16.171875) scale(0.7)"/>
     </g>
    </g>
   </g>
   <g id="matplotlib.axis_2">
    <g id="ytick_1"/>
    <g id="ytick_2"/>
    <g id="ytick_3"/>
    <g id="ytick_4"/>
    <g id="ytick_5"/>
   </g>
   <g id="patch_3">
    <path d="M 99.773079 165.272727 
L 99.773079 163.969903 
L 101.185488 163.969903 
L 101.185488 165.272727 
L 102.597896 165.272727 
L 102.597896 165.272727 
L 104.010305 165.272727 
L 104.010305 163.969903 
L 105.422719 163.969903 
L 105.422719 165.272727 
L 106.835127 165.272727 
L 106.835127 165.272727 
L 108.247536 165.272727 
L 108.247536 165.272727 
L 109.659944 165.272727 
L 109.659944 163.969903 
L 111.072353 163.969903 
L 111.072353 163.969903 
L 112.484761 163.969903 
L 112.484761 165.272727 
L 113.89717 165.272727 
L 113.89717 165.272727 
L 115.309578 165.272727 
L 115.309578 165.272727 
L 116.721987 165.272727 
L 116.721987 163.969903 
L 118.134396 163.969903 
L 118.134396 161.364255 
L 119.546809 161.364255 
L 119.546809 163.969903 
L 120.959218 163.969903 
L 120.959218 165.272727 
L 122.371626 165.272727 
L 122.371626 163.969903 
L 123.784035 163.969903 
L 123.784035 161.364255 
L 125.196444 161.364255 
L 125.196444 161.364255 
L 126.608857 161.364255 
L 126.608857 161.364255 
L 128.021266 161.364255 
L 128.021266 160.061431 
L 129.433674 160.061431 
L 129.433674 162.667079 
L 130.846083 162.667079 
L 130.846083 163.969903 
L 132.258492 163.969903 
L 132.258492 163.969903 
L 133.6709 163.969903 
L 133.6709 161.364255 
L 135.083309 161.364255 
L 135.083309 162.667079 
L 136.495717 162.667079 
L 136.495717 154.850134 
L 137.908126 154.850134 
L 137.908126 160.061431 
L 139.320534 160.061431 
L 139.320534 154.850134 
L 140.732943 154.850134 
L 140.732943 139.216244 
L 142.145362 139.216244 
L 142.145362 143.124717 
L 143.55777 143.124717 
L 143.55777 123.582354 
L 144.970179 123.582354 
L 144.970179 101.434343 
L 146.382588 101.434343 
L 146.382588 71.469388 
L 147.794996 71.469388 
L 147.794996 48.018553 
L 149.207405 48.018553 
L 149.207405 50.624201 
L 150.619813 50.624201 
L 150.619813 70.166564 
L 152.032222 70.166564 
L 152.032222 68.863739 
L 153.44463 68.863739 
L 153.44463 94.920223 
L 154.857039 94.920223 
L 154.857039 104.039992 
L 156.269447 104.039992 
L 156.269447 83.194805 
L 157.681856 83.194805 
L 157.681856 115.765409 
L 159.094265 115.765409 
L 159.094265 111.856937 
L 160.506673 111.856937 
L 160.506673 122.27953 
L 161.919082 122.27953 
L 161.919082 127.490827 
L 163.33149 127.490827 
L 163.33149 134.004947 
L 164.743899 134.004947 
L 164.743899 131.399299 
L 166.156307 131.399299 
L 166.156307 122.27953 
L 167.568716 122.27953 
L 167.568716 131.399299 
L 168.981124 131.399299 
L 168.981124 140.519068 
L 170.393543 140.519068 
L 170.393543 165.272727 
" clip-path="url(#pfced21b844)" style="fill: none; stroke: #1f77b4; stroke-linejoin: miter"/>
   </g>
   <g id="patch_4">
    <path d="M 124.787483 165.272727 
L 124.787483 163.969903 
L 125.724919 163.969903 
L 125.724919 165.272727 
L 126.662354 165.272727 
L 126.662354 165.272727 
L 127.599789 165.272727 
L 127.599789 165.272727 
L 128.537224 165.272727 
L 128.537224 162.667079 
L 129.47466 162.667079 
L 129.47466 163.969903 
L 130.412095 163.969903 
L 130.412095 165.272727 
L 131.34953 165.272727 
L 131.34953 165.272727 
L 132.286965 165.272727 
L 132.286965 158.758606 
L 133.224411 158.758606 
L 133.224411 160.061431 
L 134.161846 160.061431 
L 134.161846 160.061431 
L 135.099282 160.061431 
L 135.099282 158.758606 
L 136.036717 158.758606 
L 136.036717 158.758606 
L 136.974152 158.758606 
L 136.974152 160.061431 
L 137.911587 160.061431 
L 137.911587 157.455782 
L 138.849023 157.455782 
L 138.849023 158.758606 
L 139.786458 158.758606 
L 139.786458 148.336013 
L 140.723893 148.336013 
L 140.723893 160.061431 
L 141.661328 160.061431 
L 141.661328 153.54731 
L 142.598764 153.54731 
L 142.598764 143.124717 
L 143.536199 143.124717 
L 143.536199 158.758606 
L 144.473634 158.758606 
L 144.473634 140.519068 
L 145.411069 140.519068 
L 145.411069 148.336013 
L 146.348515 148.336013 
L 146.348515 140.519068 
L 147.28595 140.519068 
L 147.28595 126.188002 
L 148.223385 126.188002 
L 148.223385 141.821892 
L 149.160821 141.821892 
L 149.160821 120.976706 
L 150.098256 120.976706 
L 150.098256 130.096475 
L 151.035691 130.096475 
L 151.035691 118.371058 
L 151.973126 118.371058 
L 151.973126 106.64564 
L 152.910562 106.64564 
L 152.910562 124.885178 
L 153.847997 124.885178 
L 153.847997 109.251288 
L 154.785432 109.251288 
L 154.785432 106.64564 
L 155.722867 106.64564 
L 155.722867 109.251288 
L 156.660303 109.251288 
L 156.660303 98.828695 
L 157.597738 98.828695 
L 157.597738 94.920223 
L 158.535173 94.920223 
L 158.535173 111.856937 
L 159.472608 111.856937 
L 159.472608 107.948464 
L 160.410044 107.948464 
L 160.410044 107.948464 
L 161.347479 107.948464 
L 161.347479 100.131519 
L 162.284914 100.131519 
L 162.284914 117.068233 
L 163.222349 117.068233 
L 163.222349 122.27953 
L 164.159785 122.27953 
L 164.159785 128.793651 
L 165.09723 128.793651 
L 165.09723 124.885178 
L 166.034666 124.885178 
L 166.034666 143.124717 
L 166.972101 143.124717 
L 166.972101 141.821892 
L 167.909536 141.821892 
L 167.909536 143.124717 
L 168.846971 143.124717 
L 168.846971 143.124717 
L 169.784407 143.124717 
L 169.784407 145.730365 
L 170.721842 145.730365 
L 170.721842 152.244486 
L 171.659277 152.244486 
L 171.659277 165.272727 
" clip-path="url(#pfced21b844)" style="fill: none; stroke: #2ca02c; stroke-linejoin: miter"/>
   </g>
   <g id="line2d_4">
    <path d="M 157.077984 165.272727 
L 157.077984 42.155844 
" clip-path="url(#pfced21b844)" style="fill: none; stroke: #ff0000; stroke-width: 1.5; stroke-linecap: square"/>
   </g>
   <g id="patch_5">
    <path d="M 45 170.272727 
L 171.818182 170.272727 
" style="fill: none; stroke: #000000; stroke-width: 0.8; stroke-linejoin: miter; stroke-linecap: square"/>
   </g>
  </g>
  <g id="axes_2">
   <g id="patch_6">
    <path d="M 197.181818 165.272727 
L 324 165.272727 
L 324 36 
L 197.181818 36 
z
" style="fill: #ffffff"/>
   </g>
   <g id="matplotlib.axis_3">
    <g id="xtick_4"/>
    <g id="xtick_5"/>
    <g id="xtick_6"/>
   </g>
   <g id="matplotlib.axis_4">
    <g id="ytick_6"/>
    <g id="ytick_7"/>
    <g id="ytick_8"/>
    <g id="ytick_9"/>
    <g id="ytick_10"/>
    <g id="ytick_11"/>
   </g>
   <g id="QuadContourSet_1">
    <path d="M 197.181818 54.46753 
L 199.769945 54.46753 
L 202.35807 51.829315 
L 202.35807 51.829315 
L 202.35807 51.829315 
L 204.946198 54.46753 
L 207.534323 54.46753 
L 210.122448 54.46753 
L 210.122448 54.46753 
L 212.710573 57.105756 
L 212.710573 57.105756 
L 212.710573 59.743972 
L 212.710573 59.743972 
L 210.122448 59.743972 
L 207.534323 62.382187 
L 207.534323 62.382187 
L 204.946198 62.382187 
L 202.35807 62.382187 
L 199.769945 62.382187 
L 197.181818 62.382187 
M 241.179961 67.658629 
L 241.179961 67.658629 
L 238.591836 65.020413 
L 236.003711 65.020413 
L 233.415579 65.020413 
L 230.827454 65.020413 
L 230.827454 65.020413 
L 228.239329 62.382187 
L 228.239329 62.382187 
L 225.651204 59.743972 
L 225.651204 59.743972 
L 225.651204 57.105756 
L 225.651204 57.105756 
L 228.239329 54.46753 
L 228.239329 54.46753 
L 230.827454 51.829315 
L 230.827454 51.829315 
L 233.415579 49.191099 
L 233.415579 49.191099 
L 236.003711 49.191099 
L 238.591836 46.552873 
L 238.591836 46.552873 
L 241.179961 46.552873 
L 243.768086 43.914657 
L 243.768086 43.914657 
L 246.35621 43.914657 
L 248.944335 41.276442 
L 248.944335 41.276442 
L 251.532468 41.276442 
L 254.120592 41.276442 
L 256.708717 41.276442 
L 259.296842 41.276442 
L 261.884967 41.276442 
L 264.473092 41.276442 
L 267.061216 41.276442 
L 269.649341 41.276442 
L 272.237474 41.276442 
L 272.237474 41.276442 
L 272.237474 43.914657 
L 272.237474 46.552873 
L 272.237474 49.191099 
L 272.237474 51.829315 
L 272.237474 51.829315 
L 269.649341 54.46753 
L 269.649341 57.105756 
L 269.649341 57.105756 
L 267.061216 59.743972 
L 267.061216 59.743972 
L 264.473092 62.382187 
L 264.473092 62.382187 
L 261.884967 62.382187 
L 259.296842 65.020413 
L 259.296842 65.020413 
L 256.708717 65.020413 
L 254.120592 65.020413 
L 251.532468 65.020413 
L 248.944335 67.658629 
L 248.944335 67.658629 
L 246.35621 67.658629 
L 243.768086 67.658629 
L 241.179961 67.658629 
z
" clip-path="url(#p57dbb8d862)" style="fill: none; stroke: #1f77b4; stroke-width: 1.5"/>
   </g>
   <g id="QuadContourSet_2">
    <path d="M 230.827454 62.382187 
L 230.827454 62.382187 
L 228.239329 59.743972 
L 225.651204 59.743972 
L 225.651204 59.743972 
L 223.06308 57.105756 
L 220.474955 57.105756 
L 220.474955 57.105756 
L 220.474955 54.46753 
L 220.474955 51.829315 
L 220.474955 49.191099 
L 220.474955 46.552873 
L 220.474955 46.552873 
L 223.06308 46.552873 
L 225.651204 43.914657 
L 225.651204 43.914657 
L 228.239329 43.914657 
L 230.827454 41.276442 
L 230.827454 41.276442 
L 233.415579 41.276442 
L 236.003711 41.276442 
L 238.591836 41.276442 
L 241.179961 38.638216 
L 241.179961 38.638216 
L 243.768086 38.638216 
L 246.35621 38.638216 
L 248.944335 38.638216 
L 248.944335 38.638216 
L 251.532468 41.276442 
L 254.120592 41.276442 
L 256.708717 41.276442 
L 259.296842 41.276442 
L 261.884967 41.276442 
L 264.473092 41.276442 
L 264.473092 41.276442 
L 267.061216 43.914657 
L 269.649341 43.914657 
L 272.237474 43.914657 
L 272.237474 43.914657 
L 274.825598 46.552873 
L 274.825598 46.552873 
L 277.413723 49.191099 
L 277.413723 49.191099 
L 277.413723 51.829315 
L 277.413723 51.829315 
L 274.825598 54.46753 
L 274.825598 54.46753 
L 272.237474 57.105756 
L 272.237474 57.105756 
L 269.649341 57.105756 
L 267.061216 59.743972 
L 267.061216 59.743972 
L 264.473092 59.743972 
L 261.884967 62.382187 
L 261.884967 62.382187 
L 259.296842 62.382187 
L 256.708717 62.382187 
L 254.120592 62.382187 
L 251.532468 62.382187 
L 248.944335 62.382187 
L 246.35621 62.382187 
L 243.768086 62.382187 
L 241.179961 62.382187 
L 238.591836 62.382187 
L 236.003711 62.382187 
L 233.415579 62.382187 
L 230.827454 62.382187 
z
" clip-path="url(#p57dbb8d862)" style="fill: none; stroke: #2ca02c; stroke-width: 1.5"/>
   </g>
   <g id="line2d_5">
    <path d="M 231.958198 51.025492 
" clip-path="url(#p57dbb8d862)" style="fill: none; stroke: #ff0000; stroke-width: 1.5; stroke-linecap: square"/>
    <defs>
     <path id="m6de8be8a58" d="M 0 1.5 
C 0.397805 1.5 0.77937 1.341951 1.06066 1.06066 
C 1.341951 0.77937 1.5 0.397805 1.5 0 
C 1.5 -0.397805 1.341951 -0.77937 1.06066 -1.06066 
C 0.77937 -1.341951 0.397805 -1.5 0 -1.5 
C -0.397805 -1.5 -0.77937 -1.341951 -1.06066 -1.06066 
C -1.341951 -0.77937 -1.5 -0.397805 -1.5 0 
C -1.5 0.397805 -1.341951 0.77937 -1.06066 1.06066 
C -0.77937 1.341951 -0.397805 1.5 0 1.5 
z
" style="stroke: #ff0000"/>
    </defs>
    <g clip-path="url(#p57dbb8d862)">
     <use xlink:href="#m6de8be8a58" x="231.958198" y="51.025492" style="fill: #ff0000; stroke: #ff0000"/>
    </g>
   </g>
  </g>
  <g id="axes_3"/>
  <g id="axes_4">
   <g id="patch_7">
    <path d="M 197.181818 320.4 
L 324 320.4 
L 324 191.127273 
L 197.181818 191.127273 
z
" style="fill: #ffffff"/>
   </g>
   <g id="matplotlib.axis_5">
    <g id="xtick_7">
     <g id="line2d_6">
      <g>
       <use xlink:href="#m44b91484c9" x="222.545453" y="325.4" style="stroke: #000000; stroke-width: 0.8"/>
      </g>
     </g>
     <g id="text_5">
      <!-- 0.2 -->
      <g transform="translate(214.593891 339.998438) scale(0.1 -0.1)">
       <defs>
        <path id="DejaVuSans-2e" d="M 684 794 
L 1344 794 
L 1344 0 
L 684 0 
L 684 794 
z
" transform="scale(0.015625)"/>
       </defs>
       <use xlink:href="#DejaVuSans-30"/>
       <use xlink:href="#DejaVuSans-2e" transform="translate(63.623047 0)"/>
       <use xlink:href="#DejaVuSans-32" transform="translate(95.410156 0)"/>
      </g>
     </g>
    </g>
    <g id="xtick_8">
     <g id="line2d_7">
      <g>
       <use xlink:href="#m44b91484c9" x="273.272723" y="325.4" style="stroke: #000000; stroke-width: 0.8"/>
      </g>
     </g>
     <g id="text_6">
      <!-- 0.4 -->
      <g transform="translate(265.321161 339.998438) scale(0.1 -0.1)">
       <defs>
        <path id="DejaVuSans-34" d="M 2419 4116 
L 825 1625 
L 2419 1625 
L 2419 4116 
z
M 2253 4666 
L 3047 4666 
L 3047 1625 
L 3713 1625 
L 3713 1100 
L 3047 1100 
L 3047 0 
L 2419 0 
L 2419 1100 
L 313 1100 
L 313 1709 
L 2253 4666 
z
" transform="scale(0.015625)"/>
       </defs>
       <use xlink:href="#DejaVuSans-30"/>
       <use xlink:href="#DejaVuSans-2e" transform="translate(63.623047 0)"/>
       <use xlink:href="#DejaVuSans-34" transform="translate(95.410156 0)"/>
      </g>
     </g>
    </g>
    <g id="xtick_9">
     <g id="line2d_8">
      <g>
       <use xlink:href="#m44b91484c9" x="323.999994" y="325.4" style="stroke: #000000; stroke-width: 0.8"/>
      </g>
     </g>
     <g id="text_7">
      <!-- 0.6 -->
      <g transform="translate(316.048431 339.998438) scale(0.1 -0.1)">
       <defs>
        <path id="DejaVuSans-36" d="M 2113 2584 
Q 1688 2584 1439 2293 
Q 1191 2003 1191 1497 
Q 1191 994 1439 701 
Q 1688 409 2113 409 
Q 2538 409 2786 701 
Q 3034 994 3034 1497 
Q 3034 2003 2786 2293 
Q 2538 2584 2113 2584 
z
M 3366 4563 
L 3366 3988 
Q 3128 4100 2886 4159 
Q 2644 4219 2406 4219 
Q 1781 4219 1451 3797 
Q 1122 3375 1075 2522 
Q 1259 2794 1537 2939 
Q 1816 3084 2150 3084 
Q 2853 3084 3261 2657 
Q 3669 2231 3669 1497 
Q 3669 778 3244 343 
Q 2819 -91 2113 -91 
Q 1303 -91 875 529 
Q 447 1150 447 2328 
Q 447 3434 972 4092 
Q 1497 4750 2381 4750 
Q 2619 4750 2861 4703 
Q 3103 4656 3366 4563 
z
" transform="scale(0.015625)"/>
       </defs>
       <use xlink:href="#DejaVuSans-30"/>
       <use xlink:href="#DejaVuSans-2e" transform="translate(63.623047 0)"/>
       <use xlink:href="#DejaVuSans-36" transform="translate(95.410156 0)"/>
      </g>
     </g>
    </g>
    <g id="text_8">
     <!-- $\theta_1$ -->
     <g transform="translate(255.140909 353.676562) scale(0.1 -0.1)">
      <use xlink:href="#DejaVuSans-Oblique-3b8" transform="translate(0 0.234375)"/>
      <use xlink:href="#DejaVuSans-31" transform="translate(61.181641 -16.171875) scale(0.7)"/>
     </g>
    </g>
   </g>
   <g id="matplotlib.axis_6">
    <g id="ytick_12"/>
    <g id="ytick_13"/>
    <g id="ytick_14"/>
    <g id="ytick_15"/>
    <g id="ytick_16"/>
   </g>
   <g id="patch_8">
    <path d="M 198.593005 320.4 
L 198.593005 204.649084 
L 201.05768 204.649084 
L 201.05768 258.766396 
L 203.522356 258.766396 
L 203.522356 294.844603 
L 205.987032 294.844603 
L 205.987032 308.373931 
L 208.451708 308.373931 
L 208.451708 308.373931 
L 210.916384 308.373931 
L 210.916384 314.386965 
L 213.381059 314.386965 
L 213.381059 317.393483 
L 215.845739 317.393483 
L 215.845739 315.890224 
L 218.310411 315.890224 
L 218.310411 311.380448 
L 220.77509 311.380448 
L 220.77509 314.386965 
L 223.239762 314.386965 
L 223.239762 312.883707 
L 225.704442 312.883707 
L 225.704442 312.883707 
L 228.169118 312.883707 
L 228.169118 305.367414 
L 230.633794 305.367414 
L 230.633794 297.85112 
L 233.098469 297.85112 
L 233.098469 269.289206 
L 235.563145 269.289206 
L 235.563145 273.798982 
L 238.027817 273.798982 
L 238.027817 264.77943 
L 240.492497 264.77943 
L 240.492497 240.727292 
L 242.957176 240.727292 
L 242.957176 222.688188 
L 245.421848 222.688188 
L 245.421848 209.15886 
L 247.88652 209.15886 
L 247.88652 203.145826 
L 250.3512 203.145826 
L 250.3512 206.152343 
L 252.815879 206.152343 
L 252.815879 240.727292 
L 255.280551 240.727292 
L 255.280551 254.25662 
L 257.745231 254.25662 
L 257.745231 273.798982 
L 260.20991 273.798982 
L 260.20991 267.785947 
L 262.674582 267.785947 
L 262.674582 279.812017 
L 265.139254 279.812017 
L 265.139254 291.838086 
L 267.603934 291.838086 
L 267.603934 299.354379 
L 270.068606 299.354379 
L 270.068606 291.838086 
L 272.533286 291.838086 
L 272.533286 300.857638 
L 274.997958 300.857638 
L 274.997958 308.373931 
L 277.462637 308.373931 
L 277.462637 308.373931 
L 279.927317 308.373931 
L 279.927317 309.877189 
L 282.391989 309.877189 
L 282.391989 312.883707 
L 284.856668 312.883707 
L 284.856668 305.367414 
L 287.32134 305.367414 
L 287.32134 314.386965 
L 289.78602 314.386965 
L 289.78602 309.877189 
L 292.250692 309.877189 
L 292.250692 312.883707 
L 294.715371 312.883707 
L 294.715371 311.380448 
L 297.180043 311.380448 
L 297.180043 314.386965 
L 299.644723 314.386965 
L 299.644723 312.883707 
L 302.109395 312.883707 
L 302.109395 312.883707 
L 304.574067 312.883707 
L 304.574067 305.367414 
L 307.038739 305.367414 
L 307.038739 314.386965 
L 309.503426 314.386965 
L 309.503426 315.890224 
L 311.968098 315.890224 
L 311.968098 320.4 
L 314.432785 320.4 
L 314.432785 320.4 
L 316.897457 320.4 
L 316.897457 320.4 
L 319.362129 320.4 
L 319.362129 318.896741 
L 321.826801 318.896741 
L 321.826801 320.4 
" clip-path="url(#p4a6664a218)" style="fill: none; stroke: #1f77b4; stroke-linejoin: miter"/>
   </g>
   <g id="patch_9">
    <path d="M 211.834898 320.4 
L 211.834898 317.393483 
L 214.063784 317.393483 
L 214.063784 315.890224 
L 216.292673 315.890224 
L 216.292673 312.883707 
L 218.521563 312.883707 
L 218.521563 311.380448 
L 220.750448 311.380448 
L 220.750448 302.360896 
L 222.979334 302.360896 
L 222.979334 290.334827 
L 225.208223 290.334827 
L 225.208223 272.295723 
L 227.437113 272.295723 
L 227.437113 275.302241 
L 229.665998 275.302241 
L 229.665998 276.805499 
L 231.894884 276.805499 
L 231.894884 252.753361 
L 234.123773 252.753361 
L 234.123773 270.792465 
L 236.352663 270.792465 
L 236.352663 249.746844 
L 238.581548 249.746844 
L 238.581548 249.746844 
L 240.810434 249.746844 
L 240.810434 240.727292 
L 243.039327 240.727292 
L 243.039327 254.25662 
L 245.268213 254.25662 
L 245.268213 251.250102 
L 247.497098 251.250102 
L 247.497098 260.269654 
L 249.725984 260.269654 
L 249.725984 248.243585 
L 251.954869 248.243585 
L 251.954869 263.276171 
L 254.183763 263.276171 
L 254.183763 260.269654 
L 256.412648 260.269654 
L 256.412648 266.282689 
L 258.641534 266.282689 
L 258.641534 261.772913 
L 260.870427 261.772913 
L 260.870427 278.308758 
L 263.099312 278.308758 
L 263.099312 278.308758 
L 265.328198 278.308758 
L 265.328198 284.321792 
L 267.557084 284.321792 
L 267.557084 276.805499 
L 269.785969 276.805499 
L 269.785969 284.321792 
L 272.014862 284.321792 
L 272.014862 288.831568 
L 274.243748 288.831568 
L 274.243748 296.347862 
L 276.472634 296.347862 
L 276.472634 293.341344 
L 278.701527 293.341344 
L 278.701527 300.857638 
L 280.930412 300.857638 
L 280.930412 303.864155 
L 283.159298 303.864155 
L 283.159298 314.386965 
L 285.388184 314.386965 
L 285.388184 306.870672 
L 287.617069 306.870672 
L 287.617069 311.380448 
L 289.845962 311.380448 
L 289.845962 299.354379 
L 292.074848 299.354379 
L 292.074848 314.386965 
L 294.303734 314.386965 
L 294.303734 302.360896 
L 296.532627 302.360896 
L 296.532627 314.386965 
L 298.761505 314.386965 
L 298.761505 306.870672 
L 300.990398 306.870672 
L 300.990398 312.883707 
L 303.219291 312.883707 
L 303.219291 315.890224 
L 305.448169 315.890224 
L 305.448169 317.393483 
L 307.677062 317.393483 
L 307.677062 320.4 
L 309.90594 320.4 
L 309.90594 314.386965 
L 312.134833 314.386965 
L 312.134833 314.386965 
L 314.363727 314.386965 
L 314.363727 314.386965 
L 316.59262 314.386965 
L 316.59262 314.386965 
L 318.821498 314.386965 
L 318.821498 314.386965 
L 321.050376 314.386965 
L 321.050376 318.896741 
L 323.279269 318.896741 
L 323.279269 320.4 
" clip-path="url(#p4a6664a218)" style="fill: none; stroke: #2ca02c; stroke-linejoin: miter"/>
   </g>
   <g id="line2d_9">
    <path d="M 231.958198 320.4 
L 231.958198 197.283117 
" clip-path="url(#p4a6664a218)" style="fill: none; stroke: #ff0000; stroke-width: 1.5; stroke-linecap: square"/>
   </g>
   <g id="patch_10">
    <path d="M 197.181818 325.4 
L 324 325.4 
" style="fill: none; stroke: #000000; stroke-width: 0.8; stroke-linejoin: miter; stroke-linecap: square"/>
   </g>
  </g>
  <g id="text_9">
   <!-- simulator) -->
   <g transform="translate(139.18125 19.3575) scale(0.16 -0.16)">
    <defs>
     <path id="DejaVuSans-73" d="M 2834 3397 
L 2834 2853 
Q 2591 2978 2328 3040 
Q 2066 3103 1784 3103 
Q 1356 3103 1142 2972 
Q 928 2841 928 2578 
Q 928 2378 1081 2264 
Q 1234 2150 1697 2047 
L 1894 2003 
Q 2506 1872 2764 1633 
Q 3022 1394 3022 966 
Q 3022 478 2636 193 
Q 2250 -91 1575 -91 
Q 1294 -91 989 -36 
Q 684 19 347 128 
L 347 722 
Q 666 556 975 473 
Q 1284 391 1588 391 
Q 1994 391 2212 530 
Q 2431 669 2431 922 
Q 2431 1156 2273 1281 
Q 2116 1406 1581 1522 
L 1381 1569 
Q 847 1681 609 1914 
Q 372 2147 372 2553 
Q 372 3047 722 3315 
Q 1072 3584 1716 3584 
Q 2034 3584 2315 3537 
Q 2597 3491 2834 3397 
z
" transform="scale(0.015625)"/>
     <path id="DejaVuSans-69" d="M 603 3500 
L 1178 3500 
L 1178 0 
L 603 0 
L 603 3500 
z
M 603 4863 
L 1178 4863 
L 1178 4134 
L 603 4134 
L 603 4863 
z
" transform="scale(0.015625)"/>
     <path id="DejaVuSans-6d" d="M 3328 2828 
Q 3544 3216 3844 3400 
Q 4144 3584 4550 3584 
Q 5097 3584 5394 3201 
Q 5691 2819 5691 2113 
L 5691 0 
L 5113 0 
L 5113 2094 
Q 5113 2597 4934 2840 
Q 4756 3084 4391 3084 
Q 3944 3084 3684 2787 
Q 3425 2491 3425 1978 
L 3425 0 
L 2847 0 
L 2847 2094 
Q 2847 2600 2669 2842 
Q 2491 3084 2119 3084 
Q 1678 3084 1418 2786 
Q 1159 2488 1159 1978 
L 1159 0 
L 581 0 
L 581 3500 
L 1159 3500 
L 1159 2956 
Q 1356 3278 1631 3431 
Q 1906 3584 2284 3584 
Q 2666 3584 2933 3390 
Q 3200 3197 3328 2828 
z
" transform="scale(0.015625)"/>
     <path id="DejaVuSans-75" d="M 544 1381 
L 544 3500 
L 1119 3500 
L 1119 1403 
Q 1119 906 1312 657 
Q 1506 409 1894 409 
Q 2359 409 2629 706 
Q 2900 1003 2900 1516 
L 2900 3500 
L 3475 3500 
L 3475 0 
L 2900 0 
L 2900 538 
Q 2691 219 2414 64 
Q 2138 -91 1772 -91 
Q 1169 -91 856 284 
Q 544 659 544 1381 
z
M 1991 3584 
L 1991 3584 
z
" transform="scale(0.015625)"/>
     <path id="DejaVuSans-6c" d="M 603 4863 
L 1178 4863 
L 1178 0 
L 603 0 
L 603 4863 
z
" transform="scale(0.015625)"/>
     <path id="DejaVuSans-61" d="M 2194 1759 
Q 1497 1759 1228 1600 
Q 959 1441 959 1056 
Q 959 750 1161 570 
Q 1363 391 1709 391 
Q 2188 391 2477 730 
Q 2766 1069 2766 1631 
L 2766 1759 
L 2194 1759 
z
M 3341 1997 
L 3341 0 
L 2766 0 
L 2766 531 
Q 2569 213 2275 61 
Q 1981 -91 1556 -91 
Q 1019 -91 701 211 
Q 384 513 384 1019 
Q 384 1609 779 1909 
Q 1175 2209 1959 2209 
L 2766 2209 
L 2766 2266 
Q 2766 2663 2505 2880 
Q 2244 3097 1772 3097 
Q 1472 3097 1187 3025 
Q 903 2953 641 2809 
L 641 3341 
Q 956 3463 1253 3523 
Q 1550 3584 1831 3584 
Q 2591 3584 2966 3190 
Q 3341 2797 3341 1997 
z
" transform="scale(0.015625)"/>
     <path id="DejaVuSans-74" d="M 1172 4494 
L 1172 3500 
L 2356 3500 
L 2356 3053 
L 1172 3053 
L 1172 1153 
Q 1172 725 1289 603 
Q 1406 481 1766 481 
L 2356 481 
L 2356 0 
L 1766 0 
Q 1100 0 847 248 
Q 594 497 594 1153 
L 594 3053 
L 172 3053 
L 172 3500 
L 594 3500 
L 594 4494 
L 1172 4494 
z
" transform="scale(0.015625)"/>
     <path id="DejaVuSans-6f" d="M 1959 3097 
Q 1497 3097 1228 2736 
Q 959 2375 959 1747 
Q 959 1119 1226 758 
Q 1494 397 1959 397 
Q 2419 397 2687 759 
Q 2956 1122 2956 1747 
Q 2956 2369 2687 2733 
Q 2419 3097 1959 3097 
z
M 1959 3584 
Q 2709 3584 3137 3096 
Q 3566 2609 3566 1747 
Q 3566 888 3137 398 
Q 2709 -91 1959 -91 
Q 1206 -91 779 398 
Q 353 888 353 1747 
Q 353 2609 779 3096 
Q 1206 3584 1959 3584 
z
" transform="scale(0.015625)"/>
     <path id="DejaVuSans-72" d="M 2631 2963 
Q 2534 3019 2420 3045 
Q 2306 3072 2169 3072 
Q 1681 3072 1420 2755 
Q 1159 2438 1159 1844 
L 1159 0 
L 581 0 
L 581 3500 
L 1159 3500 
L 1159 2956 
Q 1341 3275 1631 3429 
Q 1922 3584 2338 3584 
Q 2397 3584 2469 3576 
Q 2541 3569 2628 3553 
L 2631 2963 
z
" transform="scale(0.015625)"/>
     <path id="DejaVuSans-29" d="M 513 4856 
L 1013 4856 
Q 1481 4119 1714 3412 
Q 1947 2706 1947 2009 
Q 1947 1309 1714 600 
Q 1481 -109 1013 -844 
L 513 -844 
Q 928 -128 1133 580 
Q 1338 1288 1338 2009 
Q 1338 2731 1133 3434 
Q 928 4138 513 4856 
z
" transform="scale(0.015625)"/>
    </defs>
    <use xlink:href="#DejaVuSans-73"/>
    <use xlink:href="#DejaVuSans-69" transform="translate(52.099609 0)"/>
    <use xlink:href="#DejaVuSans-6d" transform="translate(79.882812 0)"/>
    <use xlink:href="#DejaVuSans-75" transform="translate(177.294922 0)"/>
    <use xlink:href="#DejaVuSans-6c" transform="translate(240.673828 0)"/>
    <use xlink:href="#DejaVuSans-61" transform="translate(268.457031 0)"/>
    <use xlink:href="#DejaVuSans-74" transform="translate(329.736328 0)"/>
    <use xlink:href="#DejaVuSans-6f" transform="translate(368.945312 0)"/>
    <use xlink:href="#DejaVuSans-72" transform="translate(430.126953 0)"/>
    <use xlink:href="#DejaVuSans-29" transform="translate(471.240234 0)"/>
   </g>
  </g>
 </g>
 <defs>
  <clipPath id="pfced21b844">
   <rect x="45" y="36" width="126.818182" height="129.272727"/>
  </clipPath>
  <clipPath id="p57dbb8d862">
   <rect x="197.181818" y="36" width="126.818182" height="129.272727"/>
  </clipPath>
  <clipPath id="p4a6664a218">
   <rect x="197.181818" y="191.127273" width="126.818182" height="129.272727"/>
  </clipPath>
 </defs>
</svg>
