<?xml version="1.0" encoding="utf-8" standalone="no"?>
<!DOCTYPE svg PUBLIC "-//W3C//DTD SVG 1.1//EN"
  "http://www.w3.org/Graphics/SVG/1.1/DTD/svg11.dtd">
<svg xmlns:xlink="http://www.w3.org/1999/xlink" width="360pt" height="360pt" viewBox="0 0 360 360" xmlns="http://www.w3.org/2000/svg" version="1.1">
 <metadata>
  <rdf:RDF xmlns:dc="http://purl.org/dc/elements/1.1/" xmlns:cc="http://creativecommons.org/ns#" xmlns:rdf="http://www.w3.org/1999/02/22-rdf-syntax-ns#">
   <cc:Work>
    <dc:type rdf:resource="http://purl.org/dc/dcmitype/StillImage"/>
    <dc:date>2026-02-19T15:56:53.736464</dc:date>
    <dc:format>image/svg+xml</dc:format>
    <dc:creator>
     <cc:Agent>
      <dc:title>Matplotlib v3.10.8, https://matplotlib.org/</dc:title>
     </cc:Agent>
    </dc:creator>
   </cc:Work>
  </rdf:RDF>
 </metadata>
 <defs>
  <style type="text/css">*{stroke-linejoin: round; stroke-linecap: butt}</style>
 </defs>
 <g id="figure_1">
  <g id="patch_1">
   <path d="M 0 360 
L 360 360 
L 360 0 
L 0 0 
z
" style="fill: #ffffff"/>
  </g>
  <g id="axes_1">
   <g id="patch_2">
    <path d="M 45 165.272727 
L 171.818182 165.272727 
L 171.818182 36 
L 45 36 
z
" style="fill: #ffffff"/>
   </g>
   <g id="matplotlib.axis_1">
    <g id="xtick_1">
     <g id="line2d_1">
      <defs>
       <path id="m1f3bbfd205" d="M 0 0 
L 0 3.5 
" style="stroke: #000000; stroke-width: 0.8"/>
      </defs>
      <g>
       <use xlink:href="#m1f3bbfd205" x="84.357367" y="170.272727" style="stroke: #000000; stroke-width: 0.8"/>
      </g>
     </g>
     <g id="text_1">
      <!-- 1 -->
      <g transform="translate(81.176117 184.871165) scale(0.1 -0.1)">
       <defs>
        <path id="DejaVuSans-31" d="M 794 531 
L 1825 531 
L 1825 4091 
L 703 3866 
L 703 4441 
L 1819 4666 
L 2450 4666 
L 2450 531 
L 3481 531 
L 3481 0 
L 794 0 
L 794 531 
z
" transform="scale(0.015625)"/>
       </defs>
       <use xlink:href="#DejaVuSans-31"/>
      </g>
     </g>
    </g>
    <g id="xtick_2">
     <g id="line2d_2">
      <g>
       <use xlink:href="#m1f3bbfd205" x="128.087774" y="170.272727" style="stroke: #000000; stroke-width: 0.8"/>
      </g>
     </g>
     <g id="text_2">
      <!-- 2 -->
      <g transform="translate(124.906524 184.871165) scale(0.1 -0.1)">
       <defs>
        <path id="DejaVuSans-32" d="M 1228 531 
L 3431 531 
L 3431 0 
L 469 0 
L 469 531 
Q 828 903 1448 1529 
Q 2069 2156 2228 2338 
Q 2531 2678 2651 2914 
Q 2772 3150 2772 3378 
Q 2772 3750 2511 3984 
Q 2250 4219 1831 4219 
Q 1534 4219 1204 4116 
Q 875 4013 500 3803 
L 500 4441 
Q 881 4594 1212 4672 
Q 1544 4750 1819 4750 
Q 2544 4750 2975 4387 
Q 3406 4025 3406 3419 
Q 3406 3131 3298 2873 
Q 3191 2616 2906 2266 
Q 2828 2175 2409 1742 
Q 1991 1309 1228 531 
z
" transform="scale(0.015625)"/>
       </defs>
       <use xlink:href="#DejaVuSans-32"/>
      </g>
     </g>
    </g>
    <g id="xtick_3">
     <g id="line2d_3">
      <g>
       <use xlink:href="#m1f3bbfd205" x="171.818182" y="170.272727" style="stroke: #000000; stroke-width: 0.8"/>
      </g>
     </g>
     <g id="text_3">
      <!-- 3 -->
      <g transform="translate(168.636932 184.871165) scale(0.1 -0.1)">
       <defs>
        <path id="DejaVuSans-33" d="M 2597 2516 
Q 3050 2419 3304 2112 
Q 3559 1806 3559 1356 
Q 3559 666 3084 287 
Q 2609 -91 1734 -91 
Q 1441 -91 1130 -33 
Q 819 25 488 141 
L 488 750 
Q 750 597 1062 519 
Q 1375 441 1716 441 
Q 2309 441 2620 675 
Q 2931 909 2931 1356 
Q 2931 1769 2642 2001 
Q 2353 2234 1838 2234 
L 1294 2234 
L 1294 2753 
L 1863 2753 
Q 2328 2753 2575 2939 
Q 2822 3125 2822 3475 
Q 2822 3834 2567 4026 
Q 2313 4219 1838 4219 
Q 1578 4219 1281 4162 
Q 984 4106 628 3988 
L 628 4550 
Q 988 4650 1302 4700 
Q 1616 4750 1894 4750 
Q 2613 4750 3031 4423 
Q 3450 4097 3450 3541 
Q 3450 3153 3228 2886 
Q 3006 2619 2597 2516 
z
" transform="scale(0.015625)"/>
       </defs>
       <use xlink:href="#DejaVuSans-33"/>
      </g>
     </g>
    </g>
    <g id="text_4">
     <!-- $\theta_0$ -->
     <g transform="translate(102.959091 198.54929) scale(0.1 -0.1)">
      <defs>
       <path id="DejaVuSans-Oblique-3b8" d="M 2913 2219 
L 925 2219 
Q 791 1284 928 888 
Q 1100 400 1566 400 
Q 2034 400 2391 891 
Q 2703 1322 2913 2219 
z
M 3009 2750 
Q 3094 3638 2984 3950 
Q 2813 4444 2353 4444 
Q 1875 4444 1525 3956 
Q 1250 3563 1034 2750 
L 3009 2750 
z
M 2444 4913 
Q 3194 4913 3494 4250 
Q 3794 3591 3566 2422 
Q 3341 1256 2781 594 
Q 2225 -72 1475 -72 
Q 722 -72 425 594 
Q 128 1256 353 2422 
Q 581 3591 1134 4250 
Q 1691 4913 2444 4913 
z
" transform="scale(0.015625)"/>
       <path id="DejaVuSans-30" d="M 2034 4250 
Q 1547 4250 1301 3770 
Q 1056 3291 1056 2328 
Q 1056 1369 1301 889 
Q 1547 409 2034 409 
Q 2525 409 2770 889 
Q 3016 1369 3016 2328 
Q 3016 3291 2770 3770 
Q 2525 4250 2034 4250 
z
M 2034 4750 
Q 2819 4750 3233 4129 
Q 3647 3509 3647 2328 
Q 3647 1150 3233 529 
Q 2819 -91 2034 -91 
Q 1250 -91 836 529 
Q 422 1150 422 2328 
Q 422 3509 836 4129 
Q 1250 4750 2034 4750 
z
" transform="scale(0.015625)"/>
      </defs>
      <use xlink:href="#DejaVuSans-Oblique-3b8" transform="translate(0 0.234375)"/>
      <use xlink:href="#DejaVuSans-30" transform="translate(61.181641 -16.171875) scale(0.7)"/>
     </g>
    </g>
   </g>
   <g id="matplotlib.axis_2">
    <g id="ytick_1"/>
    <g id="ytick_2"/>
    <g id="ytick_3"/>
    <g id="ytick_4"/>
    <g id="ytick_5"/>
    <g id="ytick_6"/>
   </g>
   <g id="patch_3">
    <path d="M 78.988855 165.272727 
L 78.988855 164.370772 
L 80.816274 164.370772 
L 80.816274 165.272727 
L 82.643692 165.272727 
L 82.643692 164.370772 
L 84.471111 164.370772 
L 84.471111 165.272727 
L 86.298527 165.272727 
L 86.298527 165.272727 
L 88.125948 165.272727 
L 88.125948 165.272727 
L 89.953364 165.272727 
L 89.953364 165.272727 
L 91.78078 165.272727 
L 91.78078 165.272727 
L 93.608201 165.272727 
L 93.608201 165.272727 
L 95.435622 165.272727 
L 95.435622 165.272727 
L 97.263038 165.272727 
L 97.263038 165.272727 
L 99.090454 165.272727 
L 99.090454 165.272727 
L 100.917875 165.272727 
L 100.917875 165.272727 
L 102.745291 165.272727 
L 102.745291 165.272727 
L 104.572707 165.272727 
L 104.572707 165.272727 
L 106.400128 165.272727 
L 106.400128 164.370772 
L 108.227549 164.370772 
L 108.227549 164.370772 
L 110.054965 164.370772 
L 110.054965 164.370772 
L 111.882381 164.370772 
L 111.882381 165.272727 
L 113.709802 165.272727 
L 113.709802 163.468817 
L 115.537223 163.468817 
L 115.537223 165.272727 
L 117.364634 165.272727 
L 117.364634 164.370772 
L 119.192055 164.370772 
L 119.192055 165.272727 
L 121.019476 165.272727 
L 121.019476 164.370772 
L 122.846887 164.370772 
L 122.846887 164.370772 
L 124.674308 164.370772 
L 124.674308 163.468817 
L 126.501729 163.468817 
L 126.501729 162.566862 
L 128.32915 162.566862 
L 128.32915 163.468817 
L 130.156561 163.468817 
L 130.156561 160.762951 
L 131.983982 160.762951 
L 131.983982 162.566862 
L 133.811403 162.566862 
L 133.811403 158.959041 
L 135.638824 158.959041 
L 135.638824 161.664907 
L 137.466235 161.664907 
L 137.466235 159.860996 
L 139.293656 159.860996 
L 139.293656 154.449265 
L 141.121077 154.449265 
L 141.121077 147.233624 
L 142.948488 147.233624 
L 142.948488 139.116027 
L 144.775909 139.116027 
L 144.775909 110.253461 
L 146.60333 110.253461 
L 146.60333 68.763522 
L 148.430751 68.763522 
L 148.430751 57.94006 
L 150.258162 57.94006 
L 150.258162 48.018553 
L 152.085583 48.018553 
L 152.085583 82.29285 
L 153.913004 82.29285 
L 153.913004 100.331954 
L 155.740415 100.331954 
L 155.740415 113.861282 
L 157.567836 113.861282 
L 157.567836 127.390609 
L 159.395257 127.390609 
L 159.395257 121.978878 
L 161.222678 121.978878 
L 161.222678 130.99843 
L 163.050089 130.99843 
L 163.050089 138.214072 
L 164.87751 138.214072 
L 164.87751 136.410161 
L 166.70492 136.410161 
L 166.70492 131.900385 
L 168.532342 131.900385 
L 168.532342 136.410161 
L 170.359763 136.410161 
L 170.359763 165.272727 
" clip-path="url(#pf9822cb68d)" style="fill: none; stroke: #1f77b4; stroke-linejoin: miter"/>
   </g>
   <g id="patch_4">
    <path d="M 117.781825 165.272727 
L 117.781825 163.468817 
L 118.85859 163.468817 
L 118.85859 165.272727 
L 119.935355 165.272727 
L 119.935355 164.370772 
L 121.01212 164.370772 
L 121.01212 165.272727 
L 122.088885 165.272727 
L 122.088885 164.370772 
L 123.16565 164.370772 
L 123.16565 165.272727 
L 124.242415 165.272727 
L 124.242415 164.370772 
L 125.31918 164.370772 
L 125.31918 165.272727 
L 126.395945 165.272727 
L 126.395945 165.272727 
L 127.47271 165.272727 
L 127.47271 165.272727 
L 128.549475 165.272727 
L 128.549475 161.664907 
L 129.626235 161.664907 
L 129.626235 163.468817 
L 130.703005 163.468817 
L 130.703005 164.370772 
L 131.779775 164.370772 
L 131.779775 161.664907 
L 132.856535 161.664907 
L 132.856535 164.370772 
L 133.933295 164.370772 
L 133.933295 165.272727 
L 135.010065 165.272727 
L 135.010065 158.057086 
L 136.086835 158.057086 
L 136.086835 161.664907 
L 137.163595 161.664907 
L 137.163595 160.762951 
L 138.240355 160.762951 
L 138.240355 160.762951 
L 139.317125 160.762951 
L 139.317125 159.860996 
L 140.393895 159.860996 
L 140.393895 157.155131 
L 141.470655 157.155131 
L 141.470655 156.253175 
L 142.547415 156.253175 
L 142.547415 154.449265 
L 143.624185 154.449265 
L 143.624185 149.037534 
L 144.700955 149.037534 
L 144.700955 149.939489 
L 145.777715 149.939489 
L 145.777715 134.606251 
L 146.854475 134.606251 
L 146.854475 144.527758 
L 147.931245 144.527758 
L 147.931245 132.802341 
L 149.008015 132.802341 
L 149.008015 130.99843 
L 150.084775 130.99843 
L 150.084775 128.292565 
L 151.161535 128.292565 
L 151.161535 121.076923 
L 152.238305 121.076923 
L 152.238305 128.292565 
L 153.315075 128.292565 
L 153.315075 122.880833 
L 154.391835 122.880833 
L 154.391835 129.19452 
L 155.468595 129.19452 
L 155.468595 112.959326 
L 156.545365 112.959326 
L 156.545365 119.273013 
L 157.622135 119.273013 
L 157.622135 111.155416 
L 158.698895 111.155416 
L 158.698895 125.586699 
L 159.775655 125.586699 
L 159.775655 120.174968 
L 160.852425 120.174968 
L 160.852425 122.880833 
L 161.929195 122.880833 
L 161.929195 141.821892 
L 163.005955 141.821892 
L 163.005955 130.096475 
L 164.082715 130.096475 
L 164.082715 133.704296 
L 165.159485 133.704296 
L 165.159485 137.312116 
L 166.236255 137.312116 
L 166.236255 139.116027 
L 167.313015 139.116027 
L 167.313015 148.135579 
L 168.389775 148.135579 
L 168.389775 149.939489 
L 169.466545 149.939489 
L 169.466545 152.645355 
L 170.543315 152.645355 
L 170.543315 147.233624 
L 171.620075 147.233624 
L 171.620075 165.272727 
" clip-path="url(#pf9822cb68d)" style="fill: none; stroke: #2ca02c; stroke-linejoin: miter"/>
   </g>
   <g id="line2d_4">
    <path d="M 157.077984 165.272727 
L 157.077984 42.155844 
" clip-path="url(#pf9822cb68d)" style="fill: none; stroke: #ff0000; stroke-width: 1.5; stroke-linecap: square"/>
   </g>
   <g id="patch_5">
    <path d="M 45 170.272727 
L 171.818182 170.272727 
" style="fill: none; stroke: #000000; stroke-width: 0.8; stroke-linejoin: miter; stroke-linecap: square"/>
   </g>
  </g>
  <g id="axes_2">
   <g id="patch_6">
    <path d="M 197.181818 165.272727 
L 324 165.272727 
L 324 36 
L 197.181818 36 
z
" style="fill: #ffffff"/>
   </g>
   <g id="matplotlib.axis_3">
    <g id="xtick_4"/>
    <g id="xtick_5"/>
    <g id="xtick_6"/>
   </g>
   <g id="matplotlib.axis_4">
    <g id="ytick_7"/>
    <g id="ytick_8"/>
    <g id="ytick_9"/>
    <g id="ytick_10"/>
    <g id="ytick_11"/>
    <g id="ytick_12"/>
   </g>
   <g id="QuadContourSet_1">
    <path d="M 197.181818 54.46753 
L 199.769945 54.46753 
L 202.35807 51.829315 
L 202.35807 51.829315 
L 204.946198 51.829315 
L 204.946198 51.829315 
L 207.534323 54.46753 
L 210.122448 54.46753 
L 212.710573 54.46753 
L 212.710573 54.46753 
L 215.298698 57.105756 
L 217.886826 57.105756 
L 220.474955 57.105756 
L 223.06308 57.105756 
L 225.651204 54.46753 
L 225.651204 54.46753 
L 228.239329 54.46753 
L 230.827454 51.829315 
L 230.827454 51.829315 
L 233.415579 51.829315 
L 236.003711 49.191099 
L 236.003711 49.191099 
L 238.591836 49.191099 
L 241.179961 46.552873 
L 241.179961 46.552873 
L 243.768086 43.914657 
L 243.768086 43.914657 
L 246.35621 43.914657 
L 248.944335 41.276442 
L 248.944335 41.276442 
L 251.532468 41.276442 
L 254.120592 41.276442 
L 256.708717 41.276442 
L 259.296842 41.276442 
L 261.884967 38.638216 
L 261.884967 38.638216 
L 261.884967 38.638216 
L 264.473092 41.276442 
L 267.061216 41.276442 
L 269.649341 41.276442 
L 269.649341 41.276442 
L 269.649341 43.914657 
L 269.649341 43.914657 
L 267.061216 46.552873 
L 267.061216 49.191099 
L 269.649341 51.829315 
L 269.649341 51.829315 
L 272.237474 54.46753 
L 272.237474 54.46753 
L 272.237474 57.105756 
L 272.237474 57.105756 
L 269.649341 59.743972 
L 269.649341 59.743972 
L 267.061216 59.743972 
L 264.473092 62.382187 
L 264.473092 62.382187 
L 261.884967 62.382187 
L 259.296842 62.382187 
L 256.708717 65.020413 
L 256.708717 65.020413 
L 254.120592 65.020413 
L 251.532468 65.020413 
L 248.944335 65.020413 
L 246.35621 65.020413 
L 243.768086 65.020413 
L 241.179961 65.020413 
L 238.591836 65.020413 
L 236.003711 65.020413 
L 233.415579 65.020413 
L 230.827454 65.020413 
L 230.827454 65.020413 
L 228.239329 62.382187 
L 225.651204 62.382187 
L 225.651204 62.382187 
L 223.06308 59.743972 
L 223.06308 59.743972 
L 220.474955 57.105756 
L 217.886826 57.105756 
L 215.298698 59.743972 
L 215.298698 59.743972 
L 212.710573 59.743972 
L 210.122448 59.743972 
L 207.534323 62.382187 
L 207.534323 62.382187 
L 204.946198 62.382187 
L 202.35807 62.382187 
L 199.769945 62.382187 
L 197.181818 62.382187 
" clip-path="url(#p9987a3a47d)" style="fill: none; stroke: #1f77b4; stroke-width: 1.5"/>
   </g>
   <g id="QuadContourSet_2">
    <path d="M 251.532468 65.020413 
L 251.532468 65.020413 
L 248.944335 62.382187 
L 246.35621 62.382187 
L 243.768086 62.382187 
L 241.179961 62.382187 
L 238.591836 62.382187 
L 236.003711 62.382187 
L 233.415579 62.382187 
L 233.415579 62.382187 
L 230.827454 59.743972 
L 228.239329 59.743972 
L 225.651204 59.743972 
L 225.651204 59.743972 
L 223.06308 57.105756 
L 223.06308 57.105756 
L 220.474955 54.46753 
L 220.474955 54.46753 
L 217.886826 51.829315 
L 217.886826 51.829315 
L 217.886826 51.829315 
L 220.474955 49.191099 
L 220.474955 46.552873 
L 220.474955 46.552873 
L 223.06308 46.552873 
L 225.651204 43.914657 
L 225.651204 43.914657 
L 228.239329 41.276442 
L 228.239329 41.276442 
L 230.827454 41.276442 
L 233.415579 41.276442 
L 236.003711 38.638216 
L 236.003711 38.638216 
L 238.591836 38.638216 
L 241.179961 38.638216 
L 243.768086 38.638216 
L 246.35621 38.638216 
L 248.944335 38.638216 
L 251.532468 38.638216 
L 251.532468 38.638216 
L 254.120592 41.276442 
L 256.708717 41.276442 
L 259.296842 41.276442 
L 261.884967 41.276442 
L 264.473092 41.276442 
L 264.473092 41.276442 
L 267.061216 43.914657 
L 267.061216 43.914657 
L 269.649341 46.552873 
L 272.237474 46.552873 
L 272.237474 46.552873 
L 274.825598 49.191099 
L 274.825598 49.191099 
L 277.413723 51.829315 
L 277.413723 51.829315 
L 277.413723 51.829315 
L 274.825598 54.46753 
L 274.825598 54.46753 
L 272.237474 57.105756 
L 272.237474 57.105756 
L 269.649341 59.743972 
L 269.649341 59.743972 
L 267.061216 62.382187 
L 267.061216 62.382187 
L 264.473092 62.382187 
L 261.884967 62.382187 
L 259.296842 62.382187 
L 256.708717 62.382187 
L 254.120592 65.020413 
L 254.120592 65.020413 
L 251.532468 65.020413 
z
" clip-path="url(#p9987a3a47d)" style="fill: none; stroke: #2ca02c; stroke-width: 1.5"/>
   </g>
   <g id="line2d_5">
    <path d="M 231.958198 51.025492 
" clip-path="url(#p9987a3a47d)" style="fill: none; stroke: #ff0000; stroke-width: 1.5; stroke-linecap: square"/>
    <defs>
     <path id="m0baf17a1ad" d="M 0 1.5 
C 0.397805 1.5 0.77937 1.341951 1.06066 1.06066 
C 1.341951 0.77937 1.5 0.397805 1.5 0 
C 1.5 -0.397805 1.341951 -0.77937 1.06066 -1.06066 
C 0.77937 -1.341951 0.397805 -1.5 0 -1.5 
C -0.397805 -1.5 -0.77937 -1.341951 -1.06066 -1.06066 
C -1.341951 -0.77937 -1.5 -0.397805 -1.5 0 
C -1.5 0.397805 -1.341951 0.77937 -1.06066 1.06066 
C -0.77937 1.341951 -0.397805 1.5 0 1.5 
z
" style="stroke: #ff0000"/>
    </defs>
    <g clip-path="url(#p9987a3a47d)">
     <use xlink:href="#m0baf17a1ad" x="231.958198" y="51.025492" style="fill: #ff0000; stroke: #ff0000"/>
    </g>
   </g>
  </g>
  <g id="axes_3"/>
  <g id="axes_4">
   <g id="patch_7">
    <path d="M 197.181818 320.4 
L 324 320.4 
L 324 191.127273 
L 197.181818 191.127273 
z
" style="fill: #ffffff"/>
   </g>
   <g id="matplotlib.axis_5">
    <g id="xtick_7">
     <g id="line2d_6">
      <g>
       <use xlink:href="#m1f3bbfd205" x="222.545453" y="325.4" style="stroke: #000000; stroke-width: 0.8"/>
      </g>
     </g>
     <g id="text_5">
      <!-- 0.2 -->
      <g transform="translate(214.593891 339.998438) scale(0.1 -0.1)">
       <defs>
        <path id="DejaVuSans-2e" d="M 684 794 
L 1344 794 
L 1344 0 
L 684 0 
L 684 794 
z
" transform="scale(0.015625)"/>
       </defs>
       <use xlink:href="#DejaVuSans-30"/>
       <use xlink:href="#DejaVuSans-2e" transform="translate(63.623047 0)"/>
       <use xlink:href="#DejaVuSans-32" transform="translate(95.410156 0)"/>
      </g>
     </g>
    </g>
    <g id="xtick_8">
     <g id="line2d_7">
      <g>
       <use xlink:href="#m1f3bbfd205" x="273.272723" y="325.4" style="stroke: #000000; stroke-width: 0.8"/>
      </g>
     </g>
     <g id="text_6">
      <!-- 0.4 -->
      <g transform="translate(265.321161 339.998438) scale(0.1 -0.1)">
       <defs>
        <path id="DejaVuSans-34" d="M 2419 4116 
L 825 1625 
L 2419 1625 
L 2419 4116 
z
M 2253 4666 
L 3047 4666 
L 3047 1625 
L 3713 1625 
L 3713 1100 
L 3047 1100 
L 3047 0 
L 2419 0 
L 2419 1100 
L 313 1100 
L 313 1709 
L 2253 4666 
z
" transform="scale(0.015625)"/>
       </defs>
       <use xlink:href="#DejaVuSans-30"/>
       <use xlink:href="#DejaVuSans-2e" transform="translate(63.623047 0)"/>
       <use xlink:href="#DejaVuSans-34" transform="translate(95.410156 0)"/>
      </g>
     </g>
    </g>
    <g id="xtick_9">
     <g id="line2d_8">
      <g>
       <use xlink:href="#m1f3bbfd205" x="323.999994" y="325.4" style="stroke: #000000; stroke-width: 0.8"/>
      </g>
     </g>
     <g id="text_7">
      <!-- 0.6 -->
      <g transform="translate(316.048431 339.998438) scale(0.1 -0.1)">
       <defs>
        <path id="DejaVuSans-36" d="M 2113 2584 
Q 1688 2584 1439 2293 
Q 1191 2003 1191 1497 
Q 1191 994 1439 701 
Q 1688 409 2113 409 
Q 2538 409 2786 701 
Q 3034 994 3034 1497 
Q 3034 2003 2786 2293 
Q 2538 2584 2113 2584 
z
M 3366 4563 
L 3366 3988 
Q 3128 4100 2886 4159 
Q 2644 4219 2406 4219 
Q 1781 4219 1451 3797 
Q 1122 3375 1075 2522 
Q 1259 2794 1537 2939 
Q 1816 3084 2150 3084 
Q 2853 3084 3261 2657 
Q 3669 2231 3669 1497 
Q 3669 778 3244 343 
Q 2819 -91 2113 -91 
Q 1303 -91 875 529 
Q 447 1150 447 2328 
Q 447 3434 972 4092 
Q 1497 4750 2381 4750 
Q 2619 4750 2861 4703 
Q 3103 4656 3366 4563 
z
" transform="scale(0.015625)"/>
       </defs>
       <use xlink:href="#DejaVuSans-30"/>
       <use xlink:href="#DejaVuSans-2e" transform="translate(63.623047 0)"/>
       <use xlink:href="#DejaVuSans-36" transform="translate(95.410156 0)"/>
      </g>
     </g>
    </g>
    <g id="text_8">
     <!-- $\theta_1$ -->
     <g transform="translate(255.140909 353.676562) scale(0.1 -0.1)">
      <use xlink:href="#DejaVuSans-Oblique-3b8" transform="translate(0 0.234375)"/>
      <use xlink:href="#DejaVuSans-31" transform="translate(61.181641 -16.171875) scale(0.7)"/>
     </g>
    </g>
   </g>
   <g id="matplotlib.axis_6">
    <g id="ytick_13"/>
    <g id="ytick_14"/>
    <g id="ytick_15"/>
    <g id="ytick_16"/>
    <g id="ytick_17"/>
    <g id="ytick_18"/>
   </g>
   <g id="patch_8">
    <path d="M 198.544448 320.4 
L 198.544448 203.145826 
L 201.022044 203.145826 
L 201.022044 282.164943 
L 203.49964 282.164943 
L 203.49964 294.909962 
L 205.977236 294.909962 
L 205.977236 307.654981 
L 208.45483 307.654981 
L 208.45483 310.203985 
L 210.932427 310.203985 
L 210.932427 315.301992 
L 213.410021 315.301992 
L 213.410021 314.027491 
L 215.887615 314.027491 
L 215.887615 314.027491 
L 218.365213 314.027491 
L 218.365213 314.027491 
L 220.842811 314.027491 
L 220.842811 314.027491 
L 223.320405 314.027491 
L 223.320405 307.654981 
L 225.797999 307.654981 
L 225.797999 312.752989 
L 228.275597 312.752989 
L 228.275597 306.380479 
L 230.753195 306.380479 
L 230.753195 303.831475 
L 233.230785 303.831475 
L 233.230785 278.341437 
L 235.708383 278.341437 
L 235.708383 279.615939 
L 238.185981 279.615939 
L 238.185981 270.694426 
L 240.663571 270.694426 
L 240.663571 255.400403 
L 243.141169 255.400403 
L 243.141169 229.910365 
L 245.618767 229.910365 
L 245.618767 235.008373 
L 248.096364 235.008373 
L 248.096364 242.655384 
L 250.573955 242.655384 
L 250.573955 227.361362 
L 253.051552 227.361362 
L 253.051552 241.380882 
L 255.52915 241.380882 
L 255.52915 275.792434 
L 258.00674 275.792434 
L 258.00674 274.517932 
L 260.484338 274.517932 
L 260.484338 274.517932 
L 262.961936 274.517932 
L 262.961936 278.341437 
L 265.439526 278.341437 
L 265.439526 294.909962 
L 267.917124 294.909962 
L 267.917124 306.380479 
L 270.394722 306.380479 
L 270.394722 302.556973 
L 272.87232 302.556973 
L 272.87232 306.380479 
L 275.34991 306.380479 
L 275.34991 311.478487 
L 277.827508 311.478487 
L 277.827508 307.654981 
L 280.305106 307.654981 
L 280.305106 308.929483 
L 282.782696 308.929483 
L 282.782696 312.752989 
L 285.260294 312.752989 
L 285.260294 312.752989 
L 287.737891 312.752989 
L 287.737891 317.850996 
L 290.215489 317.850996 
L 290.215489 316.576494 
L 292.69308 316.576494 
L 292.69308 308.929483 
L 295.170677 308.929483 
L 295.170677 314.027491 
L 297.648275 314.027491 
L 297.648275 315.301992 
L 300.125865 315.301992 
L 300.125865 314.027491 
L 302.603463 314.027491 
L 302.603463 310.203985 
L 305.081061 310.203985 
L 305.081061 310.203985 
L 307.558659 310.203985 
L 307.558659 319.125498 
L 310.036257 319.125498 
L 310.036257 317.850996 
L 312.513854 317.850996 
L 312.513854 317.850996 
L 314.991452 317.850996 
L 314.991452 319.125498 
L 317.469035 319.125498 
L 317.469035 319.125498 
L 319.946633 319.125498 
L 319.946633 317.850996 
L 322.424231 317.850996 
L 322.424231 320.4 
" clip-path="url(#pe192e06797)" style="fill: none; stroke: #1f77b4; stroke-linejoin: miter"/>
   </g>
   <g id="patch_9">
    <path d="M 210.723422 320.4 
L 210.723422 316.576494 
L 212.988285 316.576494 
L 212.988285 316.576494 
L 215.253147 316.576494 
L 215.253147 314.027491 
L 217.51801 314.027491 
L 217.51801 312.752989 
L 219.782872 312.752989 
L 219.782872 302.556973 
L 222.047735 302.556973 
L 222.047735 302.556973 
L 224.312597 302.556973 
L 224.312597 280.890441 
L 226.577456 280.890441 
L 226.577456 278.341437 
L 228.842322 278.341437 
L 228.842322 283.439445 
L 231.107181 283.439445 
L 231.107181 282.164943 
L 233.372047 282.164943 
L 233.372047 260.498411 
L 235.636905 260.498411 
L 235.636905 257.949407 
L 237.901764 257.949407 
L 237.901764 261.772913 
L 240.16663 261.772913 
L 240.16663 270.694426 
L 242.431496 270.694426 
L 242.431496 259.223909 
L 244.696355 259.223909 
L 244.696355 236.282875 
L 246.961214 236.282875 
L 246.961214 259.223909 
L 249.22608 259.223909 
L 249.22608 269.419924 
L 251.490946 269.419924 
L 251.490946 269.419924 
L 253.755805 269.419924 
L 253.755805 259.223909 
L 256.020664 259.223909 
L 256.020664 296.184464 
L 258.28553 296.184464 
L 258.28553 278.341437 
L 260.550396 278.341437 
L 260.550396 282.164943 
L 262.815255 282.164943 
L 262.815255 277.066936 
L 265.080113 277.066936 
L 265.080113 285.988449 
L 267.344972 285.988449 
L 267.344972 291.086456 
L 269.609838 291.086456 
L 269.609838 297.458966 
L 271.874704 297.458966 
L 271.874704 298.733468 
L 274.139563 298.733468 
L 274.139563 298.733468 
L 276.404429 298.733468 
L 276.404429 307.654981 
L 278.669288 307.654981 
L 278.669288 308.929483 
L 280.934154 308.929483 
L 280.934154 294.909962 
L 283.199013 294.909962 
L 283.199013 301.282472 
L 285.463871 301.282472 
L 285.463871 306.380479 
L 287.728738 306.380479 
L 287.728738 311.478487 
L 289.993596 311.478487 
L 289.993596 315.301992 
L 292.258462 315.301992 
L 292.258462 312.752989 
L 294.523321 312.752989 
L 294.523321 312.752989 
L 296.788187 312.752989 
L 296.788187 308.929483 
L 299.053038 308.929483 
L 299.053038 311.478487 
L 301.317912 311.478487 
L 301.317912 312.752989 
L 303.582771 312.752989 
L 303.582771 314.027491 
L 305.847629 314.027491 
L 305.847629 312.752989 
L 308.112503 312.752989 
L 308.112503 315.301992 
L 310.377362 315.301992 
L 310.377362 312.752989 
L 312.642221 312.752989 
L 312.642221 315.301992 
L 314.907094 315.301992 
L 314.907094 319.125498 
L 317.171938 319.125498 
L 317.171938 317.850996 
L 319.436812 317.850996 
L 319.436812 317.850996 
L 321.70167 317.850996 
L 321.70167 316.576494 
L 323.966529 316.576494 
L 323.966529 320.4 
" clip-path="url(#pe192e06797)" style="fill: none; stroke: #2ca02c; stroke-linejoin: miter"/>
   </g>
   <g id="line2d_9">
    <path d="M 231.958198 320.4 
L 231.958198 197.283117 
" clip-path="url(#pe192e06797)" style="fill: none; stroke: #ff0000; stroke-width: 1.5; stroke-linecap: square"/>
   </g>
   <g id="patch_10">
    <path d="M 197.181818 325.4 
L 324 325.4 
" style="fill: none; stroke: #000000; stroke-width: 0.8; stroke-linejoin: miter; stroke-linecap: square"/>
   </g>
  </g>
  <g id="text_9">
   <!-- simulator) -->
   <g transform="translate(139.18125 19.3575) scale(0.16 -0.16)">
    <defs>
     <path id="DejaVuSans-73" d="M 2834 3397 
L 2834 2853 
Q 2591 2978 2328 3040 
Q 2066 3103 1784 3103 
Q 1356 3103 1142 2972 
Q 928 2841 928 2578 
Q 928 2378 1081 2264 
Q 1234 2150 1697 2047 
L 1894 2003 
Q 2506 1872 2764 1633 
Q 3022 1394 3022 966 
Q 3022 478 2636 193 
Q 2250 -91 1575 -91 
Q 1294 -91 989 -36 
Q 684 19 347 128 
L 347 722 
Q 666 556 975 473 
Q 1284 391 1588 391 
Q 1994 391 2212 530 
Q 2431 669 2431 922 
Q 2431 1156 2273 1281 
Q 2116 1406 1581 1522 
L 1381 1569 
Q 847 1681 609 1914 
Q 372 2147 372 2553 
Q 372 3047 722 3315 
Q 1072 3584 1716 3584 
Q 2034 3584 2315 3537 
Q 2597 3491 2834 3397 
z
" transform="scale(0.015625)"/>
     <path id="DejaVuSans-69" d="M 603 3500 
L 1178 3500 
L 1178 0 
L 603 0 
L 603 3500 
z
M 603 4863 
L 1178 4863 
L 1178 4134 
L 603 4134 
L 603 4863 
z
" transform="scale(0.015625)"/>
     <path id="DejaVuSans-6d" d="M 3328 2828 
Q 3544 3216 3844 3400 
Q 4144 3584 4550 3584 
Q 5097 3584 5394 3201 
Q 5691 2819 5691 2113 
L 5691 0 
L 5113 0 
L 5113 2094 
Q 5113 2597 4934 2840 
Q 4756 3084 4391 3084 
Q 3944 3084 3684 2787 
Q 3425 2491 3425 1978 
L 3425 0 
L 2847 0 
L 2847 2094 
Q 2847 2600 2669 2842 
Q 2491 3084 2119 3084 
Q 1678 3084 1418 2786 
Q 1159 2488 1159 1978 
L 1159 0 
L 581 0 
L 581 3500 
L 1159 3500 
L 1159 2956 
Q 1356 3278 1631 3431 
Q 1906 3584 2284 3584 
Q 2666 3584 2933 3390 
Q 3200 3197 3328 2828 
z
" transform="scale(0.015625)"/>
     <path id="DejaVuSans-75" d="M 544 1381 
L 544 3500 
L 1119 3500 
L 1119 1403 
Q 1119 906 1312 657 
Q 1506 409 1894 409 
Q 2359 409 2629 706 
Q 2900 1003 2900 1516 
L 2900 3500 
L 3475 3500 
L 3475 0 
L 2900 0 
L 2900 538 
Q 2691 219 2414 64 
Q 2138 -91 1772 -91 
Q 1169 -91 856 284 
Q 544 659 544 1381 
z
M 1991 3584 
L 1991 3584 
z
" transform="scale(0.015625)"/>
     <path id="DejaVuSans-6c" d="M 603 4863 
L 1178 4863 
L 1178 0 
L 603 0 
L 603 4863 
z
" transform="scale(0.015625)"/>
     <path id="DejaVuSans-61" d="M 2194 1759 
Q 1497 1759 1228 1600 
Q 959 1441 959 1056 
Q 959 750 1161 570 
Q 1363 391 1709 391 
Q 2188 391 2477 730 
Q 2766 1069 2766 1631 
L 2766 1759 
L 2194 1759 
z
M 3341 1997 
L 3341 0 
L 2766 0 
L 2766 531 
Q 2569 213 2275 61 
Q 1981 -91 1556 -91 
Q 1019 -91 701 211 
Q 384 513 384 1019 
Q 384 1609 779 1909 
Q 1175 2209 1959 2209 
L 2766 2209 
L 2766 2266 
Q 2766 2663 2505 2880 
Q 2244 3097 1772 3097 
Q 1472 3097 1187 3025 
Q 903 2953 641 2809 
L 641 3341 
Q 956 3463 1253 3523 
Q 1550 3584 1831 3584 
Q 2591 3584 2966 3190 
Q 3341 2797 3341 1997 
z
" transform="scale(0.015625)"/>
     <path id="DejaVuSans-74" d="M 1172 4494 
L 1172 3500 
L 2356 3500 
L 2356 3053 
L 1172 3053 
L 1172 1153 
Q 1172 725 1289 603 
Q 1406 481 1766 481 
L 2356 481 
L 2356 0 
L 1766 0 
Q 1100 0 847 248 
Q 594 497 594 1153 
L 594 3053 
L 172 3053 
L 172 3500 
L 594 3500 
L 594 4494 
L 1172 4494 
z
" transform="scale(0.015625)"/>
     <path id="DejaVuSans-6f" d="M 1959 3097 
Q 1497 3097 1228 2736 
Q 959 2375 959 1747 
Q 959 1119 1226 758 
Q 1494 397 1959 397 
Q 2419 397 2687 759 
Q 2956 1122 2956 1747 
Q 2956 2369 2687 2733 
Q 2419 3097 1959 3097 
z
M 1959 3584 
Q 2709 3584 3137 3096 
Q 3566 2609 3566 1747 
Q 3566 888 3137 398 
Q 2709 -91 1959 -91 
Q 1206 -91 779 398 
Q 353 888 353 1747 
Q 353 2609 779 3096 
Q 1206 3584 1959 3584 
z
" transform="scale(0.015625)"/>
     <path id="DejaVuSans-72" d="M 2631 2963 
Q 2534 3019 2420 3045 
Q 2306 3072 2169 3072 
Q 1681 3072 1420 2755 
Q 1159 2438 1159 1844 
L 1159 0 
L 581 0 
L 581 3500 
L 1159 3500 
L 1159 2956 
Q 1341 3275 1631 3429 
Q 1922 3584 2338 3584 
Q 2397 3584 2469 3576 
Q 2541 3569 2628 3553 
L 2631 2963 
z
" transform="scale(0.015625)"/>
     <path id="DejaVuSans-29" d="M 513 4856 
L 1013 4856 
Q 1481 4119 1714 3412 
Q 1947 2706 1947 2009 
Q 1947 1309 1714 600 
Q 1481 -109 1013 -844 
L 513 -844 
Q 928 -128 1133 580 
Q 1338 1288 1338 2009 
Q 1338 2731 1133 3434 
Q 928 4138 513 4856 
z
" transform="scale(0.015625)"/>
    </defs>
    <use xlink:href="#DejaVuSans-73"/>
    <use xlink:href="#DejaVuSans-69" transform="translate(52.099609 0)"/>
    <use xlink:href="#DejaVuSans-6d" transform="translate(79.882812 0)"/>
    <use xlink:href="#DejaVuSans-75" transform="translate(177.294922 0)"/>
    <use xlink:href="#DejaVuSans-6c" transform="translate(240.673828 0)"/>
    <use xlink:href="#DejaVuSans-61" transform="translate(268.457031 0)"/>
    <use xlink:href="#DejaVuSans-74" transform="translate(329.736328 0)"/>
    <use xlink:href="#DejaVuSans-6f" transform="translate(368.945312 0)"/>
    <use xlink:href="#DejaVuSans-72" transform="translate(430.126953 0)"/>
    <use xlink:href="#DejaVuSans-29" transform="translate(471.240234 0)"/>
   </g>
  </g>
 </g>
 <defs>
  <clipPath id="pf9822cb68d">
   <rect x="45" y="36" width="126.818182" height="129.272727"/>
  </clipPath>
  <clipPath id="p9987a3a47d">
   <rect x="197.181818" y="36" width="126.818182" height="129.272727"/>
  </clipPath>
  <clipPath id="pe192e06797">
   <rect x="197.181818" y="191.127273" width="126.818182" height="129.272727"/>
  </clipPath>
 </defs>
</svg>
