<?xml version="1.0" encoding="utf-8" standalone="no"?>
<!DOCTYPE svg PUBLIC "-//W3C//DTD SVG 1.1//EN"
  "http://www.w3.org/Graphics/SVG/1.1/DTD/svg11.dtd">
<svg xmlns:xlink="http://www.w3.org/1999/xlink" width="360pt" height="360pt" viewBox="0 0 360 360" xmlns="http://www.w3.org/2000/svg" version="1.1">
 <metadata>
  <rdf:RDF xmlns:dc="http://purl.org/dc/elements/1.1/" xmlns:cc="http://creativecommons.org/ns#" xmlns:rdf="http://www.w3.org/1999/02/22-rdf-syntax-ns#">
   <cc:Work>
    <dc:type rdf:resource="http://purl.org/dc/dcmitype/StillImage"/>
    <dc:date>2025-09-25T12:55:51.653362</dc:date>
    <dc:format>image/svg+xml</dc:format>
    <dc:creator>
     <cc:Agent>
      <dc:title>Matplotlib v3.10.6, https://matplotlib.org/</dc:title>
     </cc:Agent>
    </dc:creator>
   </cc:Work>
  </rdf:RDF>
 </metadata>
 <defs>
  <style type="text/css">*{stroke-linejoin: round; stroke-linecap: butt}</style>
 </defs>
 <g id="figure_1">
  <g id="patch_1">
   <path d="M 0 360 
L 360 360 
L 360 0 
L 0 0 
z
" style="fill: #ffffff"/>
  </g>
  <g id="axes_1">
   <g id="patch_2">
    <path d="M 45 165.272727 
L 171.818182 165.272727 
L 171.818182 36 
L 45 36 
z
" style="fill: #ffffff"/>
   </g>
   <g id="matplotlib.axis_1">
    <g id="xtick_1">
     <g id="line2d_1">
      <defs>
       <path id="m9826b2f49f" d="M 0 0 
L 0 3.5 
" style="stroke: #000000; stroke-width: 0.8"/>
      </defs>
      <g>
       <use xlink:href="#m9826b2f49f" x="84.357367" y="170.272727" style="stroke: #000000; stroke-width: 0.8"/>
      </g>
     </g>
     <g id="text_1">
      <!-- 1 -->
      <g transform="translate(81.176117 184.871165) scale(0.1 -0.1)">
       <defs>
        <path id="DejaVuSans-31" d="M 794 531 
L 1825 531 
L 1825 4091 
L 703 3866 
L 703 4441 
L 1819 4666 
L 2450 4666 
L 2450 531 
L 3481 531 
L 3481 0 
L 794 0 
L 794 531 
z
" transform="scale(0.015625)"/>
       </defs>
       <use xlink:href="#DejaVuSans-31"/>
      </g>
     </g>
    </g>
    <g id="xtick_2">
     <g id="line2d_2">
      <g>
       <use xlink:href="#m9826b2f49f" x="128.087774" y="170.272727" style="stroke: #000000; stroke-width: 0.8"/>
      </g>
     </g>
     <g id="text_2">
      <!-- 2 -->
      <g transform="translate(124.906524 184.871165) scale(0.1 -0.1)">
       <defs>
        <path id="DejaVuSans-32" d="M 1228 531 
L 3431 531 
L 3431 0 
L 469 0 
L 469 531 
Q 828 903 1448 1529 
Q 2069 2156 2228 2338 
Q 2531 2678 2651 2914 
Q 2772 3150 2772 3378 
Q 2772 3750 2511 3984 
Q 2250 4219 1831 4219 
Q 1534 4219 1204 4116 
Q 875 4013 500 3803 
L 500 4441 
Q 881 4594 1212 4672 
Q 1544 4750 1819 4750 
Q 2544 4750 2975 4387 
Q 3406 4025 3406 3419 
Q 3406 3131 3298 2873 
Q 3191 2616 2906 2266 
Q 2828 2175 2409 1742 
Q 1991 1309 1228 531 
z
" transform="scale(0.015625)"/>
       </defs>
       <use xlink:href="#DejaVuSans-32"/>
      </g>
     </g>
    </g>
    <g id="xtick_3">
     <g id="line2d_3">
      <g>
       <use xlink:href="#m9826b2f49f" x="171.818182" y="170.272727" style="stroke: #000000; stroke-width: 0.8"/>
      </g>
     </g>
     <g id="text_3">
      <!-- 3 -->
      <g transform="translate(168.636932 184.871165) scale(0.1 -0.1)">
       <defs>
        <path id="DejaVuSans-33" d="M 2597 2516 
Q 3050 2419 3304 2112 
Q 3559 1806 3559 1356 
Q 3559 666 3084 287 
Q 2609 -91 1734 -91 
Q 1441 -91 1130 -33 
Q 819 25 488 141 
L 488 750 
Q 750 597 1062 519 
Q 1375 441 1716 441 
Q 2309 441 2620 675 
Q 2931 909 2931 1356 
Q 2931 1769 2642 2001 
Q 2353 2234 1838 2234 
L 1294 2234 
L 1294 2753 
L 1863 2753 
Q 2328 2753 2575 2939 
Q 2822 3125 2822 3475 
Q 2822 3834 2567 4026 
Q 2313 4219 1838 4219 
Q 1578 4219 1281 4162 
Q 984 4106 628 3988 
L 628 4550 
Q 988 4650 1302 4700 
Q 1616 4750 1894 4750 
Q 2613 4750 3031 4423 
Q 3450 4097 3450 3541 
Q 3450 3153 3228 2886 
Q 3006 2619 2597 2516 
z
" transform="scale(0.015625)"/>
       </defs>
       <use xlink:href="#DejaVuSans-33"/>
      </g>
     </g>
    </g>
    <g id="text_4">
     <!-- $\theta_0$ -->
     <g transform="translate(102.959091 198.54929) scale(0.1 -0.1)">
      <defs>
       <path id="DejaVuSans-Oblique-3b8" d="M 2913 2219 
L 925 2219 
Q 791 1284 928 888 
Q 1100 400 1566 400 
Q 2034 400 2391 891 
Q 2703 1322 2913 2219 
z
M 3009 2750 
Q 3094 3638 2984 3950 
Q 2813 4444 2353 4444 
Q 1875 4444 1525 3956 
Q 1250 3563 1034 2750 
L 3009 2750 
z
M 2444 4913 
Q 3194 4913 3494 4250 
Q 3794 3591 3566 2422 
Q 3341 1256 2781 594 
Q 2225 -72 1475 -72 
Q 722 -72 425 594 
Q 128 1256 353 2422 
Q 581 3591 1134 4250 
Q 1691 4913 2444 4913 
z
" transform="scale(0.015625)"/>
       <path id="DejaVuSans-30" d="M 2034 4250 
Q 1547 4250 1301 3770 
Q 1056 3291 1056 2328 
Q 1056 1369 1301 889 
Q 1547 409 2034 409 
Q 2525 409 2770 889 
Q 3016 1369 3016 2328 
Q 3016 3291 2770 3770 
Q 2525 4250 2034 4250 
z
M 2034 4750 
Q 2819 4750 3233 4129 
Q 3647 3509 3647 2328 
Q 3647 1150 3233 529 
Q 2819 -91 2034 -91 
Q 1250 -91 836 529 
Q 422 1150 422 2328 
Q 422 3509 836 4129 
Q 1250 4750 2034 4750 
z
" transform="scale(0.015625)"/>
      </defs>
      <use xlink:href="#DejaVuSans-Oblique-3b8" transform="translate(0 0.234375)"/>
      <use xlink:href="#DejaVuSans-30" transform="translate(61.181641 -16.171875) scale(0.7)"/>
     </g>
    </g>
   </g>
   <g id="matplotlib.axis_2">
    <g id="ytick_1"/>
    <g id="ytick_2"/>
    <g id="ytick_3"/>
    <g id="ytick_4"/>
   </g>
   <g id="patch_3">
    <path d="M 51.028369 165.272727 
L 51.028369 164.446994 
L 53.420982 164.446994 
L 53.420982 165.272727 
L 55.813595 165.272727 
L 55.813595 165.272727 
L 58.206208 165.272727 
L 58.206208 165.272727 
L 60.598821 165.272727 
L 60.598821 165.272727 
L 62.991434 165.272727 
L 62.991434 165.272727 
L 65.384046 165.272727 
L 65.384046 165.272727 
L 67.776661 165.272727 
L 67.776661 165.272727 
L 70.169275 165.272727 
L 70.169275 165.272727 
L 72.561887 165.272727 
L 72.561887 165.272727 
L 74.954499 165.272727 
L 74.954499 165.272727 
L 77.347116 165.272727 
L 77.347116 165.272727 
L 79.739728 165.272727 
L 79.739728 165.272727 
L 82.132339 165.272727 
L 82.132339 165.272727 
L 84.524951 165.272727 
L 84.524951 165.272727 
L 86.917568 165.272727 
L 86.917568 165.272727 
L 89.31018 165.272727 
L 89.31018 165.272727 
L 91.702792 165.272727 
L 91.702792 164.446994 
L 94.095404 164.446994 
L 94.095404 165.272727 
L 96.488021 165.272727 
L 96.488021 165.272727 
L 98.880633 165.272727 
L 98.880633 165.272727 
L 101.273245 165.272727 
L 101.273245 165.272727 
L 103.665862 165.272727 
L 103.665862 165.272727 
L 106.058473 165.272727 
L 106.058473 165.272727 
L 108.451085 165.272727 
L 108.451085 165.272727 
L 110.843697 165.272727 
L 110.843697 164.446994 
L 113.236309 164.446994 
L 113.236309 163.62126 
L 115.628926 163.62126 
L 115.628926 165.272727 
L 118.021538 165.272727 
L 118.021538 163.62126 
L 120.41415 163.62126 
L 120.41415 163.62126 
L 122.806767 163.62126 
L 122.806767 164.446994 
L 125.199379 164.446994 
L 125.199379 160.318326 
L 127.59199 160.318326 
L 127.59199 161.144059 
L 129.984602 161.144059 
L 129.984602 161.969793 
L 132.377214 161.969793 
L 132.377214 161.144059 
L 134.769826 161.144059 
L 134.769826 161.969793 
L 137.162438 161.969793 
L 137.162438 156.189657 
L 139.55506 156.189657 
L 139.55506 158.666858 
L 141.947672 158.666858 
L 141.947672 153.712457 
L 144.340284 153.712457 
L 144.340284 136.37205 
L 146.732895 136.37205 
L 146.732895 110.774308 
L 149.125507 110.774308 
L 149.125507 73.616295 
L 151.518119 73.616295 
L 151.518119 48.018553 
L 153.910731 48.018553 
L 153.910731 87.653767 
L 156.303353 87.653767 
L 156.303353 85.176566 
L 158.695965 85.176566 
L 158.695965 90.130968 
L 161.088577 90.130968 
L 161.088577 95.085369 
L 163.481189 95.085369 
L 163.481189 106.64564 
L 165.873801 106.64564 
L 165.873801 113.251509 
L 168.266412 113.251509 
L 168.266412 100.865505 
L 170.659024 100.865505 
L 170.659024 165.272727 
" clip-path="url(#p16dd8b7248)" style="fill: none; stroke: #1f77b4; stroke-linejoin: miter"/>
   </g>
   <g id="patch_4">
    <path d="M 122.91634 165.272727 
L 122.91634 164.446994 
L 123.893405 164.446994 
L 123.893405 165.272727 
L 124.87047 165.272727 
L 124.87047 165.272727 
L 125.847535 165.272727 
L 125.847535 165.272727 
L 126.8246 165.272727 
L 126.8246 165.272727 
L 127.801665 165.272727 
L 127.801665 165.272727 
L 128.778736 165.272727 
L 128.778736 161.969793 
L 129.755801 161.969793 
L 129.755801 163.62126 
L 130.732866 163.62126 
L 130.732866 164.446994 
L 131.709931 164.446994 
L 131.709931 164.446994 
L 132.686996 164.446994 
L 132.686996 165.272727 
L 133.664061 165.272727 
L 133.664061 162.795526 
L 134.641126 162.795526 
L 134.641126 162.795526 
L 135.618191 162.795526 
L 135.618191 162.795526 
L 136.595256 162.795526 
L 136.595256 164.446994 
L 137.572321 164.446994 
L 137.572321 160.318326 
L 138.549386 160.318326 
L 138.549386 153.712457 
L 139.526451 153.712457 
L 139.526451 159.492592 
L 140.503516 159.492592 
L 140.503516 155.363924 
L 141.480581 155.363924 
L 141.480581 157.841125 
L 142.457646 157.841125 
L 142.457646 152.886723 
L 143.434711 152.886723 
L 143.434711 154.53819 
L 144.411776 154.53819 
L 144.411776 153.712457 
L 145.388841 153.712457 
L 145.388841 147.932321 
L 146.365906 147.932321 
L 146.365906 139.674985 
L 147.342971 139.674985 
L 147.342971 136.37205 
L 148.320036 136.37205 
L 148.320036 148.758055 
L 149.297101 148.758055 
L 149.297101 131.417649 
L 150.274166 131.417649 
L 150.274166 125.637513 
L 151.251231 125.637513 
L 151.251231 135.546317 
L 152.228296 135.546317 
L 152.228296 133.069116 
L 153.205361 133.069116 
L 153.205361 137.197784 
L 154.182426 137.197784 
L 154.182426 134.720583 
L 155.159491 134.720583 
L 155.159491 132.243382 
L 156.136556 132.243382 
L 156.136556 127.288981 
L 157.113621 127.288981 
L 157.113621 128.114714 
L 158.090686 128.114714 
L 158.090686 128.940448 
L 159.067751 128.940448 
L 159.067751 129.766182 
L 160.044816 129.766182 
L 160.044816 120.683112 
L 161.021881 120.683112 
L 161.021881 128.940448 
L 161.998946 128.940448 
L 161.998946 135.546317 
L 162.976011 135.546317 
L 162.976011 143.803653 
L 163.953076 143.803653 
L 163.953076 144.629387 
L 164.930141 144.629387 
L 164.930141 140.500719 
L 165.907206 140.500719 
L 165.907206 138.849251 
L 166.884271 138.849251 
L 166.884271 146.280854 
L 167.861336 146.280854 
L 167.861336 148.758055 
L 168.838401 148.758055 
L 168.838401 157.015391 
L 169.815466 157.015391 
L 169.815466 154.53819 
L 170.792531 154.53819 
L 170.792531 150.409522 
L 171.769596 150.409522 
L 171.769596 165.272727 
" clip-path="url(#p16dd8b7248)" style="fill: none; stroke: #2ca02c; stroke-linejoin: miter"/>
   </g>
   <g id="line2d_4">
    <path d="M 157.077984 165.272727 
L 157.077984 42.155844 
" clip-path="url(#p16dd8b7248)" style="fill: none; stroke: #ff0000; stroke-width: 1.5; stroke-linecap: square"/>
   </g>
   <g id="patch_5">
    <path d="M 45 170.272727 
L 171.818182 170.272727 
" style="fill: none; stroke: #000000; stroke-width: 0.8; stroke-linejoin: miter; stroke-linecap: square"/>
   </g>
  </g>
  <g id="axes_2">
   <g id="patch_6">
    <path d="M 197.181818 165.272727 
L 324 165.272727 
L 324 36 
L 197.181818 36 
z
" style="fill: #ffffff"/>
   </g>
   <g id="matplotlib.axis_3">
    <g id="xtick_4"/>
    <g id="xtick_5"/>
    <g id="xtick_6"/>
   </g>
   <g id="matplotlib.axis_4">
    <g id="ytick_5"/>
    <g id="ytick_6"/>
    <g id="ytick_7"/>
    <g id="ytick_8"/>
    <g id="ytick_9"/>
    <g id="ytick_10"/>
   </g>
   <g id="QuadContourSet_1">
    <path d="M 236.003711 65.020413 
L 236.003711 65.020413 
L 233.415579 62.382187 
L 230.827454 62.382187 
L 230.827454 62.382187 
L 228.239329 59.743972 
L 228.239329 59.743972 
L 225.651204 57.105756 
L 225.651204 57.105756 
L 225.651204 54.46753 
L 225.651204 54.46753 
L 228.239329 51.829315 
L 228.239329 49.191099 
L 228.239329 49.191099 
L 230.827454 46.552873 
L 230.827454 43.914657 
L 230.827454 43.914657 
L 233.415579 41.276442 
L 233.415579 41.276442 
L 236.003711 41.276442 
L 238.591836 38.638216 
L 238.591836 38.638216 
L 241.179961 38.638216 
L 243.768086 38.638216 
L 246.35621 38.638216 
L 248.944335 38.638216 
L 251.532468 38.638216 
L 254.120592 38.638216 
L 256.708717 38.638216 
L 259.296842 38.638216 
L 261.884967 38.638216 
L 264.473092 38.638216 
L 267.061216 38.638216 
L 269.649341 38.638216 
L 269.649341 38.638216 
L 272.237474 41.276442 
L 272.237474 41.276442 
L 272.237474 43.914657 
L 272.237474 46.552873 
L 272.237474 49.191099 
L 272.237474 51.829315 
L 272.237474 54.46753 
L 272.237474 54.46753 
L 269.649341 57.105756 
L 269.649341 57.105756 
L 267.061216 57.105756 
L 264.473092 59.743972 
L 264.473092 59.743972 
L 261.884967 59.743972 
L 259.296842 62.382187 
L 259.296842 62.382187 
L 256.708717 62.382187 
L 254.120592 62.382187 
L 251.532468 65.020413 
L 251.532468 65.020413 
L 248.944335 65.020413 
L 246.35621 65.020413 
L 243.768086 65.020413 
L 241.179961 65.020413 
L 238.591836 65.020413 
L 236.003711 65.020413 
z
M 202.35807 54.46753 
L 202.35807 54.46753 
L 202.35807 54.46753 
L 202.35807 54.46753 
L 202.35807 54.46753 
z
" clip-path="url(#p6ecda523f6)" style="fill: none; stroke: #1f77b4; stroke-width: 1.5"/>
   </g>
   <g id="QuadContourSet_2">
    <path d="M 243.768086 65.020413 
L 243.768086 65.020413 
L 241.179961 62.382187 
L 238.591836 62.382187 
L 236.003711 62.382187 
L 236.003711 62.382187 
L 233.415579 59.743972 
L 230.827454 59.743972 
L 228.239329 59.743972 
L 225.651204 59.743972 
L 225.651204 59.743972 
L 223.06308 57.105756 
L 220.474955 57.105756 
L 220.474955 57.105756 
L 220.474955 54.46753 
L 217.886826 51.829315 
L 217.886826 51.829315 
L 217.886826 49.191099 
L 217.886826 49.191099 
L 220.474955 46.552873 
L 220.474955 46.552873 
L 223.06308 43.914657 
L 223.06308 43.914657 
L 225.651204 43.914657 
L 228.239329 41.276442 
L 228.239329 41.276442 
L 230.827454 41.276442 
L 233.415579 41.276442 
L 236.003711 41.276442 
L 238.591836 41.276442 
L 241.179961 38.638216 
L 241.179961 38.638216 
L 243.768086 38.638216 
L 246.35621 38.638216 
L 248.944335 38.638216 
L 248.944335 38.638216 
L 251.532468 41.276442 
L 254.120592 41.276442 
L 256.708717 41.276442 
L 259.296842 41.276442 
L 261.884967 41.276442 
L 264.473092 41.276442 
L 267.061216 41.276442 
L 269.649341 41.276442 
L 269.649341 41.276442 
L 272.237474 43.914657 
L 274.825598 43.914657 
L 274.825598 43.914657 
L 274.825598 46.552873 
L 274.825598 49.191099 
L 274.825598 49.191099 
L 272.237474 51.829315 
L 272.237474 54.46753 
L 274.825598 57.105756 
L 274.825598 57.105756 
L 274.825598 59.743972 
L 274.825598 59.743972 
L 272.237474 59.743972 
L 269.649341 62.382187 
L 269.649341 62.382187 
L 267.061216 62.382187 
L 264.473092 62.382187 
L 261.884967 62.382187 
L 259.296842 62.382187 
L 256.708717 62.382187 
L 254.120592 62.382187 
L 251.532468 62.382187 
L 248.944335 65.020413 
L 248.944335 65.020413 
L 246.35621 65.020413 
L 243.768086 65.020413 
z
" clip-path="url(#p6ecda523f6)" style="fill: none; stroke: #2ca02c; stroke-width: 1.5"/>
   </g>
   <g id="line2d_5">
    <path d="M 231.958198 51.025492 
" clip-path="url(#p6ecda523f6)" style="fill: none; stroke: #ff0000; stroke-width: 1.5; stroke-linecap: square"/>
    <defs>
     <path id="m374d17636a" d="M 0 1.5 
C 0.397805 1.5 0.77937 1.341951 1.06066 1.06066 
C 1.341951 0.77937 1.5 0.397805 1.5 0 
C 1.5 -0.397805 1.341951 -0.77937 1.06066 -1.06066 
C 0.77937 -1.341951 0.397805 -1.5 0 -1.5 
C -0.397805 -1.5 -0.77937 -1.341951 -1.06066 -1.06066 
C -1.341951 -0.77937 -1.5 -0.397805 -1.5 0 
C -1.5 0.397805 -1.341951 0.77937 -1.06066 1.06066 
C -0.77937 1.341951 -0.397805 1.5 0 1.5 
z
" style="stroke: #ff0000"/>
    </defs>
    <g clip-path="url(#p6ecda523f6)">
     <use xlink:href="#m374d17636a" x="231.958198" y="51.025492" style="fill: #ff0000; stroke: #ff0000"/>
    </g>
   </g>
  </g>
  <g id="axes_3"/>
  <g id="axes_4">
   <g id="patch_7">
    <path d="M 197.181818 320.4 
L 324 320.4 
L 324 191.127273 
L 197.181818 191.127273 
z
" style="fill: #ffffff"/>
   </g>
   <g id="matplotlib.axis_5">
    <g id="xtick_7">
     <g id="line2d_6">
      <g>
       <use xlink:href="#m9826b2f49f" x="222.545453" y="325.4" style="stroke: #000000; stroke-width: 0.8"/>
      </g>
     </g>
     <g id="text_5">
      <!-- 0.2 -->
      <g transform="translate(214.593891 339.998438) scale(0.1 -0.1)">
       <defs>
        <path id="DejaVuSans-2e" d="M 684 794 
L 1344 794 
L 1344 0 
L 684 0 
L 684 794 
z
" transform="scale(0.015625)"/>
       </defs>
       <use xlink:href="#DejaVuSans-30"/>
       <use xlink:href="#DejaVuSans-2e" transform="translate(63.623047 0)"/>
       <use xlink:href="#DejaVuSans-32" transform="translate(95.410156 0)"/>
      </g>
     </g>
    </g>
    <g id="xtick_8">
     <g id="line2d_7">
      <g>
       <use xlink:href="#m9826b2f49f" x="273.272723" y="325.4" style="stroke: #000000; stroke-width: 0.8"/>
      </g>
     </g>
     <g id="text_6">
      <!-- 0.4 -->
      <g transform="translate(265.321161 339.998438) scale(0.1 -0.1)">
       <defs>
        <path id="DejaVuSans-34" d="M 2419 4116 
L 825 1625 
L 2419 1625 
L 2419 4116 
z
M 2253 4666 
L 3047 4666 
L 3047 1625 
L 3713 1625 
L 3713 1100 
L 3047 1100 
L 3047 0 
L 2419 0 
L 2419 1100 
L 313 1100 
L 313 1709 
L 2253 4666 
z
" transform="scale(0.015625)"/>
       </defs>
       <use xlink:href="#DejaVuSans-30"/>
       <use xlink:href="#DejaVuSans-2e" transform="translate(63.623047 0)"/>
       <use xlink:href="#DejaVuSans-34" transform="translate(95.410156 0)"/>
      </g>
     </g>
    </g>
    <g id="xtick_9">
     <g id="line2d_8">
      <g>
       <use xlink:href="#m9826b2f49f" x="323.999994" y="325.4" style="stroke: #000000; stroke-width: 0.8"/>
      </g>
     </g>
     <g id="text_7">
      <!-- 0.6 -->
      <g transform="translate(316.048431 339.998438) scale(0.1 -0.1)">
       <defs>
        <path id="DejaVuSans-36" d="M 2113 2584 
Q 1688 2584 1439 2293 
Q 1191 2003 1191 1497 
Q 1191 994 1439 701 
Q 1688 409 2113 409 
Q 2538 409 2786 701 
Q 3034 994 3034 1497 
Q 3034 2003 2786 2293 
Q 2538 2584 2113 2584 
z
M 3366 4563 
L 3366 3988 
Q 3128 4100 2886 4159 
Q 2644 4219 2406 4219 
Q 1781 4219 1451 3797 
Q 1122 3375 1075 2522 
Q 1259 2794 1537 2939 
Q 1816 3084 2150 3084 
Q 2853 3084 3261 2657 
Q 3669 2231 3669 1497 
Q 3669 778 3244 343 
Q 2819 -91 2113 -91 
Q 1303 -91 875 529 
Q 447 1150 447 2328 
Q 447 3434 972 4092 
Q 1497 4750 2381 4750 
Q 2619 4750 2861 4703 
Q 3103 4656 3366 4563 
z
" transform="scale(0.015625)"/>
       </defs>
       <use xlink:href="#DejaVuSans-30"/>
       <use xlink:href="#DejaVuSans-2e" transform="translate(63.623047 0)"/>
       <use xlink:href="#DejaVuSans-36" transform="translate(95.410156 0)"/>
      </g>
     </g>
    </g>
    <g id="text_8">
     <!-- $\theta_1$ -->
     <g transform="translate(255.140909 353.676562) scale(0.1 -0.1)">
      <use xlink:href="#DejaVuSans-Oblique-3b8" transform="translate(0 0.234375)"/>
      <use xlink:href="#DejaVuSans-31" transform="translate(61.181641 -16.171875) scale(0.7)"/>
     </g>
    </g>
   </g>
   <g id="matplotlib.axis_6">
    <g id="ytick_11"/>
    <g id="ytick_12"/>
    <g id="ytick_13"/>
    <g id="ytick_14"/>
    <g id="ytick_15"/>
    <g id="ytick_16"/>
   </g>
   <g id="patch_8">
    <path d="M 198.687635 320.4 
L 198.687635 291.086456 
L 201.152024 291.086456 
L 201.152024 301.282472 
L 203.616412 301.282472 
L 203.616412 307.654981 
L 206.080797 307.654981 
L 206.080797 310.203985 
L 208.545186 310.203985 
L 208.545186 312.752989 
L 211.009574 312.752989 
L 211.009574 316.576494 
L 213.473963 316.576494 
L 213.473963 316.576494 
L 215.938351 316.576494 
L 215.938351 316.576494 
L 218.402736 316.576494 
L 218.402736 314.027491 
L 220.867128 314.027491 
L 220.867128 312.752989 
L 223.331513 312.752989 
L 223.331513 310.203985 
L 225.795902 310.203985 
L 225.795902 310.203985 
L 228.26029 310.203985 
L 228.26029 306.380479 
L 230.724679 306.380479 
L 230.724679 296.184464 
L 233.189063 296.184464 
L 233.189063 284.713947 
L 235.653452 284.713947 
L 235.653452 255.400403 
L 238.117844 255.400403 
L 238.117844 245.204388 
L 240.582229 245.204388 
L 240.582229 232.459369 
L 243.046614 232.459369 
L 243.046614 241.380882 
L 245.510999 241.380882 
L 245.510999 203.145826 
L 247.975391 203.145826 
L 247.975391 235.008373 
L 250.439783 235.008373 
L 250.439783 219.71435 
L 252.904168 219.71435 
L 252.904168 246.47889 
L 255.368553 246.47889 
L 255.368553 282.164943 
L 257.832945 282.164943 
L 257.832945 282.164943 
L 260.29733 282.164943 
L 260.29733 283.439445 
L 262.761722 283.439445 
L 262.761722 282.164943 
L 265.226107 282.164943 
L 265.226107 289.811955 
L 267.690492 289.811955 
L 267.690492 289.811955 
L 270.154884 289.811955 
L 270.154884 303.831475 
L 272.619269 303.831475 
L 272.619269 306.380479 
L 275.083661 306.380479 
L 275.083661 308.929483 
L 277.548046 308.929483 
L 277.548046 310.203985 
L 280.012431 310.203985 
L 280.012431 306.380479 
L 282.476823 306.380479 
L 282.476823 306.380479 
L 284.941208 306.380479 
L 284.941208 314.027491 
L 287.4056 314.027491 
L 287.4056 306.380479 
L 289.869985 306.380479 
L 289.869985 307.654981 
L 292.334369 307.654981 
L 292.334369 307.654981 
L 294.798762 307.654981 
L 294.798762 316.576494 
L 297.263147 316.576494 
L 297.263147 310.203985 
L 299.727539 310.203985 
L 299.727539 312.752989 
L 302.191924 312.752989 
L 302.191924 311.478487 
L 304.656308 311.478487 
L 304.656308 310.203985 
L 307.120708 310.203985 
L 307.120708 319.125498 
L 309.585078 319.125498 
L 309.585078 320.4 
L 312.049478 320.4 
L 312.049478 316.576494 
L 314.513863 316.576494 
L 314.513863 319.125498 
L 316.978247 319.125498 
L 316.978247 319.125498 
L 319.442647 319.125498 
L 319.442647 316.576494 
L 321.907032 316.576494 
L 321.907032 320.4 
" clip-path="url(#p989b48fb01)" style="fill: none; stroke: #1f77b4; stroke-linejoin: miter"/>
   </g>
   <g id="patch_9">
    <path d="M 210.116446 320.4 
L 210.116446 319.125498 
L 212.379169 319.125498 
L 212.379169 317.850996 
L 214.641889 317.850996 
L 214.641889 319.125498 
L 216.904612 319.125498 
L 216.904612 311.478487 
L 219.167332 311.478487 
L 219.167332 302.556973 
L 221.430055 302.556973 
L 221.430055 296.184464 
L 223.692778 296.184464 
L 223.692778 291.086456 
L 225.955498 291.086456 
L 225.955498 273.24343 
L 228.218217 273.24343 
L 228.218217 283.439445 
L 230.48094 283.439445 
L 230.48094 271.968928 
L 232.743663 271.968928 
L 232.743663 271.968928 
L 235.006383 271.968928 
L 235.006383 264.321917 
L 237.26911 264.321917 
L 237.26911 263.047415 
L 239.531829 263.047415 
L 239.531829 263.047415 
L 241.794549 263.047415 
L 241.794549 257.949407 
L 244.057268 257.949407 
L 244.057268 251.576898 
L 246.319988 251.576898 
L 246.319988 256.674905 
L 248.582715 256.674905 
L 248.582715 275.792434 
L 250.845434 275.792434 
L 250.845434 278.341437 
L 253.108154 278.341437 
L 253.108154 273.24343 
L 255.370881 273.24343 
L 255.370881 273.24343 
L 257.6336 273.24343 
L 257.6336 287.262951 
L 259.89632 287.262951 
L 259.89632 269.419924 
L 262.159047 269.419924 
L 262.159047 296.184464 
L 264.421766 296.184464 
L 264.421766 278.341437 
L 266.684486 278.341437 
L 266.684486 277.066936 
L 268.947213 277.066936 
L 268.947213 293.63546 
L 271.209925 293.63546 
L 271.209925 302.556973 
L 273.472652 302.556973 
L 273.472652 291.086456 
L 275.735371 291.086456 
L 275.735371 297.458966 
L 277.998091 297.458966 
L 277.998091 300.00797 
L 280.260818 300.00797 
L 280.260818 292.360958 
L 282.523537 292.360958 
L 282.523537 311.478487 
L 284.786257 311.478487 
L 284.786257 308.929483 
L 287.048984 308.929483 
L 287.048984 315.301992 
L 289.311703 315.301992 
L 289.311703 311.478487 
L 291.574423 311.478487 
L 291.574423 312.752989 
L 293.837142 312.752989 
L 293.837142 310.203985 
L 296.099869 310.203985 
L 296.099869 316.576494 
L 298.362589 316.576494 
L 298.362589 312.752989 
L 300.6253 312.752989 
L 300.6253 317.850996 
L 302.888028 317.850996 
L 302.888028 314.027491 
L 305.150755 314.027491 
L 305.150755 310.203985 
L 307.413482 310.203985 
L 307.413482 308.929483 
L 309.676193 308.929483 
L 309.676193 312.752989 
L 311.938921 312.752989 
L 311.938921 317.850996 
L 314.201632 317.850996 
L 314.201632 315.301992 
L 316.464359 315.301992 
L 316.464359 317.850996 
L 318.727086 317.850996 
L 318.727086 314.027491 
L 320.989814 314.027491 
L 320.989814 316.576494 
L 323.252525 316.576494 
L 323.252525 320.4 
" clip-path="url(#p989b48fb01)" style="fill: none; stroke: #2ca02c; stroke-linejoin: miter"/>
   </g>
   <g id="line2d_9">
    <path d="M 231.958198 320.4 
L 231.958198 197.283117 
" clip-path="url(#p989b48fb01)" style="fill: none; stroke: #ff0000; stroke-width: 1.5; stroke-linecap: square"/>
   </g>
   <g id="patch_10">
    <path d="M 197.181818 325.4 
L 324 325.4 
" style="fill: none; stroke: #000000; stroke-width: 0.8; stroke-linejoin: miter; stroke-linecap: square"/>
   </g>
  </g>
  <g id="text_9">
   <!-- simulator) -->
   <g transform="translate(139.18125 19.3575) scale(0.16 -0.16)">
    <defs>
     <path id="DejaVuSans-73" d="M 2834 3397 
L 2834 2853 
Q 2591 2978 2328 3040 
Q 2066 3103 1784 3103 
Q 1356 3103 1142 2972 
Q 928 2841 928 2578 
Q 928 2378 1081 2264 
Q 1234 2150 1697 2047 
L 1894 2003 
Q 2506 1872 2764 1633 
Q 3022 1394 3022 966 
Q 3022 478 2636 193 
Q 2250 -91 1575 -91 
Q 1294 -91 989 -36 
Q 684 19 347 128 
L 347 722 
Q 666 556 975 473 
Q 1284 391 1588 391 
Q 1994 391 2212 530 
Q 2431 669 2431 922 
Q 2431 1156 2273 1281 
Q 2116 1406 1581 1522 
L 1381 1569 
Q 847 1681 609 1914 
Q 372 2147 372 2553 
Q 372 3047 722 3315 
Q 1072 3584 1716 3584 
Q 2034 3584 2315 3537 
Q 2597 3491 2834 3397 
z
" transform="scale(0.015625)"/>
     <path id="DejaVuSans-69" d="M 603 3500 
L 1178 3500 
L 1178 0 
L 603 0 
L 603 3500 
z
M 603 4863 
L 1178 4863 
L 1178 4134 
L 603 4134 
L 603 4863 
z
" transform="scale(0.015625)"/>
     <path id="DejaVuSans-6d" d="M 3328 2828 
Q 3544 3216 3844 3400 
Q 4144 3584 4550 3584 
Q 5097 3584 5394 3201 
Q 5691 2819 5691 2113 
L 5691 0 
L 5113 0 
L 5113 2094 
Q 5113 2597 4934 2840 
Q 4756 3084 4391 3084 
Q 3944 3084 3684 2787 
Q 3425 2491 3425 1978 
L 3425 0 
L 2847 0 
L 2847 2094 
Q 2847 2600 2669 2842 
Q 2491 3084 2119 3084 
Q 1678 3084 1418 2786 
Q 1159 2488 1159 1978 
L 1159 0 
L 581 0 
L 581 3500 
L 1159 3500 
L 1159 2956 
Q 1356 3278 1631 3431 
Q 1906 3584 2284 3584 
Q 2666 3584 2933 3390 
Q 3200 3197 3328 2828 
z
" transform="scale(0.015625)"/>
     <path id="DejaVuSans-75" d="M 544 1381 
L 544 3500 
L 1119 3500 
L 1119 1403 
Q 1119 906 1312 657 
Q 1506 409 1894 409 
Q 2359 409 2629 706 
Q 2900 1003 2900 1516 
L 2900 3500 
L 3475 3500 
L 3475 0 
L 2900 0 
L 2900 538 
Q 2691 219 2414 64 
Q 2138 -91 1772 -91 
Q 1169 -91 856 284 
Q 544 659 544 1381 
z
M 1991 3584 
L 1991 3584 
z
" transform="scale(0.015625)"/>
     <path id="DejaVuSans-6c" d="M 603 4863 
L 1178 4863 
L 1178 0 
L 603 0 
L 603 4863 
z
" transform="scale(0.015625)"/>
     <path id="DejaVuSans-61" d="M 2194 1759 
Q 1497 1759 1228 1600 
Q 959 1441 959 1056 
Q 959 750 1161 570 
Q 1363 391 1709 391 
Q 2188 391 2477 730 
Q 2766 1069 2766 1631 
L 2766 1759 
L 2194 1759 
z
M 3341 1997 
L 3341 0 
L 2766 0 
L 2766 531 
Q 2569 213 2275 61 
Q 1981 -91 1556 -91 
Q 1019 -91 701 211 
Q 384 513 384 1019 
Q 384 1609 779 1909 
Q 1175 2209 1959 2209 
L 2766 2209 
L 2766 2266 
Q 2766 2663 2505 2880 
Q 2244 3097 1772 3097 
Q 1472 3097 1187 3025 
Q 903 2953 641 2809 
L 641 3341 
Q 956 3463 1253 3523 
Q 1550 3584 1831 3584 
Q 2591 3584 2966 3190 
Q 3341 2797 3341 1997 
z
" transform="scale(0.015625)"/>
     <path id="DejaVuSans-74" d="M 1172 4494 
L 1172 3500 
L 2356 3500 
L 2356 3053 
L 1172 3053 
L 1172 1153 
Q 1172 725 1289 603 
Q 1406 481 1766 481 
L 2356 481 
L 2356 0 
L 1766 0 
Q 1100 0 847 248 
Q 594 497 594 1153 
L 594 3053 
L 172 3053 
L 172 3500 
L 594 3500 
L 594 4494 
L 1172 4494 
z
" transform="scale(0.015625)"/>
     <path id="DejaVuSans-6f" d="M 1959 3097 
Q 1497 3097 1228 2736 
Q 959 2375 959 1747 
Q 959 1119 1226 758 
Q 1494 397 1959 397 
Q 2419 397 2687 759 
Q 2956 1122 2956 1747 
Q 2956 2369 2687 2733 
Q 2419 3097 1959 3097 
z
M 1959 3584 
Q 2709 3584 3137 3096 
Q 3566 2609 3566 1747 
Q 3566 888 3137 398 
Q 2709 -91 1959 -91 
Q 1206 -91 779 398 
Q 353 888 353 1747 
Q 353 2609 779 3096 
Q 1206 3584 1959 3584 
z
" transform="scale(0.015625)"/>
     <path id="DejaVuSans-72" d="M 2631 2963 
Q 2534 3019 2420 3045 
Q 2306 3072 2169 3072 
Q 1681 3072 1420 2755 
Q 1159 2438 1159 1844 
L 1159 0 
L 581 0 
L 581 3500 
L 1159 3500 
L 1159 2956 
Q 1341 3275 1631 3429 
Q 1922 3584 2338 3584 
Q 2397 3584 2469 3576 
Q 2541 3569 2628 3553 
L 2631 2963 
z
" transform="scale(0.015625)"/>
     <path id="DejaVuSans-29" d="M 513 4856 
L 1013 4856 
Q 1481 4119 1714 3412 
Q 1947 2706 1947 2009 
Q 1947 1309 1714 600 
Q 1481 -109 1013 -844 
L 513 -844 
Q 928 -128 1133 580 
Q 1338 1288 1338 2009 
Q 1338 2731 1133 3434 
Q 928 4138 513 4856 
z
" transform="scale(0.015625)"/>
    </defs>
    <use xlink:href="#DejaVuSans-73"/>
    <use xlink:href="#DejaVuSans-69" transform="translate(52.099609 0)"/>
    <use xlink:href="#DejaVuSans-6d" transform="translate(79.882812 0)"/>
    <use xlink:href="#DejaVuSans-75" transform="translate(177.294922 0)"/>
    <use xlink:href="#DejaVuSans-6c" transform="translate(240.673828 0)"/>
    <use xlink:href="#DejaVuSans-61" transform="translate(268.457031 0)"/>
    <use xlink:href="#DejaVuSans-74" transform="translate(329.736328 0)"/>
    <use xlink:href="#DejaVuSans-6f" transform="translate(368.945312 0)"/>
    <use xlink:href="#DejaVuSans-72" transform="translate(430.126953 0)"/>
    <use xlink:href="#DejaVuSans-29" transform="translate(471.240234 0)"/>
   </g>
  </g>
 </g>
 <defs>
  <clipPath id="p16dd8b7248">
   <rect x="45" y="36" width="126.818182" height="129.272727"/>
  </clipPath>
  <clipPath id="p6ecda523f6">
   <rect x="197.181818" y="36" width="126.818182" height="129.272727"/>
  </clipPath>
  <clipPath id="p989b48fb01">
   <rect x="197.181818" y="191.127273" width="126.818182" height="129.272727"/>
  </clipPath>
 </defs>
</svg>
