<?xml version="1.0" encoding="utf-8" standalone="no"?>
<!DOCTYPE svg PUBLIC "-//W3C//DTD SVG 1.1//EN"
  "http://www.w3.org/Graphics/SVG/1.1/DTD/svg11.dtd">
<svg xmlns:xlink="http://www.w3.org/1999/xlink" width="360pt" height="360pt" viewBox="0 0 360 360" xmlns="http://www.w3.org/2000/svg" version="1.1">
 <metadata>
  <rdf:RDF xmlns:dc="http://purl.org/dc/elements/1.1/" xmlns:cc="http://creativecommons.org/ns#" xmlns:rdf="http://www.w3.org/1999/02/22-rdf-syntax-ns#">
   <cc:Work>
    <dc:type rdf:resource="http://purl.org/dc/dcmitype/StillImage"/>
    <dc:date>2026-02-16T14:37:51.982168</dc:date>
    <dc:format>image/svg+xml</dc:format>
    <dc:creator>
     <cc:Agent>
      <dc:title>Matplotlib v3.10.8, https://matplotlib.org/</dc:title>
     </cc:Agent>
    </dc:creator>
   </cc:Work>
  </rdf:RDF>
 </metadata>
 <defs>
  <style type="text/css">*{stroke-linejoin: round; stroke-linecap: butt}</style>
 </defs>
 <g id="figure_1">
  <g id="patch_1">
   <path d="M 0 360 
L 360 360 
L 360 0 
L 0 0 
z
" style="fill: #ffffff"/>
  </g>
  <g id="axes_1">
   <g id="patch_2">
    <path d="M 45 165.272727 
L 171.818182 165.272727 
L 171.818182 36 
L 45 36 
z
" style="fill: #ffffff"/>
   </g>
   <g id="matplotlib.axis_1">
    <g id="xtick_1">
     <g id="line2d_1">
      <defs>
       <path id="m3ed7bc5bb8" d="M 0 0 
L 0 3.5 
" style="stroke: #000000; stroke-width: 0.8"/>
      </defs>
      <g>
       <use xlink:href="#m3ed7bc5bb8" x="84.357367" y="170.272727" style="stroke: #000000; stroke-width: 0.8"/>
      </g>
     </g>
     <g id="text_1">
      <!-- 1 -->
      <g transform="translate(81.176117 184.871165) scale(0.1 -0.1)">
       <defs>
        <path id="DejaVuSans-31" d="M 794 531 
L 1825 531 
L 1825 4091 
L 703 3866 
L 703 4441 
L 1819 4666 
L 2450 4666 
L 2450 531 
L 3481 531 
L 3481 0 
L 794 0 
L 794 531 
z
" transform="scale(0.015625)"/>
       </defs>
       <use xlink:href="#DejaVuSans-31"/>
      </g>
     </g>
    </g>
    <g id="xtick_2">
     <g id="line2d_2">
      <g>
       <use xlink:href="#m3ed7bc5bb8" x="128.087774" y="170.272727" style="stroke: #000000; stroke-width: 0.8"/>
      </g>
     </g>
     <g id="text_2">
      <!-- 2 -->
      <g transform="translate(124.906524 184.871165) scale(0.1 -0.1)">
       <defs>
        <path id="DejaVuSans-32" d="M 1228 531 
L 3431 531 
L 3431 0 
L 469 0 
L 469 531 
Q 828 903 1448 1529 
Q 2069 2156 2228 2338 
Q 2531 2678 2651 2914 
Q 2772 3150 2772 3378 
Q 2772 3750 2511 3984 
Q 2250 4219 1831 4219 
Q 1534 4219 1204 4116 
Q 875 4013 500 3803 
L 500 4441 
Q 881 4594 1212 4672 
Q 1544 4750 1819 4750 
Q 2544 4750 2975 4387 
Q 3406 4025 3406 3419 
Q 3406 3131 3298 2873 
Q 3191 2616 2906 2266 
Q 2828 2175 2409 1742 
Q 1991 1309 1228 531 
z
" transform="scale(0.015625)"/>
       </defs>
       <use xlink:href="#DejaVuSans-32"/>
      </g>
     </g>
    </g>
    <g id="xtick_3">
     <g id="line2d_3">
      <g>
       <use xlink:href="#m3ed7bc5bb8" x="171.818182" y="170.272727" style="stroke: #000000; stroke-width: 0.8"/>
      </g>
     </g>
     <g id="text_3">
      <!-- 3 -->
      <g transform="translate(168.636932 184.871165) scale(0.1 -0.1)">
       <defs>
        <path id="DejaVuSans-33" d="M 2597 2516 
Q 3050 2419 3304 2112 
Q 3559 1806 3559 1356 
Q 3559 666 3084 287 
Q 2609 -91 1734 -91 
Q 1441 -91 1130 -33 
Q 819 25 488 141 
L 488 750 
Q 750 597 1062 519 
Q 1375 441 1716 441 
Q 2309 441 2620 675 
Q 2931 909 2931 1356 
Q 2931 1769 2642 2001 
Q 2353 2234 1838 2234 
L 1294 2234 
L 1294 2753 
L 1863 2753 
Q 2328 2753 2575 2939 
Q 2822 3125 2822 3475 
Q 2822 3834 2567 4026 
Q 2313 4219 1838 4219 
Q 1578 4219 1281 4162 
Q 984 4106 628 3988 
L 628 4550 
Q 988 4650 1302 4700 
Q 1616 4750 1894 4750 
Q 2613 4750 3031 4423 
Q 3450 4097 3450 3541 
Q 3450 3153 3228 2886 
Q 3006 2619 2597 2516 
z
" transform="scale(0.015625)"/>
       </defs>
       <use xlink:href="#DejaVuSans-33"/>
      </g>
     </g>
    </g>
    <g id="text_4">
     <!-- $\theta_0$ -->
     <g transform="translate(102.959091 198.54929) scale(0.1 -0.1)">
      <defs>
       <path id="DejaVuSans-Oblique-3b8" d="M 2913 2219 
L 925 2219 
Q 791 1284 928 888 
Q 1100 400 1566 400 
Q 2034 400 2391 891 
Q 2703 1322 2913 2219 
z
M 3009 2750 
Q 3094 3638 2984 3950 
Q 2813 4444 2353 4444 
Q 1875 4444 1525 3956 
Q 1250 3563 1034 2750 
L 3009 2750 
z
M 2444 4913 
Q 3194 4913 3494 4250 
Q 3794 3591 3566 2422 
Q 3341 1256 2781 594 
Q 2225 -72 1475 -72 
Q 722 -72 425 594 
Q 128 1256 353 2422 
Q 581 3591 1134 4250 
Q 1691 4913 2444 4913 
z
" transform="scale(0.015625)"/>
       <path id="DejaVuSans-30" d="M 2034 4250 
Q 1547 4250 1301 3770 
Q 1056 3291 1056 2328 
Q 1056 1369 1301 889 
Q 1547 409 2034 409 
Q 2525 409 2770 889 
Q 3016 1369 3016 2328 
Q 3016 3291 2770 3770 
Q 2525 4250 2034 4250 
z
M 2034 4750 
Q 2819 4750 3233 4129 
Q 3647 3509 3647 2328 
Q 3647 1150 3233 529 
Q 2819 -91 2034 -91 
Q 1250 -91 836 529 
Q 422 1150 422 2328 
Q 422 3509 836 4129 
Q 1250 4750 2034 4750 
z
" transform="scale(0.015625)"/>
      </defs>
      <use xlink:href="#DejaVuSans-Oblique-3b8" transform="translate(0 0.234375)"/>
      <use xlink:href="#DejaVuSans-30" transform="translate(61.181641 -16.171875) scale(0.7)"/>
     </g>
    </g>
   </g>
   <g id="matplotlib.axis_2">
    <g id="ytick_1"/>
    <g id="ytick_2"/>
    <g id="ytick_3"/>
    <g id="ytick_4"/>
    <g id="ytick_5"/>
    <g id="ytick_6"/>
   </g>
   <g id="patch_3">
    <path d="M 58.67986 165.272727 
L 58.67986 164.836838 
L 60.884225 164.836838 
L 60.884225 165.272727 
L 63.08859 165.272727 
L 63.08859 165.272727 
L 65.292956 165.272727 
L 65.292956 165.272727 
L 67.497321 165.272727 
L 67.497321 165.272727 
L 69.701689 165.272727 
L 69.701689 165.272727 
L 71.906051 165.272727 
L 71.906051 164.836838 
L 74.110419 164.836838 
L 74.110419 165.272727 
L 76.314782 165.272727 
L 76.314782 165.272727 
L 78.51915 165.272727 
L 78.51915 165.272727 
L 80.723515 165.272727 
L 80.723515 165.272727 
L 82.92788 165.272727 
L 82.92788 165.272727 
L 85.132248 165.272727 
L 85.132248 165.272727 
L 87.336611 165.272727 
L 87.336611 165.272727 
L 89.540973 165.272727 
L 89.540973 165.272727 
L 91.745341 165.272727 
L 91.745341 164.836838 
L 93.949709 164.836838 
L 93.949709 165.272727 
L 96.154072 165.272727 
L 96.154072 165.272727 
L 98.358434 165.272727 
L 98.358434 165.272727 
L 100.562802 165.272727 
L 100.562802 165.272727 
L 102.76717 165.272727 
L 102.76717 165.272727 
L 104.971533 165.272727 
L 104.971533 165.272727 
L 107.1759 165.272727 
L 107.1759 165.272727 
L 109.380263 165.272727 
L 109.380263 165.272727 
L 111.584631 165.272727 
L 111.584631 165.272727 
L 113.788994 165.272727 
L 113.788994 165.272727 
L 115.993361 165.272727 
L 115.993361 165.272727 
L 118.197724 165.272727 
L 118.197724 165.272727 
L 120.402092 165.272727 
L 120.402092 165.272727 
L 122.606454 165.272727 
L 122.606454 165.272727 
L 124.810822 165.272727 
L 124.810822 165.272727 
L 127.015185 165.272727 
L 127.015185 165.272727 
L 129.219553 165.272727 
L 129.219553 165.272727 
L 131.423921 165.272727 
L 131.423921 165.272727 
L 133.628288 165.272727 
L 133.628288 165.272727 
L 135.832646 165.272727 
L 135.832646 163.96506 
L 138.037014 163.96506 
L 138.037014 163.529171 
L 140.241382 163.529171 
L 140.241382 164.836838 
L 142.445739 164.836838 
L 142.445739 163.093282 
L 144.650117 163.093282 
L 144.650117 153.067832 
L 146.854475 153.067832 
L 146.854475 48.018553 
L 149.058832 48.018553 
L 149.058832 119.504369 
L 151.26321 119.504369 
L 151.26321 134.760489 
L 153.467568 134.760489 
L 153.467568 132.145154 
L 155.671946 132.145154 
L 155.671946 136.504045 
L 157.876304 136.504045 
L 157.876304 144.350049 
L 160.080661 144.350049 
L 160.080661 149.14483 
L 162.285039 149.14483 
L 162.285039 147.837162 
L 164.489397 147.837162 
L 164.489397 131.273376 
L 166.693775 131.273376 
L 166.693775 92.479244 
L 168.898122 92.479244 
L 168.898122 165.272727 
" clip-path="url(#p74fee26014)" style="fill: none; stroke: #1f77b4; stroke-linejoin: miter"/>
   </g>
   <g id="patch_4">
    <path d="M 124.787483 165.272727 
L 124.787483 164.836838 
L 125.724919 164.836838 
L 125.724919 165.272727 
L 126.662354 165.272727 
L 126.662354 165.272727 
L 127.599789 165.272727 
L 127.599789 165.272727 
L 128.537224 165.272727 
L 128.537224 164.400949 
L 129.47466 164.400949 
L 129.47466 164.836838 
L 130.412095 164.836838 
L 130.412095 165.272727 
L 131.34953 165.272727 
L 131.34953 165.272727 
L 132.286965 165.272727 
L 132.286965 163.093282 
L 133.224411 163.093282 
L 133.224411 163.529171 
L 134.161846 163.529171 
L 134.161846 163.529171 
L 135.099282 163.529171 
L 135.099282 163.093282 
L 136.036717 163.093282 
L 136.036717 163.093282 
L 136.974152 163.093282 
L 136.974152 163.529171 
L 137.911587 163.529171 
L 137.911587 162.657393 
L 138.849023 162.657393 
L 138.849023 163.093282 
L 139.786458 163.093282 
L 139.786458 159.606169 
L 140.723893 159.606169 
L 140.723893 163.529171 
L 141.661328 163.529171 
L 141.661328 161.349725 
L 142.598764 161.349725 
L 142.598764 157.862612 
L 143.536199 157.862612 
L 143.536199 163.093282 
L 144.473634 163.093282 
L 144.473634 156.990834 
L 145.411069 156.990834 
L 145.411069 159.606169 
L 146.348515 159.606169 
L 146.348515 156.990834 
L 147.28595 156.990834 
L 147.28595 152.196054 
L 148.223385 152.196054 
L 148.223385 157.426723 
L 149.160821 157.426723 
L 149.160821 150.452497 
L 150.098256 150.452497 
L 150.098256 153.503721 
L 151.035691 153.503721 
L 151.035691 149.580719 
L 151.973126 149.580719 
L 151.973126 145.657717 
L 152.910562 145.657717 
L 152.910562 151.760164 
L 153.847997 151.760164 
L 153.847997 146.529495 
L 154.785432 146.529495 
L 154.785432 145.657717 
L 155.722867 145.657717 
L 155.722867 146.529495 
L 156.660303 146.529495 
L 156.660303 143.042382 
L 157.597738 143.042382 
L 157.597738 141.734715 
L 158.535173 141.734715 
L 158.535173 147.401273 
L 159.472608 147.401273 
L 159.472608 146.093606 
L 160.410044 146.093606 
L 160.410044 146.093606 
L 161.347479 146.093606 
L 161.347479 143.478271 
L 162.284914 143.478271 
L 162.284914 149.14483 
L 163.222349 149.14483 
L 163.222349 150.888386 
L 164.159785 150.888386 
L 164.159785 153.067832 
L 165.09723 153.067832 
L 165.09723 151.760164 
L 166.034666 151.760164 
L 166.034666 157.862612 
L 166.972101 157.862612 
L 166.972101 157.426723 
L 167.909536 157.426723 
L 167.909536 157.862612 
L 168.846971 157.862612 
L 168.846971 157.862612 
L 169.784407 157.862612 
L 169.784407 158.73439 
L 170.721842 158.73439 
L 170.721842 160.913836 
L 171.659277 160.913836 
L 171.659277 165.272727 
" clip-path="url(#p74fee26014)" style="fill: none; stroke: #2ca02c; stroke-linejoin: miter"/>
   </g>
   <g id="line2d_4">
    <path d="M 157.077984 165.272727 
L 157.077984 42.155844 
" clip-path="url(#p74fee26014)" style="fill: none; stroke: #ff0000; stroke-width: 1.5; stroke-linecap: square"/>
   </g>
   <g id="patch_5">
    <path d="M 45 170.272727 
L 171.818182 170.272727 
" style="fill: none; stroke: #000000; stroke-width: 0.8; stroke-linejoin: miter; stroke-linecap: square"/>
   </g>
  </g>
  <g id="axes_2">
   <g id="patch_6">
    <path d="M 197.181818 165.272727 
L 324 165.272727 
L 324 36 
L 197.181818 36 
z
" style="fill: #ffffff"/>
   </g>
   <g id="matplotlib.axis_3">
    <g id="xtick_4"/>
    <g id="xtick_5"/>
    <g id="xtick_6"/>
   </g>
   <g id="matplotlib.axis_4">
    <g id="ytick_7"/>
    <g id="ytick_8"/>
    <g id="ytick_9"/>
    <g id="ytick_10"/>
    <g id="ytick_11"/>
    <g id="ytick_12"/>
   </g>
   <g id="QuadContourSet_1">
    <path d="M 264.473092 65.020413 
L 264.473092 65.020413 
L 261.884967 62.382187 
L 259.296842 62.382187 
L 256.708717 62.382187 
L 254.120592 62.382187 
L 251.532468 62.382187 
L 248.944335 62.382187 
L 248.944335 62.382187 
L 246.35621 59.743972 
L 243.768086 59.743972 
L 243.768086 59.743972 
L 243.768086 59.743972 
L 246.35621 57.105756 
L 246.35621 54.46753 
L 246.35621 54.46753 
L 248.944335 51.829315 
L 248.944335 51.829315 
L 251.532468 49.191099 
L 251.532468 49.191099 
L 254.120592 46.552873 
L 254.120592 43.914657 
L 251.532468 41.276442 
L 251.532468 41.276442 
L 251.532468 41.276442 
L 254.120592 38.638216 
L 254.120592 38.638216 
L 256.708717 38.638216 
L 259.296842 38.638216 
L 261.884967 38.638216 
L 264.473092 38.638216 
L 267.061216 38.638216 
L 269.649341 38.638216 
L 272.237474 38.638216 
L 274.825598 38.638216 
L 277.413723 38.638216 
L 277.413723 38.638216 
L 280.001848 41.276442 
L 282.589973 41.276442 
L 282.589973 41.276442 
L 282.589973 41.276442 
L 280.001848 43.914657 
L 280.001848 43.914657 
L 277.413723 43.914657 
L 274.825598 46.552873 
L 274.825598 49.191099 
L 274.825598 51.829315 
L 277.413723 54.46753 
L 277.413723 54.46753 
L 280.001848 57.105756 
L 282.589973 57.105756 
L 282.589973 57.105756 
L 285.178098 59.743972 
L 287.766222 59.743972 
L 290.354355 59.743972 
L 292.94248 57.105756 
L 292.94248 57.105756 
L 295.530604 57.105756 
L 298.118729 54.46753 
L 298.118729 54.46753 
L 300.706862 51.829315 
L 300.706862 51.829315 
L 303.294986 51.829315 
L 305.883111 49.191099 
L 305.883111 49.191099 
L 305.883111 49.191099 
L 308.471236 51.829315 
L 311.059361 51.829315 
L 311.059361 51.829315 
L 313.647486 54.46753 
L 313.647486 54.46753 
L 316.23561 57.105756 
L 316.23561 57.105756 
L 316.23561 59.743972 
L 316.23561 59.743972 
L 313.647486 62.382187 
L 313.647486 62.382187 
L 311.059361 62.382187 
L 308.471236 62.382187 
L 305.883111 62.382187 
L 303.294986 62.382187 
L 300.706862 62.382187 
L 298.118729 62.382187 
L 295.530604 62.382187 
L 295.530604 62.382187 
L 292.94248 59.743972 
L 290.354355 59.743972 
L 287.766222 59.743972 
L 285.178098 59.743972 
L 282.589973 59.743972 
L 280.001848 62.382187 
L 280.001848 62.382187 
L 277.413723 62.382187 
L 274.825598 62.382187 
L 272.237474 62.382187 
L 269.649341 62.382187 
L 267.061216 62.382187 
L 264.473092 65.020413 
L 264.473092 65.020413 
z
M 300.706862 43.914657 
L 300.706862 43.914657 
L 298.118729 41.276442 
L 298.118729 41.276442 
L 298.118729 41.276442 
L 300.706862 41.276442 
L 303.294986 38.638216 
L 303.294986 38.638216 
L 305.883111 38.638216 
L 308.471236 38.638216 
L 308.471236 38.638216 
L 311.059361 41.276442 
L 313.647486 41.276442 
L 313.647486 41.276442 
L 313.647486 41.276442 
L 311.059361 43.914657 
L 311.059361 43.914657 
L 308.471236 43.914657 
L 305.883111 43.914657 
L 303.294986 43.914657 
L 300.706862 43.914657 
z
" clip-path="url(#p79d65ad1d4)" style="fill: none; stroke: #1f77b4; stroke-width: 1.5"/>
   </g>
   <g id="QuadContourSet_2">
    <path d="M 230.827454 62.382187 
L 230.827454 62.382187 
L 228.239329 59.743972 
L 225.651204 59.743972 
L 225.651204 59.743972 
L 223.06308 57.105756 
L 220.474955 57.105756 
L 220.474955 57.105756 
L 220.474955 54.46753 
L 220.474955 51.829315 
L 220.474955 49.191099 
L 220.474955 46.552873 
L 220.474955 46.552873 
L 223.06308 46.552873 
L 225.651204 43.914657 
L 225.651204 43.914657 
L 228.239329 43.914657 
L 230.827454 41.276442 
L 230.827454 41.276442 
L 233.415579 41.276442 
L 236.003711 41.276442 
L 238.591836 41.276442 
L 241.179961 38.638216 
L 241.179961 38.638216 
L 243.768086 38.638216 
L 246.35621 38.638216 
L 248.944335 38.638216 
L 248.944335 38.638216 
L 251.532468 41.276442 
L 254.120592 41.276442 
L 256.708717 41.276442 
L 259.296842 41.276442 
L 261.884967 41.276442 
L 264.473092 41.276442 
L 264.473092 41.276442 
L 267.061216 43.914657 
L 269.649341 43.914657 
L 272.237474 43.914657 
L 272.237474 43.914657 
L 274.825598 46.552873 
L 274.825598 46.552873 
L 277.413723 49.191099 
L 277.413723 49.191099 
L 277.413723 51.829315 
L 277.413723 51.829315 
L 274.825598 54.46753 
L 274.825598 54.46753 
L 272.237474 57.105756 
L 272.237474 57.105756 
L 269.649341 57.105756 
L 267.061216 59.743972 
L 267.061216 59.743972 
L 264.473092 59.743972 
L 261.884967 62.382187 
L 261.884967 62.382187 
L 259.296842 62.382187 
L 256.708717 62.382187 
L 254.120592 62.382187 
L 251.532468 62.382187 
L 248.944335 62.382187 
L 246.35621 62.382187 
L 243.768086 62.382187 
L 241.179961 62.382187 
L 238.591836 62.382187 
L 236.003711 62.382187 
L 233.415579 62.382187 
L 230.827454 62.382187 
z
" clip-path="url(#p79d65ad1d4)" style="fill: none; stroke: #2ca02c; stroke-width: 1.5"/>
   </g>
   <g id="line2d_5">
    <path d="M 231.958198 51.025492 
" clip-path="url(#p79d65ad1d4)" style="fill: none; stroke: #ff0000; stroke-width: 1.5; stroke-linecap: square"/>
    <defs>
     <path id="m9275b7bd5c" d="M 0 1.5 
C 0.397805 1.5 0.77937 1.341951 1.06066 1.06066 
C 1.341951 0.77937 1.5 0.397805 1.5 0 
C 1.5 -0.397805 1.341951 -0.77937 1.06066 -1.06066 
C 0.77937 -1.341951 0.397805 -1.5 0 -1.5 
C -0.397805 -1.5 -0.77937 -1.341951 -1.06066 -1.06066 
C -1.341951 -0.77937 -1.5 -0.397805 -1.5 0 
C -1.5 0.397805 -1.341951 0.77937 -1.06066 1.06066 
C -0.77937 1.341951 -0.397805 1.5 0 1.5 
z
" style="stroke: #ff0000"/>
    </defs>
    <g clip-path="url(#p79d65ad1d4)">
     <use xlink:href="#m9275b7bd5c" x="231.958198" y="51.025492" style="fill: #ff0000; stroke: #ff0000"/>
    </g>
   </g>
  </g>
  <g id="axes_3"/>
  <g id="axes_4">
   <g id="patch_7">
    <path d="M 197.181818 320.4 
L 324 320.4 
L 324 191.127273 
L 197.181818 191.127273 
z
" style="fill: #ffffff"/>
   </g>
   <g id="matplotlib.axis_5">
    <g id="xtick_7">
     <g id="line2d_6">
      <g>
       <use xlink:href="#m3ed7bc5bb8" x="222.545453" y="325.4" style="stroke: #000000; stroke-width: 0.8"/>
      </g>
     </g>
     <g id="text_5">
      <!-- 0.2 -->
      <g transform="translate(214.593891 339.998438) scale(0.1 -0.1)">
       <defs>
        <path id="DejaVuSans-2e" d="M 684 794 
L 1344 794 
L 1344 0 
L 684 0 
L 684 794 
z
" transform="scale(0.015625)"/>
       </defs>
       <use xlink:href="#DejaVuSans-30"/>
       <use xlink:href="#DejaVuSans-2e" transform="translate(63.623047 0)"/>
       <use xlink:href="#DejaVuSans-32" transform="translate(95.410156 0)"/>
      </g>
     </g>
    </g>
    <g id="xtick_8">
     <g id="line2d_7">
      <g>
       <use xlink:href="#m3ed7bc5bb8" x="273.272723" y="325.4" style="stroke: #000000; stroke-width: 0.8"/>
      </g>
     </g>
     <g id="text_6">
      <!-- 0.4 -->
      <g transform="translate(265.321161 339.998438) scale(0.1 -0.1)">
       <defs>
        <path id="DejaVuSans-34" d="M 2419 4116 
L 825 1625 
L 2419 1625 
L 2419 4116 
z
M 2253 4666 
L 3047 4666 
L 3047 1625 
L 3713 1625 
L 3713 1100 
L 3047 1100 
L 3047 0 
L 2419 0 
L 2419 1100 
L 313 1100 
L 313 1709 
L 2253 4666 
z
" transform="scale(0.015625)"/>
       </defs>
       <use xlink:href="#DejaVuSans-30"/>
       <use xlink:href="#DejaVuSans-2e" transform="translate(63.623047 0)"/>
       <use xlink:href="#DejaVuSans-34" transform="translate(95.410156 0)"/>
      </g>
     </g>
    </g>
    <g id="xtick_9">
     <g id="line2d_8">
      <g>
       <use xlink:href="#m3ed7bc5bb8" x="323.999994" y="325.4" style="stroke: #000000; stroke-width: 0.8"/>
      </g>
     </g>
     <g id="text_7">
      <!-- 0.6 -->
      <g transform="translate(316.048431 339.998438) scale(0.1 -0.1)">
       <defs>
        <path id="DejaVuSans-36" d="M 2113 2584 
Q 1688 2584 1439 2293 
Q 1191 2003 1191 1497 
Q 1191 994 1439 701 
Q 1688 409 2113 409 
Q 2538 409 2786 701 
Q 3034 994 3034 1497 
Q 3034 2003 2786 2293 
Q 2538 2584 2113 2584 
z
M 3366 4563 
L 3366 3988 
Q 3128 4100 2886 4159 
Q 2644 4219 2406 4219 
Q 1781 4219 1451 3797 
Q 1122 3375 1075 2522 
Q 1259 2794 1537 2939 
Q 1816 3084 2150 3084 
Q 2853 3084 3261 2657 
Q 3669 2231 3669 1497 
Q 3669 778 3244 343 
Q 2819 -91 2113 -91 
Q 1303 -91 875 529 
Q 447 1150 447 2328 
Q 447 3434 972 4092 
Q 1497 4750 2381 4750 
Q 2619 4750 2861 4703 
Q 3103 4656 3366 4563 
z
" transform="scale(0.015625)"/>
       </defs>
       <use xlink:href="#DejaVuSans-30"/>
       <use xlink:href="#DejaVuSans-2e" transform="translate(63.623047 0)"/>
       <use xlink:href="#DejaVuSans-36" transform="translate(95.410156 0)"/>
      </g>
     </g>
    </g>
    <g id="text_8">
     <!-- $\theta_1$ -->
     <g transform="translate(255.140909 353.676562) scale(0.1 -0.1)">
      <use xlink:href="#DejaVuSans-Oblique-3b8" transform="translate(0 0.234375)"/>
      <use xlink:href="#DejaVuSans-31" transform="translate(61.181641 -16.171875) scale(0.7)"/>
     </g>
    </g>
   </g>
   <g id="matplotlib.axis_6">
    <g id="ytick_13"/>
    <g id="ytick_14"/>
    <g id="ytick_15"/>
    <g id="ytick_16"/>
    <g id="ytick_17"/>
    <g id="ytick_18"/>
   </g>
   <g id="patch_8">
    <path d="M 198.565006 320.4 
L 198.565006 297.705644 
L 201.041729 297.705644 
L 201.041729 318.508804 
L 203.518452 318.508804 
L 203.518452 319.454402 
L 205.995177 319.454402 
L 205.995177 320.4 
L 208.471898 320.4 
L 208.471898 319.454402 
L 210.948622 319.454402 
L 210.948622 320.4 
L 213.425347 320.4 
L 213.425347 320.4 
L 215.902068 320.4 
L 215.902068 320.4 
L 218.378793 320.4 
L 218.378793 320.4 
L 220.855518 320.4 
L 220.855518 320.4 
L 223.332239 320.4 
L 223.332239 320.4 
L 225.808963 320.4 
L 225.808963 319.454402 
L 228.285688 319.454402 
L 228.285688 320.4 
L 230.762409 320.4 
L 230.762409 318.508804 
L 233.239134 318.508804 
L 233.239134 315.672009 
L 235.715851 315.672009 
L 235.715851 310.944018 
L 238.19258 310.944018 
L 238.19258 310.944018 
L 240.669308 310.944018 
L 240.669308 309.052822 
L 243.146029 309.052822 
L 243.146029 308.107224 
L 245.62275 308.107224 
L 245.62275 300.542438 
L 248.099471 300.542438 
L 248.099471 307.161625 
L 250.576192 307.161625 
L 250.576192 307.161625 
L 253.052921 307.161625 
L 253.052921 306.216027 
L 255.529642 306.216027 
L 255.529642 301.488036 
L 258.00637 301.488036 
L 258.00637 282.576073 
L 260.483091 282.576073 
L 260.483091 236.241762 
L 262.959812 236.241762 
L 262.959812 203.145826 
L 265.436533 203.145826 
L 265.436533 232.459369 
L 267.913261 232.459369 
L 267.913261 257.99052 
L 270.389982 257.99052 
L 270.389982 289.19526 
L 272.866703 289.19526 
L 272.866703 299.59684 
L 275.343432 299.59684 
L 275.343432 305.270429 
L 277.820153 305.270429 
L 277.820153 309.052822 
L 280.296874 309.052822 
L 280.296874 311.889616 
L 282.773602 311.889616 
L 282.773602 314.726411 
L 285.250323 314.726411 
L 285.250323 309.052822 
L 287.727044 309.052822 
L 287.727044 312.835215 
L 290.203773 312.835215 
L 290.203773 312.835215 
L 292.680494 312.835215 
L 292.680494 315.672009 
L 295.157215 315.672009 
L 295.157215 311.889616 
L 297.633936 311.889616 
L 297.633936 307.161625 
L 300.110657 307.161625 
L 300.110657 301.488036 
L 302.587393 301.488036 
L 302.587393 271.228895 
L 305.064099 271.228895 
L 305.064099 235.296164 
L 307.540835 235.296164 
L 307.540835 254.208127 
L 310.017556 254.208127 
L 310.017556 298.651242 
L 312.494277 298.651242 
L 312.494277 317.563205 
L 314.971013 317.563205 
L 314.971013 319.454402 
L 317.447719 319.454402 
L 317.447719 320.4 
L 319.924455 320.4 
L 319.924455 310.944018 
L 322.401176 310.944018 
L 322.401176 320.4 
" clip-path="url(#p8d9f5f418d)" style="fill: none; stroke: #1f77b4; stroke-linejoin: miter"/>
   </g>
   <g id="patch_9">
    <path d="M 211.834898 320.4 
L 211.834898 318.508804 
L 214.063784 318.508804 
L 214.063784 317.563205 
L 216.292673 317.563205 
L 216.292673 315.672009 
L 218.521563 315.672009 
L 218.521563 314.726411 
L 220.750448 314.726411 
L 220.750448 309.052822 
L 222.979334 309.052822 
L 222.979334 301.488036 
L 225.208223 301.488036 
L 225.208223 290.140858 
L 227.437113 290.140858 
L 227.437113 292.032055 
L 229.665998 292.032055 
L 229.665998 292.977653 
L 231.894884 292.977653 
L 231.894884 277.848082 
L 234.123773 277.848082 
L 234.123773 289.19526 
L 236.352663 289.19526 
L 236.352663 275.956886 
L 238.581548 275.956886 
L 238.581548 275.956886 
L 240.810434 275.956886 
L 240.810434 270.283296 
L 243.039327 270.283296 
L 243.039327 278.79368 
L 245.268213 278.79368 
L 245.268213 276.902484 
L 247.497098 276.902484 
L 247.497098 282.576073 
L 249.725984 282.576073 
L 249.725984 275.011287 
L 251.954869 275.011287 
L 251.954869 284.467269 
L 254.183763 284.467269 
L 254.183763 282.576073 
L 256.412648 282.576073 
L 256.412648 286.358465 
L 258.641534 286.358465 
L 258.641534 283.521671 
L 260.870427 283.521671 
L 260.870427 293.923251 
L 263.099312 293.923251 
L 263.099312 293.923251 
L 265.328198 293.923251 
L 265.328198 297.705644 
L 267.557084 297.705644 
L 267.557084 292.977653 
L 269.785969 292.977653 
L 269.785969 297.705644 
L 272.014862 297.705644 
L 272.014862 300.542438 
L 274.243748 300.542438 
L 274.243748 305.270429 
L 276.472634 305.270429 
L 276.472634 303.379233 
L 278.701527 303.379233 
L 278.701527 308.107224 
L 280.930412 308.107224 
L 280.930412 309.99842 
L 283.159298 309.99842 
L 283.159298 316.617607 
L 285.388184 316.617607 
L 285.388184 311.889616 
L 287.617069 311.889616 
L 287.617069 314.726411 
L 289.845962 314.726411 
L 289.845962 307.161625 
L 292.074848 307.161625 
L 292.074848 316.617607 
L 294.303734 316.617607 
L 294.303734 309.052822 
L 296.532627 309.052822 
L 296.532627 316.617607 
L 298.761505 316.617607 
L 298.761505 311.889616 
L 300.990398 311.889616 
L 300.990398 315.672009 
L 303.219291 315.672009 
L 303.219291 317.563205 
L 305.448169 317.563205 
L 305.448169 318.508804 
L 307.677062 318.508804 
L 307.677062 320.4 
L 309.90594 320.4 
L 309.90594 316.617607 
L 312.134833 316.617607 
L 312.134833 316.617607 
L 314.363727 316.617607 
L 314.363727 316.617607 
L 316.59262 316.617607 
L 316.59262 316.617607 
L 318.821498 316.617607 
L 318.821498 316.617607 
L 321.050376 316.617607 
L 321.050376 319.454402 
L 323.279269 319.454402 
L 323.279269 320.4 
" clip-path="url(#p8d9f5f418d)" style="fill: none; stroke: #2ca02c; stroke-linejoin: miter"/>
   </g>
   <g id="line2d_9">
    <path d="M 231.958198 320.4 
L 231.958198 197.283117 
" clip-path="url(#p8d9f5f418d)" style="fill: none; stroke: #ff0000; stroke-width: 1.5; stroke-linecap: square"/>
   </g>
   <g id="patch_10">
    <path d="M 197.181818 325.4 
L 324 325.4 
" style="fill: none; stroke: #000000; stroke-width: 0.8; stroke-linejoin: miter; stroke-linecap: square"/>
   </g>
  </g>
  <g id="text_9">
   <!-- simulator) -->
   <g transform="translate(139.18125 19.3575) scale(0.16 -0.16)">
    <defs>
     <path id="DejaVuSans-73" d="M 2834 3397 
L 2834 2853 
Q 2591 2978 2328 3040 
Q 2066 3103 1784 3103 
Q 1356 3103 1142 2972 
Q 928 2841 928 2578 
Q 928 2378 1081 2264 
Q 1234 2150 1697 2047 
L 1894 2003 
Q 2506 1872 2764 1633 
Q 3022 1394 3022 966 
Q 3022 478 2636 193 
Q 2250 -91 1575 -91 
Q 1294 -91 989 -36 
Q 684 19 347 128 
L 347 722 
Q 666 556 975 473 
Q 1284 391 1588 391 
Q 1994 391 2212 530 
Q 2431 669 2431 922 
Q 2431 1156 2273 1281 
Q 2116 1406 1581 1522 
L 1381 1569 
Q 847 1681 609 1914 
Q 372 2147 372 2553 
Q 372 3047 722 3315 
Q 1072 3584 1716 3584 
Q 2034 3584 2315 3537 
Q 2597 3491 2834 3397 
z
" transform="scale(0.015625)"/>
     <path id="DejaVuSans-69" d="M 603 3500 
L 1178 3500 
L 1178 0 
L 603 0 
L 603 3500 
z
M 603 4863 
L 1178 4863 
L 1178 4134 
L 603 4134 
L 603 4863 
z
" transform="scale(0.015625)"/>
     <path id="DejaVuSans-6d" d="M 3328 2828 
Q 3544 3216 3844 3400 
Q 4144 3584 4550 3584 
Q 5097 3584 5394 3201 
Q 5691 2819 5691 2113 
L 5691 0 
L 5113 0 
L 5113 2094 
Q 5113 2597 4934 2840 
Q 4756 3084 4391 3084 
Q 3944 3084 3684 2787 
Q 3425 2491 3425 1978 
L 3425 0 
L 2847 0 
L 2847 2094 
Q 2847 2600 2669 2842 
Q 2491 3084 2119 3084 
Q 1678 3084 1418 2786 
Q 1159 2488 1159 1978 
L 1159 0 
L 581 0 
L 581 3500 
L 1159 3500 
L 1159 2956 
Q 1356 3278 1631 3431 
Q 1906 3584 2284 3584 
Q 2666 3584 2933 3390 
Q 3200 3197 3328 2828 
z
" transform="scale(0.015625)"/>
     <path id="DejaVuSans-75" d="M 544 1381 
L 544 3500 
L 1119 3500 
L 1119 1403 
Q 1119 906 1312 657 
Q 1506 409 1894 409 
Q 2359 409 2629 706 
Q 2900 1003 2900 1516 
L 2900 3500 
L 3475 3500 
L 3475 0 
L 2900 0 
L 2900 538 
Q 2691 219 2414 64 
Q 2138 -91 1772 -91 
Q 1169 -91 856 284 
Q 544 659 544 1381 
z
M 1991 3584 
L 1991 3584 
z
" transform="scale(0.015625)"/>
     <path id="DejaVuSans-6c" d="M 603 4863 
L 1178 4863 
L 1178 0 
L 603 0 
L 603 4863 
z
" transform="scale(0.015625)"/>
     <path id="DejaVuSans-61" d="M 2194 1759 
Q 1497 1759 1228 1600 
Q 959 1441 959 1056 
Q 959 750 1161 570 
Q 1363 391 1709 391 
Q 2188 391 2477 730 
Q 2766 1069 2766 1631 
L 2766 1759 
L 2194 1759 
z
M 3341 1997 
L 3341 0 
L 2766 0 
L 2766 531 
Q 2569 213 2275 61 
Q 1981 -91 1556 -91 
Q 1019 -91 701 211 
Q 384 513 384 1019 
Q 384 1609 779 1909 
Q 1175 2209 1959 2209 
L 2766 2209 
L 2766 2266 
Q 2766 2663 2505 2880 
Q 2244 3097 1772 3097 
Q 1472 3097 1187 3025 
Q 903 2953 641 2809 
L 641 3341 
Q 956 3463 1253 3523 
Q 1550 3584 1831 3584 
Q 2591 3584 2966 3190 
Q 3341 2797 3341 1997 
z
" transform="scale(0.015625)"/>
     <path id="DejaVuSans-74" d="M 1172 4494 
L 1172 3500 
L 2356 3500 
L 2356 3053 
L 1172 3053 
L 1172 1153 
Q 1172 725 1289 603 
Q 1406 481 1766 481 
L 2356 481 
L 2356 0 
L 1766 0 
Q 1100 0 847 248 
Q 594 497 594 1153 
L 594 3053 
L 172 3053 
L 172 3500 
L 594 3500 
L 594 4494 
L 1172 4494 
z
" transform="scale(0.015625)"/>
     <path id="DejaVuSans-6f" d="M 1959 3097 
Q 1497 3097 1228 2736 
Q 959 2375 959 1747 
Q 959 1119 1226 758 
Q 1494 397 1959 397 
Q 2419 397 2687 759 
Q 2956 1122 2956 1747 
Q 2956 2369 2687 2733 
Q 2419 3097 1959 3097 
z
M 1959 3584 
Q 2709 3584 3137 3096 
Q 3566 2609 3566 1747 
Q 3566 888 3137 398 
Q 2709 -91 1959 -91 
Q 1206 -91 779 398 
Q 353 888 353 1747 
Q 353 2609 779 3096 
Q 1206 3584 1959 3584 
z
" transform="scale(0.015625)"/>
     <path id="DejaVuSans-72" d="M 2631 2963 
Q 2534 3019 2420 3045 
Q 2306 3072 2169 3072 
Q 1681 3072 1420 2755 
Q 1159 2438 1159 1844 
L 1159 0 
L 581 0 
L 581 3500 
L 1159 3500 
L 1159 2956 
Q 1341 3275 1631 3429 
Q 1922 3584 2338 3584 
Q 2397 3584 2469 3576 
Q 2541 3569 2628 3553 
L 2631 2963 
z
" transform="scale(0.015625)"/>
     <path id="DejaVuSans-29" d="M 513 4856 
L 1013 4856 
Q 1481 4119 1714 3412 
Q 1947 2706 1947 2009 
Q 1947 1309 1714 600 
Q 1481 -109 1013 -844 
L 513 -844 
Q 928 -128 1133 580 
Q 1338 1288 1338 2009 
Q 1338 2731 1133 3434 
Q 928 4138 513 4856 
z
" transform="scale(0.015625)"/>
    </defs>
    <use xlink:href="#DejaVuSans-73"/>
    <use xlink:href="#DejaVuSans-69" transform="translate(52.099609 0)"/>
    <use xlink:href="#DejaVuSans-6d" transform="translate(79.882812 0)"/>
    <use xlink:href="#DejaVuSans-75" transform="translate(177.294922 0)"/>
    <use xlink:href="#DejaVuSans-6c" transform="translate(240.673828 0)"/>
    <use xlink:href="#DejaVuSans-61" transform="translate(268.457031 0)"/>
    <use xlink:href="#DejaVuSans-74" transform="translate(329.736328 0)"/>
    <use xlink:href="#DejaVuSans-6f" transform="translate(368.945312 0)"/>
    <use xlink:href="#DejaVuSans-72" transform="translate(430.126953 0)"/>
    <use xlink:href="#DejaVuSans-29" transform="translate(471.240234 0)"/>
   </g>
  </g>
 </g>
 <defs>
  <clipPath id="p74fee26014">
   <rect x="45" y="36" width="126.818182" height="129.272727"/>
  </clipPath>
  <clipPath id="p79d65ad1d4">
   <rect x="197.181818" y="36" width="126.818182" height="129.272727"/>
  </clipPath>
  <clipPath id="p8d9f5f418d">
   <rect x="197.181818" y="191.127273" width="126.818182" height="129.272727"/>
  </clipPath>
 </defs>
</svg>
