<?xml version="1.0" encoding="utf-8" standalone="no"?>
<!DOCTYPE svg PUBLIC "-//W3C//DTD SVG 1.1//EN"
  "http://www.w3.org/Graphics/SVG/1.1/DTD/svg11.dtd">
<svg xmlns:xlink="http://www.w3.org/1999/xlink" width="360pt" height="360pt" viewBox="0 0 360 360" xmlns="http://www.w3.org/2000/svg" version="1.1">
 <metadata>
  <rdf:RDF xmlns:dc="http://purl.org/dc/elements/1.1/" xmlns:cc="http://creativecommons.org/ns#" xmlns:rdf="http://www.w3.org/1999/02/22-rdf-syntax-ns#">
   <cc:Work>
    <dc:type rdf:resource="http://purl.org/dc/dcmitype/StillImage"/>
    <dc:date>2025-09-25T12:55:44.134146</dc:date>
    <dc:format>image/svg+xml</dc:format>
    <dc:creator>
     <cc:Agent>
      <dc:title>Matplotlib v3.10.6, https://matplotlib.org/</dc:title>
     </cc:Agent>
    </dc:creator>
   </cc:Work>
  </rdf:RDF>
 </metadata>
 <defs>
  <style type="text/css">*{stroke-linejoin: round; stroke-linecap: butt}</style>
 </defs>
 <g id="figure_1">
  <g id="patch_1">
   <path d="M 0 360 
L 360 360 
L 360 0 
L 0 0 
z
" style="fill: #ffffff"/>
  </g>
  <g id="axes_1">
   <g id="patch_2">
    <path d="M 45 165.272727 
L 171.818182 165.272727 
L 171.818182 36 
L 45 36 
z
" style="fill: #ffffff"/>
   </g>
   <g id="matplotlib.axis_1">
    <g id="xtick_1">
     <g id="line2d_1">
      <defs>
       <path id="m282a3350d0" d="M 0 0 
L 0 3.5 
" style="stroke: #000000; stroke-width: 0.8"/>
      </defs>
      <g>
       <use xlink:href="#m282a3350d0" x="84.357367" y="170.272727" style="stroke: #000000; stroke-width: 0.8"/>
      </g>
     </g>
     <g id="text_1">
      <!-- 1 -->
      <g transform="translate(81.176117 184.871165) scale(0.1 -0.1)">
       <defs>
        <path id="DejaVuSans-31" d="M 794 531 
L 1825 531 
L 1825 4091 
L 703 3866 
L 703 4441 
L 1819 4666 
L 2450 4666 
L 2450 531 
L 3481 531 
L 3481 0 
L 794 0 
L 794 531 
z
" transform="scale(0.015625)"/>
       </defs>
       <use xlink:href="#DejaVuSans-31"/>
      </g>
     </g>
    </g>
    <g id="xtick_2">
     <g id="line2d_2">
      <g>
       <use xlink:href="#m282a3350d0" x="128.087774" y="170.272727" style="stroke: #000000; stroke-width: 0.8"/>
      </g>
     </g>
     <g id="text_2">
      <!-- 2 -->
      <g transform="translate(124.906524 184.871165) scale(0.1 -0.1)">
       <defs>
        <path id="DejaVuSans-32" d="M 1228 531 
L 3431 531 
L 3431 0 
L 469 0 
L 469 531 
Q 828 903 1448 1529 
Q 2069 2156 2228 2338 
Q 2531 2678 2651 2914 
Q 2772 3150 2772 3378 
Q 2772 3750 2511 3984 
Q 2250 4219 1831 4219 
Q 1534 4219 1204 4116 
Q 875 4013 500 3803 
L 500 4441 
Q 881 4594 1212 4672 
Q 1544 4750 1819 4750 
Q 2544 4750 2975 4387 
Q 3406 4025 3406 3419 
Q 3406 3131 3298 2873 
Q 3191 2616 2906 2266 
Q 2828 2175 2409 1742 
Q 1991 1309 1228 531 
z
" transform="scale(0.015625)"/>
       </defs>
       <use xlink:href="#DejaVuSans-32"/>
      </g>
     </g>
    </g>
    <g id="xtick_3">
     <g id="line2d_3">
      <g>
       <use xlink:href="#m282a3350d0" x="171.818182" y="170.272727" style="stroke: #000000; stroke-width: 0.8"/>
      </g>
     </g>
     <g id="text_3">
      <!-- 3 -->
      <g transform="translate(168.636932 184.871165) scale(0.1 -0.1)">
       <defs>
        <path id="DejaVuSans-33" d="M 2597 2516 
Q 3050 2419 3304 2112 
Q 3559 1806 3559 1356 
Q 3559 666 3084 287 
Q 2609 -91 1734 -91 
Q 1441 -91 1130 -33 
Q 819 25 488 141 
L 488 750 
Q 750 597 1062 519 
Q 1375 441 1716 441 
Q 2309 441 2620 675 
Q 2931 909 2931 1356 
Q 2931 1769 2642 2001 
Q 2353 2234 1838 2234 
L 1294 2234 
L 1294 2753 
L 1863 2753 
Q 2328 2753 2575 2939 
Q 2822 3125 2822 3475 
Q 2822 3834 2567 4026 
Q 2313 4219 1838 4219 
Q 1578 4219 1281 4162 
Q 984 4106 628 3988 
L 628 4550 
Q 988 4650 1302 4700 
Q 1616 4750 1894 4750 
Q 2613 4750 3031 4423 
Q 3450 4097 3450 3541 
Q 3450 3153 3228 2886 
Q 3006 2619 2597 2516 
z
" transform="scale(0.015625)"/>
       </defs>
       <use xlink:href="#DejaVuSans-33"/>
      </g>
     </g>
    </g>
    <g id="text_4">
     <!-- $\theta_0$ -->
     <g transform="translate(102.959091 198.54929) scale(0.1 -0.1)">
      <defs>
       <path id="DejaVuSans-Oblique-3b8" d="M 2913 2219 
L 925 2219 
Q 791 1284 928 888 
Q 1100 400 1566 400 
Q 2034 400 2391 891 
Q 2703 1322 2913 2219 
z
M 3009 2750 
Q 3094 3638 2984 3950 
Q 2813 4444 2353 4444 
Q 1875 4444 1525 3956 
Q 1250 3563 1034 2750 
L 3009 2750 
z
M 2444 4913 
Q 3194 4913 3494 4250 
Q 3794 3591 3566 2422 
Q 3341 1256 2781 594 
Q 2225 -72 1475 -72 
Q 722 -72 425 594 
Q 128 1256 353 2422 
Q 581 3591 1134 4250 
Q 1691 4913 2444 4913 
z
" transform="scale(0.015625)"/>
       <path id="DejaVuSans-30" d="M 2034 4250 
Q 1547 4250 1301 3770 
Q 1056 3291 1056 2328 
Q 1056 1369 1301 889 
Q 1547 409 2034 409 
Q 2525 409 2770 889 
Q 3016 1369 3016 2328 
Q 3016 3291 2770 3770 
Q 2525 4250 2034 4250 
z
M 2034 4750 
Q 2819 4750 3233 4129 
Q 3647 3509 3647 2328 
Q 3647 1150 3233 529 
Q 2819 -91 2034 -91 
Q 1250 -91 836 529 
Q 422 1150 422 2328 
Q 422 3509 836 4129 
Q 1250 4750 2034 4750 
z
" transform="scale(0.015625)"/>
      </defs>
      <use xlink:href="#DejaVuSans-Oblique-3b8" transform="translate(0 0.234375)"/>
      <use xlink:href="#DejaVuSans-30" transform="translate(61.181641 -16.171875) scale(0.7)"/>
     </g>
    </g>
   </g>
   <g id="matplotlib.axis_2">
    <g id="ytick_1"/>
    <g id="ytick_2"/>
    <g id="ytick_3"/>
    <g id="ytick_4"/>
    <g id="ytick_5"/>
   </g>
   <g id="patch_3">
    <path d="M 48.837078 165.272727 
L 48.837078 164.686456 
L 51.258025 164.686456 
L 51.258025 164.686456 
L 53.678971 164.686456 
L 53.678971 164.100186 
L 56.099919 164.100186 
L 56.099919 165.272727 
L 58.520865 165.272727 
L 58.520865 165.272727 
L 60.941813 165.272727 
L 60.941813 165.272727 
L 63.362759 165.272727 
L 63.362759 163.513915 
L 65.783706 163.513915 
L 65.783706 164.686456 
L 68.204651 164.686456 
L 68.204651 165.272727 
L 70.625601 165.272727 
L 70.625601 165.272727 
L 73.046546 165.272727 
L 73.046546 164.686456 
L 75.467491 164.686456 
L 75.467491 164.686456 
L 77.888441 164.686456 
L 77.888441 165.272727 
L 80.309386 165.272727 
L 80.309386 165.272727 
L 82.730331 165.272727 
L 82.730331 165.272727 
L 85.151281 165.272727 
L 85.151281 165.272727 
L 87.572226 165.272727 
L 87.572226 165.272727 
L 89.993176 165.272727 
L 89.993176 165.272727 
L 92.414121 165.272727 
L 92.414121 164.686456 
L 94.835066 164.686456 
L 94.835066 164.100186 
L 97.256016 164.100186 
L 97.256016 165.272727 
L 99.676961 165.272727 
L 99.676961 165.272727 
L 102.097905 165.272727 
L 102.097905 164.686456 
L 104.518856 164.686456 
L 104.518856 165.272727 
L 106.9398 165.272727 
L 106.9398 163.513915 
L 109.360745 163.513915 
L 109.360745 162.927644 
L 111.781695 162.927644 
L 111.781695 163.513915 
L 114.20264 163.513915 
L 114.20264 164.100186 
L 116.623585 164.100186 
L 116.623585 161.755102 
L 119.044535 161.755102 
L 119.044535 164.100186 
L 121.46548 164.100186 
L 121.46548 162.927644 
L 123.88643 162.927644 
L 123.88643 162.341373 
L 126.307375 162.341373 
L 126.307375 164.686456 
L 128.728325 164.686456 
L 128.728325 162.927644 
L 131.149275 162.927644 
L 131.149275 159.996289 
L 133.570215 159.996289 
L 133.570215 160.58256 
L 135.991165 160.58256 
L 135.991165 155.892393 
L 138.412105 155.892393 
L 138.412105 153.54731 
L 140.833055 153.54731 
L 140.833055 150.615955 
L 143.254005 150.615955 
L 143.254005 144.166976 
L 145.674955 144.166976 
L 145.674955 135.959184 
L 148.095895 135.959184 
L 148.095895 107.818182 
L 150.516845 107.818182 
L 150.516845 48.018553 
L 152.937795 48.018553 
L 152.937795 68.538033 
L 155.358734 68.538033 
L 155.358734 122.474954 
L 157.779684 122.474954 
L 157.779684 140.06308 
L 160.200635 140.06308 
L 160.200635 141.235622 
L 162.621574 141.235622 
L 162.621574 139.476809 
L 165.042524 139.476809 
L 165.042524 133.027829 
L 167.463474 133.027829 
L 167.463474 124.820037 
L 169.884414 124.820037 
L 169.884414 165.272727 
" clip-path="url(#pde98568a57)" style="fill: none; stroke: #1f77b4; stroke-linejoin: miter"/>
   </g>
   <g id="patch_4">
    <path d="M 122.91634 165.272727 
L 122.91634 164.686456 
L 123.893405 164.686456 
L 123.893405 165.272727 
L 124.87047 165.272727 
L 124.87047 165.272727 
L 125.847535 165.272727 
L 125.847535 165.272727 
L 126.8246 165.272727 
L 126.8246 165.272727 
L 127.801665 165.272727 
L 127.801665 165.272727 
L 128.778736 165.272727 
L 128.778736 162.927644 
L 129.755801 162.927644 
L 129.755801 164.100186 
L 130.732866 164.100186 
L 130.732866 164.686456 
L 131.709931 164.686456 
L 131.709931 164.686456 
L 132.686996 164.686456 
L 132.686996 165.272727 
L 133.664061 165.272727 
L 133.664061 163.513915 
L 134.641126 163.513915 
L 134.641126 163.513915 
L 135.618191 163.513915 
L 135.618191 163.513915 
L 136.595256 163.513915 
L 136.595256 164.686456 
L 137.572321 164.686456 
L 137.572321 161.755102 
L 138.549386 161.755102 
L 138.549386 157.064935 
L 139.526451 157.064935 
L 139.526451 161.168831 
L 140.503516 161.168831 
L 140.503516 158.237477 
L 141.480581 158.237477 
L 141.480581 159.996289 
L 142.457646 159.996289 
L 142.457646 156.478664 
L 143.434711 156.478664 
L 143.434711 157.651206 
L 144.411776 157.651206 
L 144.411776 157.064935 
L 145.388841 157.064935 
L 145.388841 152.961039 
L 146.365906 152.961039 
L 146.365906 147.09833 
L 147.342971 147.09833 
L 147.342971 144.753247 
L 148.320036 144.753247 
L 148.320036 153.54731 
L 149.297101 153.54731 
L 149.297101 141.235622 
L 150.274166 141.235622 
L 150.274166 137.131725 
L 151.251231 137.131725 
L 151.251231 144.166976 
L 152.228296 144.166976 
L 152.228296 142.408163 
L 153.205361 142.408163 
L 153.205361 145.339518 
L 154.182426 145.339518 
L 154.182426 143.580705 
L 155.159491 143.580705 
L 155.159491 141.821892 
L 156.136556 141.821892 
L 156.136556 138.304267 
L 157.113621 138.304267 
L 157.113621 138.890538 
L 158.090686 138.890538 
L 158.090686 139.476809 
L 159.067751 139.476809 
L 159.067751 140.06308 
L 160.044816 140.06308 
L 160.044816 133.6141 
L 161.021881 133.6141 
L 161.021881 139.476809 
L 161.998946 139.476809 
L 161.998946 144.166976 
L 162.976011 144.166976 
L 162.976011 150.029685 
L 163.953076 150.029685 
L 163.953076 150.615955 
L 164.930141 150.615955 
L 164.930141 147.684601 
L 165.907206 147.684601 
L 165.907206 146.512059 
L 166.884271 146.512059 
L 166.884271 151.788497 
L 167.861336 151.788497 
L 167.861336 153.54731 
L 168.838401 153.54731 
L 168.838401 159.410019 
L 169.815466 159.410019 
L 169.815466 157.651206 
L 170.792531 157.651206 
L 170.792531 154.719852 
L 171.769596 154.719852 
L 171.769596 165.272727 
" clip-path="url(#pde98568a57)" style="fill: none; stroke: #2ca02c; stroke-linejoin: miter"/>
   </g>
   <g id="line2d_4">
    <path d="M 157.077984 165.272727 
L 157.077984 42.155844 
" clip-path="url(#pde98568a57)" style="fill: none; stroke: #ff0000; stroke-width: 1.5; stroke-linecap: square"/>
   </g>
   <g id="patch_5">
    <path d="M 45 170.272727 
L 171.818182 170.272727 
" style="fill: none; stroke: #000000; stroke-width: 0.8; stroke-linejoin: miter; stroke-linecap: square"/>
   </g>
  </g>
  <g id="axes_2">
   <g id="patch_6">
    <path d="M 197.181818 165.272727 
L 324 165.272727 
L 324 36 
L 197.181818 36 
z
" style="fill: #ffffff"/>
   </g>
   <g id="matplotlib.axis_3">
    <g id="xtick_4"/>
    <g id="xtick_5"/>
    <g id="xtick_6"/>
   </g>
   <g id="matplotlib.axis_4">
    <g id="ytick_6"/>
    <g id="ytick_7"/>
    <g id="ytick_8"/>
    <g id="ytick_9"/>
    <g id="ytick_10"/>
    <g id="ytick_11"/>
   </g>
   <g id="QuadContourSet_1">
    <path d="M 324 59.743972 
L 321.411875 59.743972 
L 318.823735 62.382187 
L 318.823735 62.382187 
L 316.23561 62.382187 
L 313.647486 65.020413 
L 313.647486 65.020413 
L 311.059361 65.020413 
L 308.471236 65.020413 
L 305.883111 65.020413 
L 303.294986 65.020413 
L 300.706862 65.020413 
L 298.118729 65.020413 
L 295.530604 65.020413 
L 292.94248 65.020413 
L 290.354355 65.020413 
L 287.766222 65.020413 
L 287.766222 65.020413 
L 285.178098 62.382187 
L 282.589973 62.382187 
L 280.001848 62.382187 
L 277.413723 62.382187 
L 274.825598 62.382187 
L 272.237474 62.382187 
L 269.649341 62.382187 
L 267.061216 62.382187 
L 264.473092 62.382187 
L 261.884967 62.382187 
L 259.296842 62.382187 
L 256.708717 62.382187 
L 254.120592 62.382187 
L 251.532468 62.382187 
L 248.944335 62.382187 
L 246.35621 62.382187 
L 243.768086 62.382187 
L 241.179961 62.382187 
L 238.591836 62.382187 
L 236.003711 62.382187 
L 233.415579 62.382187 
L 230.827454 62.382187 
L 228.239329 62.382187 
L 228.239329 62.382187 
L 225.651204 59.743972 
L 223.06308 59.743972 
L 220.474955 59.743972 
L 220.474955 59.743972 
L 217.886826 57.105756 
L 215.298698 57.105756 
L 215.298698 57.105756 
L 215.298698 57.105756 
L 217.886826 54.46753 
L 217.886826 54.46753 
L 220.474955 54.46753 
L 223.06308 51.829315 
L 223.06308 51.829315 
L 225.651204 51.829315 
L 228.239329 51.829315 
L 230.827454 49.191099 
L 230.827454 49.191099 
L 233.415579 49.191099 
L 236.003711 49.191099 
L 238.591836 46.552873 
L 238.591836 46.552873 
L 241.179961 46.552873 
L 243.768086 46.552873 
L 246.35621 46.552873 
L 248.944335 43.914657 
L 248.944335 43.914657 
L 251.532468 43.914657 
L 254.120592 43.914657 
L 256.708717 43.914657 
L 259.296842 43.914657 
L 261.884967 43.914657 
L 264.473092 43.914657 
L 267.061216 43.914657 
L 267.061216 43.914657 
L 269.649341 46.552873 
L 272.237474 46.552873 
L 274.825598 46.552873 
L 277.413723 46.552873 
L 280.001848 46.552873 
L 282.589973 46.552873 
L 285.178098 43.914657 
L 285.178098 43.914657 
L 287.766222 43.914657 
L 290.354355 41.276442 
L 290.354355 41.276442 
L 292.94248 41.276442 
L 295.530604 41.276442 
L 298.118729 38.638216 
L 298.118729 38.638216 
L 300.706862 38.638216 
L 303.294986 38.638216 
L 305.883111 38.638216 
L 308.471236 38.638216 
L 311.059361 38.638216 
L 311.059361 38.638216 
L 313.647486 41.276442 
L 316.23561 41.276442 
L 316.23561 41.276442 
L 318.823735 43.914657 
L 318.823735 43.914657 
L 318.823735 46.552873 
L 321.411875 49.191099 
L 321.411875 49.191099 
L 324 51.829315 
" clip-path="url(#p09c10480fb)" style="fill: none; stroke: #1f77b4; stroke-width: 1.5"/>
   </g>
   <g id="QuadContourSet_2">
    <path d="M 243.768086 65.020413 
L 243.768086 65.020413 
L 241.179961 62.382187 
L 238.591836 62.382187 
L 236.003711 62.382187 
L 236.003711 62.382187 
L 233.415579 59.743972 
L 230.827454 59.743972 
L 228.239329 59.743972 
L 225.651204 59.743972 
L 225.651204 59.743972 
L 223.06308 57.105756 
L 220.474955 57.105756 
L 220.474955 57.105756 
L 220.474955 54.46753 
L 217.886826 51.829315 
L 217.886826 51.829315 
L 217.886826 49.191099 
L 217.886826 49.191099 
L 220.474955 46.552873 
L 220.474955 46.552873 
L 223.06308 43.914657 
L 223.06308 43.914657 
L 225.651204 43.914657 
L 228.239329 41.276442 
L 228.239329 41.276442 
L 230.827454 41.276442 
L 233.415579 41.276442 
L 236.003711 41.276442 
L 238.591836 41.276442 
L 241.179961 38.638216 
L 241.179961 38.638216 
L 243.768086 38.638216 
L 246.35621 38.638216 
L 248.944335 38.638216 
L 248.944335 38.638216 
L 251.532468 41.276442 
L 254.120592 41.276442 
L 256.708717 41.276442 
L 259.296842 41.276442 
L 261.884967 41.276442 
L 264.473092 41.276442 
L 267.061216 41.276442 
L 269.649341 41.276442 
L 269.649341 41.276442 
L 272.237474 43.914657 
L 274.825598 43.914657 
L 274.825598 43.914657 
L 274.825598 46.552873 
L 274.825598 49.191099 
L 274.825598 49.191099 
L 272.237474 51.829315 
L 272.237474 54.46753 
L 274.825598 57.105756 
L 274.825598 57.105756 
L 274.825598 59.743972 
L 274.825598 59.743972 
L 272.237474 59.743972 
L 269.649341 62.382187 
L 269.649341 62.382187 
L 267.061216 62.382187 
L 264.473092 62.382187 
L 261.884967 62.382187 
L 259.296842 62.382187 
L 256.708717 62.382187 
L 254.120592 62.382187 
L 251.532468 62.382187 
L 248.944335 65.020413 
L 248.944335 65.020413 
L 246.35621 65.020413 
L 243.768086 65.020413 
z
" clip-path="url(#p09c10480fb)" style="fill: none; stroke: #2ca02c; stroke-width: 1.5"/>
   </g>
   <g id="line2d_5">
    <path d="M 231.958198 51.025492 
" clip-path="url(#p09c10480fb)" style="fill: none; stroke: #ff0000; stroke-width: 1.5; stroke-linecap: square"/>
    <defs>
     <path id="m1905b91e88" d="M 0 1.5 
C 0.397805 1.5 0.77937 1.341951 1.06066 1.06066 
C 1.341951 0.77937 1.5 0.397805 1.5 0 
C 1.5 -0.397805 1.341951 -0.77937 1.06066 -1.06066 
C 0.77937 -1.341951 0.397805 -1.5 0 -1.5 
C -0.397805 -1.5 -0.77937 -1.341951 -1.06066 -1.06066 
C -1.341951 -0.77937 -1.5 -0.397805 -1.5 0 
C -1.5 0.397805 -1.341951 0.77937 -1.06066 1.06066 
C -0.77937 1.341951 -0.397805 1.5 0 1.5 
z
" style="stroke: #ff0000"/>
    </defs>
    <g clip-path="url(#p09c10480fb)">
     <use xlink:href="#m1905b91e88" x="231.958198" y="51.025492" style="fill: #ff0000; stroke: #ff0000"/>
    </g>
   </g>
  </g>
  <g id="axes_3"/>
  <g id="axes_4">
   <g id="patch_7">
    <path d="M 197.181818 320.4 
L 324 320.4 
L 324 191.127273 
L 197.181818 191.127273 
z
" style="fill: #ffffff"/>
   </g>
   <g id="matplotlib.axis_5">
    <g id="xtick_7">
     <g id="line2d_6">
      <g>
       <use xlink:href="#m282a3350d0" x="222.545453" y="325.4" style="stroke: #000000; stroke-width: 0.8"/>
      </g>
     </g>
     <g id="text_5">
      <!-- 0.2 -->
      <g transform="translate(214.593891 339.998438) scale(0.1 -0.1)">
       <defs>
        <path id="DejaVuSans-2e" d="M 684 794 
L 1344 794 
L 1344 0 
L 684 0 
L 684 794 
z
" transform="scale(0.015625)"/>
       </defs>
       <use xlink:href="#DejaVuSans-30"/>
       <use xlink:href="#DejaVuSans-2e" transform="translate(63.623047 0)"/>
       <use xlink:href="#DejaVuSans-32" transform="translate(95.410156 0)"/>
      </g>
     </g>
    </g>
    <g id="xtick_8">
     <g id="line2d_7">
      <g>
       <use xlink:href="#m282a3350d0" x="273.272723" y="325.4" style="stroke: #000000; stroke-width: 0.8"/>
      </g>
     </g>
     <g id="text_6">
      <!-- 0.4 -->
      <g transform="translate(265.321161 339.998438) scale(0.1 -0.1)">
       <defs>
        <path id="DejaVuSans-34" d="M 2419 4116 
L 825 1625 
L 2419 1625 
L 2419 4116 
z
M 2253 4666 
L 3047 4666 
L 3047 1625 
L 3713 1625 
L 3713 1100 
L 3047 1100 
L 3047 0 
L 2419 0 
L 2419 1100 
L 313 1100 
L 313 1709 
L 2253 4666 
z
" transform="scale(0.015625)"/>
       </defs>
       <use xlink:href="#DejaVuSans-30"/>
       <use xlink:href="#DejaVuSans-2e" transform="translate(63.623047 0)"/>
       <use xlink:href="#DejaVuSans-34" transform="translate(95.410156 0)"/>
      </g>
     </g>
    </g>
    <g id="xtick_9">
     <g id="line2d_8">
      <g>
       <use xlink:href="#m282a3350d0" x="323.999994" y="325.4" style="stroke: #000000; stroke-width: 0.8"/>
      </g>
     </g>
     <g id="text_7">
      <!-- 0.6 -->
      <g transform="translate(316.048431 339.998438) scale(0.1 -0.1)">
       <defs>
        <path id="DejaVuSans-36" d="M 2113 2584 
Q 1688 2584 1439 2293 
Q 1191 2003 1191 1497 
Q 1191 994 1439 701 
Q 1688 409 2113 409 
Q 2538 409 2786 701 
Q 3034 994 3034 1497 
Q 3034 2003 2786 2293 
Q 2538 2584 2113 2584 
z
M 3366 4563 
L 3366 3988 
Q 3128 4100 2886 4159 
Q 2644 4219 2406 4219 
Q 1781 4219 1451 3797 
Q 1122 3375 1075 2522 
Q 1259 2794 1537 2939 
Q 1816 3084 2150 3084 
Q 2853 3084 3261 2657 
Q 3669 2231 3669 1497 
Q 3669 778 3244 343 
Q 2819 -91 2113 -91 
Q 1303 -91 875 529 
Q 447 1150 447 2328 
Q 447 3434 972 4092 
Q 1497 4750 2381 4750 
Q 2619 4750 2861 4703 
Q 3103 4656 3366 4563 
z
" transform="scale(0.015625)"/>
       </defs>
       <use xlink:href="#DejaVuSans-30"/>
       <use xlink:href="#DejaVuSans-2e" transform="translate(63.623047 0)"/>
       <use xlink:href="#DejaVuSans-36" transform="translate(95.410156 0)"/>
      </g>
     </g>
    </g>
    <g id="text_8">
     <!-- $\theta_1$ -->
     <g transform="translate(255.140909 353.676562) scale(0.1 -0.1)">
      <use xlink:href="#DejaVuSans-Oblique-3b8" transform="translate(0 0.234375)"/>
      <use xlink:href="#DejaVuSans-31" transform="translate(61.181641 -16.171875) scale(0.7)"/>
     </g>
    </g>
   </g>
   <g id="matplotlib.axis_6">
    <g id="ytick_12"/>
    <g id="ytick_13"/>
    <g id="ytick_14"/>
    <g id="ytick_15"/>
   </g>
   <g id="patch_8">
    <path d="M 198.567363 320.4 
L 198.567363 235.296164 
L 200.983066 235.296164 
L 200.983066 297.705644 
L 203.398767 297.705644 
L 203.398767 307.161625 
L 205.814472 307.161625 
L 205.814472 309.052822 
L 208.230174 309.052822 
L 208.230174 318.508804 
L 210.645875 318.508804 
L 210.645875 318.508804 
L 213.06158 318.508804 
L 213.06158 310.944018 
L 215.477282 310.944018 
L 215.477282 320.4 
L 217.892983 320.4 
L 217.892983 312.835215 
L 220.308688 312.835215 
L 220.308688 305.270429 
L 222.724393 305.270429 
L 222.724393 303.379233 
L 225.140091 303.379233 
L 225.140091 297.705644 
L 227.555796 297.705644 
L 227.555796 292.032055 
L 229.971501 292.032055 
L 229.971501 280.684876 
L 232.387198 280.684876 
L 232.387198 278.79368 
L 234.802904 278.79368 
L 234.802904 276.902484 
L 237.218609 276.902484 
L 237.218609 273.120091 
L 239.634306 273.120091 
L 239.634306 297.705644 
L 242.050011 297.705644 
L 242.050011 292.032055 
L 244.465716 292.032055 
L 244.465716 293.923251 
L 246.881421 293.923251 
L 246.881421 280.684876 
L 249.297119 280.684876 
L 249.297119 292.032055 
L 251.712824 292.032055 
L 251.712824 292.032055 
L 254.128529 292.032055 
L 254.128529 273.120091 
L 256.544227 273.120091 
L 256.544227 267.446502 
L 258.959932 267.446502 
L 258.959932 282.576073 
L 261.375637 282.576073 
L 261.375637 288.249662 
L 263.791342 288.249662 
L 263.791342 271.228895 
L 266.20704 271.228895 
L 266.20704 282.576073 
L 268.622745 282.576073 
L 268.622745 275.011287 
L 271.03845 275.011287 
L 271.03845 282.576073 
L 273.454147 282.576073 
L 273.454147 295.814447 
L 275.869853 295.814447 
L 275.869853 290.140858 
L 278.285558 290.140858 
L 278.285558 303.379233 
L 280.701255 303.379233 
L 280.701255 293.923251 
L 283.11696 293.923251 
L 283.11696 299.59684 
L 285.532665 299.59684 
L 285.532665 292.032055 
L 287.948363 292.032055 
L 287.948363 286.358465 
L 290.364068 286.358465 
L 290.364068 290.140858 
L 292.779773 290.140858 
L 292.779773 293.923251 
L 295.195478 293.923251 
L 295.195478 278.79368 
L 297.611176 278.79368 
L 297.611176 263.664109 
L 300.026873 263.664109 
L 300.026873 231.513771 
L 302.442578 231.513771 
L 302.442578 222.057789 
L 304.858284 222.057789 
L 304.858284 203.145826 
L 307.273989 203.145826 
L 307.273989 205.037022 
L 309.689694 205.037022 
L 309.689694 237.18736 
L 312.105384 237.18736 
L 312.105384 240.969753 
L 314.521089 240.969753 
L 314.521089 286.358465 
L 316.936794 286.358465 
L 316.936794 305.270429 
L 319.352499 305.270429 
L 319.352499 320.4 
" clip-path="url(#p12597b0304)" style="fill: none; stroke: #1f77b4; stroke-linejoin: miter"/>
   </g>
   <g id="patch_9">
    <path d="M 210.116446 320.4 
L 210.116446 318.508804 
L 212.379169 318.508804 
L 212.379169 316.617607 
L 214.641889 316.617607 
L 214.641889 318.508804 
L 216.904612 318.508804 
L 216.904612 307.161625 
L 219.167332 307.161625 
L 219.167332 293.923251 
L 221.430055 293.923251 
L 221.430055 284.467269 
L 223.692778 284.467269 
L 223.692778 276.902484 
L 225.955498 276.902484 
L 225.955498 250.425735 
L 228.218217 250.425735 
L 228.218217 265.555306 
L 230.48094 265.555306 
L 230.48094 248.534538 
L 232.743663 248.534538 
L 232.743663 248.534538 
L 235.006383 248.534538 
L 235.006383 237.18736 
L 237.26911 237.18736 
L 237.26911 235.296164 
L 239.531829 235.296164 
L 239.531829 235.296164 
L 241.794549 235.296164 
L 241.794549 227.731378 
L 244.057268 227.731378 
L 244.057268 218.275396 
L 246.319988 218.275396 
L 246.319988 225.840182 
L 248.582715 225.840182 
L 248.582715 254.208127 
L 250.845434 254.208127 
L 250.845434 257.99052 
L 253.108154 257.99052 
L 253.108154 250.425735 
L 255.370881 250.425735 
L 255.370881 250.425735 
L 257.6336 250.425735 
L 257.6336 271.228895 
L 259.89632 271.228895 
L 259.89632 244.752146 
L 262.159047 244.752146 
L 262.159047 284.467269 
L 264.421766 284.467269 
L 264.421766 257.99052 
L 266.684486 257.99052 
L 266.684486 256.099324 
L 268.947213 256.099324 
L 268.947213 280.684876 
L 271.209925 280.684876 
L 271.209925 293.923251 
L 273.472652 293.923251 
L 273.472652 276.902484 
L 275.735371 276.902484 
L 275.735371 286.358465 
L 277.998091 286.358465 
L 277.998091 290.140858 
L 280.260818 290.140858 
L 280.260818 278.79368 
L 282.523537 278.79368 
L 282.523537 307.161625 
L 284.786257 307.161625 
L 284.786257 303.379233 
L 287.048984 303.379233 
L 287.048984 312.835215 
L 289.311703 312.835215 
L 289.311703 307.161625 
L 291.574423 307.161625 
L 291.574423 309.052822 
L 293.837142 309.052822 
L 293.837142 305.270429 
L 296.099869 305.270429 
L 296.099869 314.726411 
L 298.362589 314.726411 
L 298.362589 309.052822 
L 300.6253 309.052822 
L 300.6253 316.617607 
L 302.888028 316.617607 
L 302.888028 310.944018 
L 305.150755 310.944018 
L 305.150755 305.270429 
L 307.413482 305.270429 
L 307.413482 303.379233 
L 309.676193 303.379233 
L 309.676193 309.052822 
L 311.938921 309.052822 
L 311.938921 316.617607 
L 314.201632 316.617607 
L 314.201632 312.835215 
L 316.464359 312.835215 
L 316.464359 316.617607 
L 318.727086 316.617607 
L 318.727086 310.944018 
L 320.989814 310.944018 
L 320.989814 314.726411 
L 323.252525 314.726411 
L 323.252525 320.4 
" clip-path="url(#p12597b0304)" style="fill: none; stroke: #2ca02c; stroke-linejoin: miter"/>
   </g>
   <g id="line2d_9">
    <path d="M 231.958198 320.4 
L 231.958198 197.283117 
" clip-path="url(#p12597b0304)" style="fill: none; stroke: #ff0000; stroke-width: 1.5; stroke-linecap: square"/>
   </g>
   <g id="patch_10">
    <path d="M 197.181818 325.4 
L 324 325.4 
" style="fill: none; stroke: #000000; stroke-width: 0.8; stroke-linejoin: miter; stroke-linecap: square"/>
   </g>
  </g>
  <g id="text_9">
   <!-- simulator) -->
   <g transform="translate(139.18125 19.3575) scale(0.16 -0.16)">
    <defs>
     <path id="DejaVuSans-73" d="M 2834 3397 
L 2834 2853 
Q 2591 2978 2328 3040 
Q 2066 3103 1784 3103 
Q 1356 3103 1142 2972 
Q 928 2841 928 2578 
Q 928 2378 1081 2264 
Q 1234 2150 1697 2047 
L 1894 2003 
Q 2506 1872 2764 1633 
Q 3022 1394 3022 966 
Q 3022 478 2636 193 
Q 2250 -91 1575 -91 
Q 1294 -91 989 -36 
Q 684 19 347 128 
L 347 722 
Q 666 556 975 473 
Q 1284 391 1588 391 
Q 1994 391 2212 530 
Q 2431 669 2431 922 
Q 2431 1156 2273 1281 
Q 2116 1406 1581 1522 
L 1381 1569 
Q 847 1681 609 1914 
Q 372 2147 372 2553 
Q 372 3047 722 3315 
Q 1072 3584 1716 3584 
Q 2034 3584 2315 3537 
Q 2597 3491 2834 3397 
z
" transform="scale(0.015625)"/>
     <path id="DejaVuSans-69" d="M 603 3500 
L 1178 3500 
L 1178 0 
L 603 0 
L 603 3500 
z
M 603 4863 
L 1178 4863 
L 1178 4134 
L 603 4134 
L 603 4863 
z
" transform="scale(0.015625)"/>
     <path id="DejaVuSans-6d" d="M 3328 2828 
Q 3544 3216 3844 3400 
Q 4144 3584 4550 3584 
Q 5097 3584 5394 3201 
Q 5691 2819 5691 2113 
L 5691 0 
L 5113 0 
L 5113 2094 
Q 5113 2597 4934 2840 
Q 4756 3084 4391 3084 
Q 3944 3084 3684 2787 
Q 3425 2491 3425 1978 
L 3425 0 
L 2847 0 
L 2847 2094 
Q 2847 2600 2669 2842 
Q 2491 3084 2119 3084 
Q 1678 3084 1418 2786 
Q 1159 2488 1159 1978 
L 1159 0 
L 581 0 
L 581 3500 
L 1159 3500 
L 1159 2956 
Q 1356 3278 1631 3431 
Q 1906 3584 2284 3584 
Q 2666 3584 2933 3390 
Q 3200 3197 3328 2828 
z
" transform="scale(0.015625)"/>
     <path id="DejaVuSans-75" d="M 544 1381 
L 544 3500 
L 1119 3500 
L 1119 1403 
Q 1119 906 1312 657 
Q 1506 409 1894 409 
Q 2359 409 2629 706 
Q 2900 1003 2900 1516 
L 2900 3500 
L 3475 3500 
L 3475 0 
L 2900 0 
L 2900 538 
Q 2691 219 2414 64 
Q 2138 -91 1772 -91 
Q 1169 -91 856 284 
Q 544 659 544 1381 
z
M 1991 3584 
L 1991 3584 
z
" transform="scale(0.015625)"/>
     <path id="DejaVuSans-6c" d="M 603 4863 
L 1178 4863 
L 1178 0 
L 603 0 
L 603 4863 
z
" transform="scale(0.015625)"/>
     <path id="DejaVuSans-61" d="M 2194 1759 
Q 1497 1759 1228 1600 
Q 959 1441 959 1056 
Q 959 750 1161 570 
Q 1363 391 1709 391 
Q 2188 391 2477 730 
Q 2766 1069 2766 1631 
L 2766 1759 
L 2194 1759 
z
M 3341 1997 
L 3341 0 
L 2766 0 
L 2766 531 
Q 2569 213 2275 61 
Q 1981 -91 1556 -91 
Q 1019 -91 701 211 
Q 384 513 384 1019 
Q 384 1609 779 1909 
Q 1175 2209 1959 2209 
L 2766 2209 
L 2766 2266 
Q 2766 2663 2505 2880 
Q 2244 3097 1772 3097 
Q 1472 3097 1187 3025 
Q 903 2953 641 2809 
L 641 3341 
Q 956 3463 1253 3523 
Q 1550 3584 1831 3584 
Q 2591 3584 2966 3190 
Q 3341 2797 3341 1997 
z
" transform="scale(0.015625)"/>
     <path id="DejaVuSans-74" d="M 1172 4494 
L 1172 3500 
L 2356 3500 
L 2356 3053 
L 1172 3053 
L 1172 1153 
Q 1172 725 1289 603 
Q 1406 481 1766 481 
L 2356 481 
L 2356 0 
L 1766 0 
Q 1100 0 847 248 
Q 594 497 594 1153 
L 594 3053 
L 172 3053 
L 172 3500 
L 594 3500 
L 594 4494 
L 1172 4494 
z
" transform="scale(0.015625)"/>
     <path id="DejaVuSans-6f" d="M 1959 3097 
Q 1497 3097 1228 2736 
Q 959 2375 959 1747 
Q 959 1119 1226 758 
Q 1494 397 1959 397 
Q 2419 397 2687 759 
Q 2956 1122 2956 1747 
Q 2956 2369 2687 2733 
Q 2419 3097 1959 3097 
z
M 1959 3584 
Q 2709 3584 3137 3096 
Q 3566 2609 3566 1747 
Q 3566 888 3137 398 
Q 2709 -91 1959 -91 
Q 1206 -91 779 398 
Q 353 888 353 1747 
Q 353 2609 779 3096 
Q 1206 3584 1959 3584 
z
" transform="scale(0.015625)"/>
     <path id="DejaVuSans-72" d="M 2631 2963 
Q 2534 3019 2420 3045 
Q 2306 3072 2169 3072 
Q 1681 3072 1420 2755 
Q 1159 2438 1159 1844 
L 1159 0 
L 581 0 
L 581 3500 
L 1159 3500 
L 1159 2956 
Q 1341 3275 1631 3429 
Q 1922 3584 2338 3584 
Q 2397 3584 2469 3576 
Q 2541 3569 2628 3553 
L 2631 2963 
z
" transform="scale(0.015625)"/>
     <path id="DejaVuSans-29" d="M 513 4856 
L 1013 4856 
Q 1481 4119 1714 3412 
Q 1947 2706 1947 2009 
Q 1947 1309 1714 600 
Q 1481 -109 1013 -844 
L 513 -844 
Q 928 -128 1133 580 
Q 1338 1288 1338 2009 
Q 1338 2731 1133 3434 
Q 928 4138 513 4856 
z
" transform="scale(0.015625)"/>
    </defs>
    <use xlink:href="#DejaVuSans-73"/>
    <use xlink:href="#DejaVuSans-69" transform="translate(52.099609 0)"/>
    <use xlink:href="#DejaVuSans-6d" transform="translate(79.882812 0)"/>
    <use xlink:href="#DejaVuSans-75" transform="translate(177.294922 0)"/>
    <use xlink:href="#DejaVuSans-6c" transform="translate(240.673828 0)"/>
    <use xlink:href="#DejaVuSans-61" transform="translate(268.457031 0)"/>
    <use xlink:href="#DejaVuSans-74" transform="translate(329.736328 0)"/>
    <use xlink:href="#DejaVuSans-6f" transform="translate(368.945312 0)"/>
    <use xlink:href="#DejaVuSans-72" transform="translate(430.126953 0)"/>
    <use xlink:href="#DejaVuSans-29" transform="translate(471.240234 0)"/>
   </g>
  </g>
 </g>
 <defs>
  <clipPath id="pde98568a57">
   <rect x="45" y="36" width="126.818182" height="129.272727"/>
  </clipPath>
  <clipPath id="p09c10480fb">
   <rect x="197.181818" y="36" width="126.818182" height="129.272727"/>
  </clipPath>
  <clipPath id="p12597b0304">
   <rect x="197.181818" y="191.127273" width="126.818182" height="129.272727"/>
  </clipPath>
 </defs>
</svg>
